<svg aria-hidden="true" style="width:0;height:0;position:absolute;overflow:hidden" xmlns="http://www.w3.org/2000/svg"><defs><symbol id="icon-logo" viewBox="0 0 25 32"><path fill="#e8e8e8" style="fill:var(--color1,#e8e8e8)" d="M13.006 11.861c-.077-.036-.159-.063-.232-.104a1.563 1.563 0 0 1-.071-.04l.015.008a1.612 1.612 0 0 1-.215-.145l.003.003h-.001a.79.79 0 0 1-.06-.054c-.066-.067-.1-.131-.098-.195l.164.061a.03.03 0 0 0 .009.002c.011 0 .02-.007.024-.017a.03.03 0 0 0 .002-.009.027.027 0 0 0-.016-.024l-.194-.072a.496.496 0 0 1-.223-.209l-.001-.003a.278.278 0 0 1-.025-.061L12.086 11l-.001-.001a.146.146 0 0 1-.005-.038v-.008a.053.053 0 0 1 .012-.03.048.048 0 0 1 .02-.014.479.479 0 0 0 .267.091h.003a.026.026 0 0 0 .025-.024v-.002a.025.025 0 0 0-.024-.025.422.422 0 0 1-.251-.088l.001.001a.63.63 0 0 1-.171-.203l-.002-.003a.221.221 0 0 1-.023-.078v-.019a.086.086 0 0 1 .025-.056c.102.072.21.101.319.116h.004c.013 0 .023-.01.025-.022v-.004a.025.025 0 0 0-.022-.025.645.645 0 0 1-.313-.119l.002.001a.47.47 0 0 1-.151-.166l-.001-.002a.248.248 0 0 1-.022-.152v.001c.142.069.291.116.447.144h.005a.025.025 0 0 0 .025-.021v-.005a.026.026 0 0 0-.021-.025 1.67 1.67 0 0 1-.472-.157l.009.004-.062-.035v-.001c-.188-.107-.374-.211-.524-.338a.836.836 0 0 1-.304-.472c.3.181.639.313.976.444.136.053.271.105.404.162.291.123.515.323.541.62.049.557.407 1.253 1.261 1.434-.227-.017-1.083-.024-1.083-.024z"/><path fill="#e8e8e8" style="fill:var(--color1,#e8e8e8)" d="M11.178 9.736a.947.947 0 0 1-.287-.381h-.004a.027.027 0 0 1-.012-.003c-.15-.079-.293-.149-.434-.216-.363-.175-.704-.339-1.066-.639.008.17.118.326.242.488.387.389.867.637 1.412.839a.026.026 0 0 1-.009.05l-.009-.002c-.548-.202-1.034-.453-1.428-.848a.863.863 0 0 1-.23-.138l.001.001c.024.226.176.442.389.658.425.361.952.555 1.383.714l.021.008-.004-.046v-.001a.03.03 0 0 1 .012-.023l.012-.003a.03.03 0 0 1 .013.003c.121.072.195.107.296.154l.117.055c.118.057.18.084.24.111l.053.024a.136.136 0 0 1 .033-.068.482.482 0 0 1-.142-.166l-.001-.003a.301.301 0 0 1-.023-.198v.002l-.047-.027c-.187-.106-.377-.213-.53-.344z"/><path fill="#e8e8e8" style="fill:var(--color1,#e8e8e8)" d="M11.111 10.307c-.429-.159-.964-.355-1.395-.721a1.37 1.37 0 0 1-.26-.164l.003.002c.059.286.242.462.431.645l.045.043c.429.309.871.44 1.319.572l.017.005-.019-.051-.003-.009-.001-.008c0-.009.004-.017.011-.021.004-.003.009-.005.014-.005s.011.002.016.006a.5.5 0 0 0 .085.056.819.819 0 0 1-.21-.329l-.052-.019z"/><path fill="#e8e8e8" style="fill:var(--color1,#e8e8e8)" d="M11.238 10.732c-.447-.132-.895-.264-1.332-.578a1.125 1.125 0 0 1-.341-.192l.002.002c.045.218.216.371.396.531l.012.011c.434.316.91.447 1.289.553.068.018.132.037.193.055.065.017.12.03.167.039a1.17 1.17 0 0 1-.165-.146l-.001-.001a.916.916 0 0 1-.162-.251l-.002-.006-.056-.017h-.001z"/><path fill="#e8e8e8" style="fill:var(--color1,#e8e8e8)" d="M11.253 11.11c-.378-.105-.863-.239-1.304-.559a.545.545 0 0 1-.208-.096l.001.001c.06.24.214.406.387.564.176.142.43.238.714.309a8.322 8.322 0 0 0 .901.156.808.808 0 0 1-.311-.325c.026.004-.035-.013-.095-.03l-.086-.021z"/><path fill="#e8e8e8" style="fill:var(--color1,#e8e8e8)" d="M10.832 11.38c-.283-.071-.543-.168-.728-.314a.368.368 0 0 1-.107-.03l.003.001a.832.832 0 0 1-.076-.034l.006.003a.822.822 0 0 0 .465.482 4.39 4.39 0 0 0 1.521.256c-.021-.011-.038-.023-.055-.035l.001.001a.642.642 0 0 1-.156-.173l-.002-.003a8.323 8.323 0 0 1-.873-.155z"/><path fill="#e8e8e8" style="fill:var(--color1,#e8e8e8)" d="m11.961 11.795-.081.001a4.453 4.453 0 0 1-1.529-.268l.031.01-.036.002c.102.191.256.246.53.345.38 0 .775-.036 1.168.056a.263.263 0 0 1-.078-.091l-.001-.001a.078.078 0 0 1-.005-.055v.001zm.073-.05c.2.058.404.063.612-.003a1.603 1.603 0 0 1-.166-.115l.003.003c-.251.023-.418-.021-.653-.109a.13.13 0 0 1-.062.016.553.553 0 0 0 .124.132.66.66 0 0 0 .124.068l.018.008z"/><path fill="#e8e8e8" style="fill:var(--color1,#e8e8e8)" d="M11.835 11.469c.222.084.376.126.593.114a.414.414 0 0 1-.113-.155l-.001-.003a2.597 2.597 0 0 1-.619-.215l.015.007a1.177 1.177 0 0 1-.214-.039l.009.002c.08.125.18.239.329.288l.001.001zm-.105-.3c.164.083.354.152.553.197l.017.003a.264.264 0 0 1-.002-.029l.001-.026v.001a.552.552 0 0 1-.23-.224l-.001-.003a.318.318 0 0 1-.026-.059l-.001-.003a1.909 1.909 0 0 1-.573-.279.602.602 0 0 1-.148-.064l.003.001c.05.127.11.216.173.285s.129.118.196.169l.039.03zm-.235-.463c.153.117.338.198.536.265v-.019a.106.106 0 0 1 .023-.06.075.075 0 0 1 .016-.015.654.654 0 0 1-.153-.194l-.002-.004a.296.296 0 0 1-.026-.081v-.002a5.746 5.746 0 0 1-.352-.16l.037.017-.114-.054a3.189 3.189 0 0 1-.259-.132c.023.143.127.281.294.439zm-1.825 1.59c-.133-.02-.27-.024-.402-.053a2.476 2.476 0 0 1-.13-.029l.033.007-.002-.001a2.58 2.58 0 0 1-.403-.127l.018.006-.002-.001a1.126 1.126 0 0 1-.12-.058l.006.003c-.13-.072-.211-.154-.236-.252l.277.018h.003a.04.04 0 0 0 .04-.039v-.003a.04.04 0 0 0-.037-.04l-.327-.021a.76.76 0 0 1-.435-.221.482.482 0 0 1-.066-.083l-.001-.002-.001-.002a.223.223 0 0 1-.027-.065v-.001c-.002-.006-.002-.013-.002-.02 0-.011.002-.022.006-.032v.001a.089.089 0 0 1 .024-.03c.145.055.296.05.45.015a.042.042 0 0 0 .031-.04l-.001-.009a.04.04 0 0 0-.048-.03.661.661 0 0 1-.421-.02h-.001a.996.996 0 0 1-.353-.236.338.338 0 0 1-.069-.108l-.001-.002v-.002a.15.15 0 0 1-.007-.025v-.001a.148.148 0 0 1 .014-.098v.001c.188.063.365.057.538.032a.04.04 0 0 0 .034-.04l-.001-.006a.04.04 0 0 0-.04-.035h-.005c-.174.026-.347.03-.528-.038a.72.72 0 0 1-.306-.188.41.41 0 0 1-.099-.216v-.002c.247.04.496.043.747.015a.04.04 0 0 0 .035-.04v-.006a.04.04 0 0 0-.04-.036h-.004a2.68 2.68 0 0 1-.79-.026l.016.002-.111-.025c-.335-.077-.665-.152-.949-.278-.288-.127-.526-.304-.672-.582.537.139 1.115.185 1.687.232.231.018.462.037.689.062.5.054.93.258 1.101.701.32.829 1.101 1.86 2.376 1.8-.355.079-1.485.275-1.485.275z"/><path fill="#e8e8e8" style="fill:var(--color1,#e8e8e8)" d="M5.942 9.883a1.48 1.48 0 0 1-.605-.451.047.047 0 0 1-.017.004l-.008-.001a11.318 11.318 0 0 0-.651-.118l-.108-.014c-.631-.101-1.226-.196-1.91-.489.087.256.323.444.585.635.763.418 1.604.578 2.527.636a.041.041 0 0 1 .038.04v.003a.04.04 0 0 1-.04.038h-.002c-.926-.058-1.78-.22-2.555-.643a1.353 1.353 0 0 1-.418-.107l.009.003c.135.334.463.595.883.827.807.357 1.699.413 2.428.459l.035.002a.516.516 0 0 1-.026-.065l-.001-.005a.05.05 0 0 1-.002-.012c0-.011.004-.02.01-.028a.04.04 0 0 1 .029-.013l.01.001c.141.038.317.073.497.097l.023.003.202.03c.113.021.286.046.461.066l.047.004-.001-.024c0-.034.008-.067.022-.096l-.001.001a.76.76 0 0 1-.293-.193.487.487 0 0 1-.121-.288v-.002l-.083-.018c-.333-.076-.67-.154-.963-.283z"/><path fill="#e8e8e8" style="fill:var(--color1,#e8e8e8)" d="M6.09 10.787c-.726-.045-1.63-.101-2.45-.464a2.11 2.11 0 0 1-.478-.135l.014.005c.215.41.571.596.941.789l.087.045c.793.277 1.525.274 2.268.271h.027l-.054-.075-.005-.008c-.005-.007-.007-.015-.007-.023s.003-.019.009-.026a.04.04 0 0 1 .047-.012c.048.02.101.035.154.046-.207-.12-.368-.251-.465-.408l-.088-.005z"/><path fill="#e8e8e8" style="fill:var(--color1,#e8e8e8)" d="M6.47 11.38c-.74.003-1.484.006-2.289-.274a1.772 1.772 0 0 1-.613-.139l.012.004c.165.312.494.467.838.631l.023.011c.803.283 1.588.267 2.214.255.112-.002.218-.005.318-.005.1-.003.195-.009.288-.018l-.016.001a1.905 1.905 0 0 1-.327-.154l.009.005a1.467 1.467 0 0 1-.362-.315l-.002-.002h-.095z"/><path fill="#e8e8e8" style="fill:var(--color1,#e8e8e8)" d="M6.659 11.948c-.623.013-1.423.03-2.239-.257a.86.86 0 0 1-.364-.053l.006.002c.197.341.506.524.84.686.331.135.763.167 1.227.146s.957-.094 1.411-.165a.237.237 0 0 0 .036-.009c-.25-.046-.451-.199-.619-.354-.094.001-.194.002-.299.005z"/><path fill="#e8e8e8" style="fill:var(--color1,#e8e8e8)" d="M6.133 12.555c-.463.021-.904-.009-1.25-.148a.643.643 0 0 1-.172.005 1.927 1.927 0 0 1-.131-.017l.01.001c.244.307.545.491.923.525a7.017 7.017 0 0 0 2.438-.305.997.997 0 0 1-.103-.029l.006.002a.971.971 0 0 1-.319-.198l.001.001c-.449.07-.939.142-1.402.163z"/><path fill="#e8e8e8" style="fill:var(--color1,#e8e8e8)" d="M8.043 12.673a7.14 7.14 0 0 1-2.526.329l-.053.02c.24.246.61.359 1.072.384.665-.029 1.207-.285 1.7-.549a.417.417 0 0 1-.16-.105.131.131 0 0 1-.033-.08z"/><path fill="#e8e8e8" style="fill:var(--color1,#e8e8e8)" d="M8.34 12.895c-.511.275-1.086.562-1.798.594l-.122.04c.46.18.939.2 1.45-.035.274-.14.527-.313.737-.556a1.114 1.114 0 0 1-.275-.045l.008.002zm.556-.08c.09-.217.143-.255.346-.424-.102-.018.105-.047.008-.068l-.121-.027.04.008a1.71 1.71 0 0 1-1.027.34c-.015.012-.018.021-.019.025-.001.005.001.015.014.03.027.033.089.07.177.1l.034.011h.001c.169.051.39.066.549.004z"/><path fill="#e8e8e8" style="fill:var(--color1,#e8e8e8)" d="M8.133 12.563h.008c.345 0 .666-.106.931-.288l-.006.004a2.463 2.463 0 0 1-.314-.103l.017.006c-.374.149-.649.159-1.048.133a.236.236 0 0 1-.086.052h-.002a.887.887 0 0 0 .247.145c.064.022.138.038.215.047H8.1l.032.005z"/><path fill="#e8e8e8" style="fill:var(--color1,#e8e8e8)" d="M7.707 12.23c.375.026.63.021.957-.097l-.039-.02.007.003a.644.644 0 0 1-.211-.171l-.001-.001a4.018 4.018 0 0 1-1.038-.046l.024.003c-.078.018-.19.03-.33.037.176.154.38.282.63.29h.002zm-.292-.409a3.816 3.816 0 0 0 .972.044l-.014.001a.317.317 0 0 1-.024-.079v-.002a.852.852 0 0 1-.452-.241.561.561 0 0 1-.066-.08l-.001-.002c-.35-.008-.691-.046-1-.163h-.017a.908.908 0 0 1-.24-.032l.006.001c.133.171.263.28.39.357.125.076.249.122.373.168l.072.027zm-.563-.601c.285.11.603.149.935.159a.176.176 0 0 1-.007-.027v-.002a.18.18 0 0 1 .009-.102v.001a.165.165 0 0 1 .018-.032 1.028 1.028 0 0 1-.323-.231v-.001a.471.471 0 0 1-.075-.111l-.001-.003-.125-.016c-.104-.013-.213-.026-.42-.059l-.199-.03c-.155-.024-.276-.041-.454-.084.098.207.316.373.642.537zm5.444 6.254c.028-.352.027-.7.093-1.035.057-.296.149-.6.294-.86.533-.957 1.692-1.008 2.295-.096.146.22.301.278.532.284.665.015 1.329.044 2.018.069-.039-.126-.066-.246-.116-.354-.017-.037-.097-.056-.148-.061-.395-.037-.79-.082-1.186-.097-.337-.013-.542-.171-.638-.493-.043-.143-.121-.216-.283-.165.117-.191.317-.072.52-.146-.094-.052-.155-.11-.224-.12-.493-.073-.989-.133-1.482-.207a.806.806 0 0 1-.287-.124c.405.053.809.105 1.213.159.181.024.363.045.541.078.076.014.175.035.216.089.097.13.216.132.354.136.525.024 1.05.06 1.575.082.094.004.191-.037.285-.057.083-.018.166-.054.25-.053.853.016 1.706.036 2.558.06.054 0 .107.042.161.062a.868.868 0 0 0 .245.059c-.096-.221-.225-.391-.468-.43a179.14 179.14 0 0 1-2.176-.354.722.722 0 0 1-.267-.105l.003.002c-.221-.141-.435-.294-.684-.465l.398.417c-.334-.022-.629-.049-.925-.06-.858-.033-1.715-.066-2.573-.085-.242-.005-.486.053-.729.066-.22.012-.39-.091-.523-.269-.249-.337-.502-.669-.754-1.004-.196-.261-.453-.397-.777-.388-.767.021-1.532.061-2.284.242a.658.658 0 0 0-.496.441c-.194.521-.425 1.031-.58 1.564-.1.345-.123.723-.125 1.085l-.001.131c0 .495.03.983.088 1.463l-.006-.058c.043.354.184.433.538.449l3.28.149c.095.004.191 0 .274 0zm-2.252-.468a.955.955 0 0 1-.11-.71l-.001.006c.026-.109.044-.236.05-.367v-.005c.011-.284.007-.57.018-.855.015-.369.073-.73.252-1.059.006-.011 0-.03 0-.052-.293 0-.584.012-.873-.005-.168-.009-.333-.062-.498-.104-.137-.036-.176-.141-.133-.268.104-.304.203-.611.333-.903a.453.453 0 0 1 .269-.224l.003-.001a8.439 8.439 0 0 1 2.265-.163l-.024-.001a.618.618 0 0 1 .491.273c.182.27.358.545.524.825a.545.545 0 0 1 .011.541l.001-.003c-.085.165-.104.329-.117.501-.028.357-.051.716-.079 1.108V14.232a.301.301 0 0 0-.033-.137l.001.002c-.028-.049-.076-.085-.125-.136-.575 0-1.165.004-1.755-.004-.116 0-.19.037-.216.143-.072.29-.165.578-.197.873-.04.385.005.781-.05 1.163-.044.294-.07.573-.009.867zm3.967-3.091.011-.049c.047-.002.095-.002.142 0 .427.048.852.105 1.279.145.955.09 1.911.188 2.867.252.76.051 1.522.06 2.284.082.122.003.201.043.234.15-.129-.01-.258-.027-.39-.03-.211-.008-.931-.026-1.652-.041l-.408-.007c-.212-.005-.43-.056-.623.089-.017.013-.052.005-.078.004-.567-.041-1.134-.082-1.7-.127a.48.48 0 0 1-.149-.053l.003.001c-.101-.043-.197-.111-.303-.132-.433-.078-.87-.138-1.303-.21-.072-.011-.142-.049-.213-.075zm-1.765 2.309-2.08-.096v-.531a.781.781 0 0 0 .148.043c.235.025.473.031.704.073.331.06.659.139.985.226.122.031.235.107.245.283zm-2.34-.105c-.38-.021-.749-.027-1.114-.066-.262-.029-.38-.204-.364-.447h1.477v.512zm.21.866 2.091.059v.264c-.064 0-.123.002-.18 0-.558-.018-1.115-.038-1.672-.055-.216-.008-.216-.006-.238-.267zm-1.774-.124c.133.029.274.076.417.085.32.024.642.032.963.023.21-.009.291.112.357.225-.418 0-.845.005-1.272 0-.286-.005-.373-.078-.464-.334zm8.907-1.208c-.506-.043-1.003-.075-1.496-.132-.286-.033-.443-.267-.44-.624.021.045.033.066.043.089.114.248.29.389.571.403.384.02.768.061 1.152.092.095.007.19.009.171.171zm-8.907-1.479c.018-.146.111-.185.258-.177.23.014.46.007.69.008h.848l.013.073c-.052.017-.105.047-.157.048-.46.004-.921 0-1.381.004-.09.002-.18.029-.27.045v-.001zm2.035-.041-.018-.056c.04-.018.081-.053.121-.053.552 0 1.104.003 1.656.009.12.002.185.092.267.174-.225-.027-.428-.066-.63-.071-.465-.008-.931-.003-1.397-.003zm.466.365c.027.155-.094.155-.166.209s-.113.139-.214.072c-.068-.045-.146-.085-.19-.149-.018-.027.024-.139.065-.161.142-.075.296-.187.441.006.01.014.038.014.065.022zm1.787.561c-.091-.135-.111-.242.012-.344.1-.082.193-.172.294-.25.04-.03.099-.035.149-.051.002.071.036.171.002.208-.139.153-.298.289-.457.438v-.001zm.225-1.4h-.032c-.032-.114-.039-.244-.1-.338a8.792 8.792 0 0 0-.637-.9c-.097-.117-.275-.184-.429-.226-.167-.047-.349-.04-.525-.056.145-.011.293-.031.432-.005.17.031.366.059.493.164.338.276.573.647.758 1.045.043.091.027.211.039.318h.001zm-4.492.91c.038-.072.056-.136.097-.175s.11-.054.161-.087c.08-.052.148-.059.207.031.02.021.043.04.069.056.029.024.084.054.081.073a.175.175 0 0 1-.069.115h-.001c-.133.069-.27.246-.416.014-.012-.018-.059-.013-.127-.026h.001z"/><path fill="#e8e8e8" style="fill:var(--color1,#e8e8e8)" d="M19.209 16.92v-.268h1.385v.285h.576l-.014.142c.478-.151.704-.467.614-.937-.02-.107-.068-.164-.215-.129-.206.048-.427.03-.641.047-.05.003-.117.012-.145.045-.101.126-.231.114-.366.111-.37-.009-.741-.008-1.11-.019-.067-.002-.134-.044-.2-.066a.435.435 0 0 0-.1-.033h-.003c-1.047-.076-2.093-.153-3.141-.222-.434-.029-.87-.035-1.303-.057-.122-.006-.139.033-.097.143.07.177.17.292.364.348.727.208 1.449.43 2.171.657.29.091.576.079.857.009.276-.069.547-.075.828-.059.171.011.343.003.538.003zm-1.816-.056v.006c-.212-.03-.424-.076-.637-.084-.256-.009-.361-.173-.442-.38-.05-.128-.021-.177.111-.174.235.006.472.033.707.027l.027-.001a.65.65 0 0 1 .487.219l.001.001c.06.062.097.148.142.223-.095.056-.188.117-.285.166-.03.015-.075-.002-.113-.005h.002zm4.22-.5c.035.28-.112.515-.316.517-.061-.317-.026-.375.316-.517zm-15.936.657c.057-.379.091-.744.173-1.098.053-.233.145-.456.271-.658.282-.448.848-.54 1.245-.193.186.162.314.395.463.599.04.055.062.125.114.233.06-.665-.042-1.302.202-1.886-.375 0-.744-.002-1.113 0-.424.004-.847.011-1.271.018-.294.005-.379.091-.397.416.205.011.211.143.194.315-.026.271-.008.549-.048.818-.018.128-.123.243-.193.373.185.05.151.246.161.421.008.125.014.252.011.378-.004.145.067.219.189.264zm2.121-2.525c-.213-.197-.465-.226-.737-.214-.455.021-.912.022-1.368.03-.055 0-.11-.007-.165-.011l-.011-.046c.034-.017.067-.046.102-.048.056-.002.114.02.171.018.537-.012 1.074-.027 1.61-.043.28-.008.305.008.398.316v-.002zm7.053-1.1-1.013-.98.338-.042v-.03h-1.519c.03.059.062.115.097.17.146.203.315.39.438.606.177.308.432.399.758.364.289-.031.579-.057.9-.088z"/><path fill="#e8e8e8" style="fill:var(--color1,#e8e8e8)" d="M14.961 16.559c.186.104.367.217.559.31.543.264 1.087.532 1.698.57.503.033 1.008.03 1.512.041.177.003.355 0 .561 0l-.161-.09.23-.296c-.691-.076-1.345-.101-1.95.292l-.012-.06.294-.143c-.005-.014-.009-.03-.011-.03-.561.042-1.073-.176-1.6-.311-.348-.088-.689-.205-1.033-.308a.375.375 0 0 0-.069-.007h-.005l-.012.032zm-1.781 1.456c0 .296.086.559.278.783.393.455 1.017.427 1.37-.062.296-.404.307-.998.028-1.417-.376-.566-1.102-.566-1.479 0a1.194 1.194 0 0 0-.199.664v.034-.002zm1.645-.405a.97.97 0 0 1-.147 1.055c-.304.378-.812.358-1.109-.026a1.071 1.071 0 0 1-.002-1.265c.175-.226.402-.346.689-.288s.483.242.575.531l-.005-.006zm3.643-1.775c-.038-.031-.056-.059-.081-.066a.468.468 0 0 0-.087-.008l-.026.001h.001c-.463-.015-.463-.015-.583-.479a.281.281 0 0 1-.015-.062v-.002c-.009-.188.419-.467.589-.398a.98.98 0 0 0 .335.082c.639.02 1.277.03 1.916.037.075 0 .148-.049.223-.053s.15.02.267.038c-.122-.12-.212-.238-.365-.242-.848-.025-1.695-.056-2.543-.06-.299 0-.474.248-.649.463-.02.025-.014.087 0 .125.055.171.118.34.19.505.033.059.09.1.158.112h.001c.213.014.427.005.669.005zm.013-1.052.003-.036h.599l-.003.036h-.599zm2.144 0-.008.072-.538-.031.005-.041h.54zm-.767-.022v.041h-.547l.002-.041h.546zM6.121 17.758c.077.23.124.476.237.685.164.301.451.293.644.011.253-.368.254-1.067 0-1.438-.191-.28-.465-.279-.652.006-.142.217-.182.465-.187.72l-.043.015zm.837.559c-.173.254-.4.253-.551-.013a1.029 1.029 0 0 1-.119-.767l-.001.007c.045-.185.114-.348.207-.495l-.004.007c.07-.115.216-.154.326-.06s.181.225.282.355l-.179.064c-.026-.286-.026-.286-.109-.327l-.043.256-.157-.255c-.157.151.055.274.002.407l-.235-.016c.059.101.082.178.133.219.093.073.1.131.013.207-.073.066-.11.135-.023.226l.168-.105c.04.128-.098.264.04.404l.12-.317.131.204zm.018-.452c-.039.041-.084.115-.149.148-.025.013-.131-.058-.137-.099a1.63 1.63 0 0 1 .003-.407c.003-.023.104-.033.161-.047.01-.002.025.018.04.03-.138.077-.181.208-.096.323.024.034.095.03.178.053v-.001zm.133.033-.081.296c-.062-.12-.116-.239.081-.294v-.002zm10.178-2.669c-.171-.015-.342-.026-.512-.047-.224-.027-.445-.072-.669-.092s-.288-.172-.354-.364l.218-.015c-.055.139.034.206.125.239a.344.344 0 0 0 .253-.006l-.002.001c.041-.021.038-.135.058-.223h.214c0 .028-.012.066.002.082.129.171.436.184.6.036.051-.046.122-.07.183-.105l.029.045-.078.105.014.015.245-.165c-.694-.082-1.378-.15-2.067-.091.02.287.143.448.386.505.444.102.895.133 1.35.141l.005-.059zM7.785 16.88c-.074-.581-.233-1.124-.651-1.553-.04-.04-.055-.104-.064-.169-.26-.15-.603-.052-.846.25.077-.025.155-.047.234-.063.319-.045.564.095.764.332.258.305.392.675.515 1.049.018.051.033.103.048.155zm13.237.182c-.154 0-.293-.01-.43.005a.349.349 0 0 0-.183.101c-.105.102-.198.217-.29.319.253 0 .535.049.791-.015.2-.05.361-.242.541-.372l-.029-.045-.436.202.037-.195zm-6.261-1.427c-.39-.706-1.248-.682-1.715-.175.293-.164.571-.235.863-.149.136.04.283.095.384.19.139.13.285.155.469.133zm-2.573-3.615.136.125c.129-.023.226-.057.325-.055 1.151.036 2.303.053 3.446.226h.006c.018 0 .034-.01.042-.024-1.308-.232-2.628-.261-3.956-.273z"/><path fill="#e8e8e8" style="fill:var(--color1,#e8e8e8)" d="M18.477 15.409c.052.11.089.23.161.326a.226.226 0 0 0 .236.095h-.002a.225.225 0 0 0 .082-.036h-.001c.133-.082.142-.222.132-.362s-.045-.258-.183-.318c-.22-.094-.398.033-.426.293zm.538-.025c-.1.13-.156.293-.327.25-.015-.098 0-.216-.044-.248-.108-.076.058-.091.015-.137l.235-.055-.056.095.177.095zm1.875.031c.061.15.091.275.159.373.089.129.245.105.309-.038.074-.168.076-.349-.027-.498-.043-.063-.188-.12-.24-.092-.086.047-.135.165-.201.256zm.284.16a.517.517 0 0 1-.087-.088l-.001-.001c-.021-.033-.048-.09-.035-.117.017-.033.072-.047.115-.073l-.047-.045c.104.012.201.031.137.17a.076.076 0 0 0 0 .054v-.001c.037.098.032.104-.082.136v-.036zm-15.964.187c.193-.088.245-.463.121-.592.136-.184.128-.532-.044-.573l-.077 1.165zm9.216.508c-.035-.034-.065-.083-.106-.095-.489-.14-1.265.273-1.445.775.393-.514.893-.762 1.551-.68zm-8.31.5c.059-.099.112-.205.178-.3.205-.291.46-.306.67-.02.123.168.203.37.298.559.032.063.05.131.087.191-.075-.379-.179-.745-.508-.986-.153-.113-.319-.095-.457.032a.907.907 0 0 0-.269.523zm14.309 1.407c-.052.068-.093.105-.116.152-.244.517-.767.625-1.189.246a.667.667 0 0 0-.092-.061l-.004-.002c.052.238.402.39.771.351a.7.7 0 0 0 .63-.685z"/><path fill="#e8e8e8" style="fill:var(--color1,#e8e8e8)" d="M18.634 15.851c-.177-.175-.294-.37-.197-.628.072-.197.232-.239.457-.203-.161-.104-.285-.071-.4-.004-.149.086-.186.235-.172.395.017.206.101.373.312.44zm-1.55 1.867c-.359-.046-.478.248-.669.444l.035.048.634-.491zm3.917-1.858c-.143-.204-.214-.418-.096-.657.069-.141.194-.168.38-.12-.213-.109-.363-.069-.451.086-.12.216-.041.562.168.691zm-.121 1.811h-.4l.178.074-.316.285c.214-.096.398-.154.538-.36zm-9.12.717c.11.146.258.198.409.119.103-.053.172-.131.151-.271-.097.085-.171.197-.268.221-.09.023-.202-.044-.292-.068zm9.84-2.518c-.032-.156.037-.31-.075-.454-.087.258-.068.408.075.455zm-5.146-.779.472.036c-.172-.127-.363-.15-.472-.036zm1.589-1.59.318.27c-.025-.22-.086-.27-.318-.27zM5.223 16.2c-.125-.075-.139-.012-.128.398.042-.131.083-.262.128-.398zm5.351-3.735-.383 1.377.222.022.168-.749.029.005-.126.723c.141.037.194-.004.226-.146.084-.378.194-.75.287-1.125.025-.098.082-.131.175-.12a.878.878 0 0 0 .145 0c.305-.015.594.016.79.306a.52.52 0 0 0-.45-.372 9.16 9.16 0 0 0-2.282.15l.057-.009a.332.332 0 0 0-.271.226c-.097.272-.191.545-.279.82-.017.052.003.116.007.191.132-.361.247-.69.376-1.019a.237.237 0 0 1 .151-.126h.002c.377-.056.76-.101 1.159-.153z"/><path fill="#e8e8e8" style="fill:var(--color1,#e8e8e8)" d="M11.081 13.697c.094-.017.17-.044.245-.042.418.014.837.035 1.24.053-.03-.092-.07-.171-.079-.253-.018-.165-.107-.253-.258-.257-.278-.008-.556-.002-.834.002-.15.002-.209.116-.249.239-.03.09-.048.184-.066.258zm1.296-.172c-.184-.049-.357-.113-.535-.137-.191-.026-.392-.123-.588.011.06-.06.129-.119.203-.123.235-.011.47-.002.706.002.177.004.217.05.216.248zm-3.507.954h-.402l.002.02h.4v-.02zm8.182 1.843-.134.134c.048.048.09.117.147.137.034.011.093-.058.141-.091l-.155-.179zm.541.378-.241-.17-.141.198.375.019.007-.047zm-1.048-.13c.044-.055.096-.105.09-.119a.21.21 0 0 0-.105-.09h-.001c-.018-.007-.083.052-.079.066.015.043.051.08.096.143zm-1.716 1.046h-.277c-.085-.105.115-.376-.205-.401l-.053.352c-.089-.103-.157-.191-.237-.265-.028-.027-.109-.043-.126-.025-.032.035-.062.108-.047.146.037.099.101.186.175.316l-.371-.042c-.08.113-.072.197.067.252.072.029.14.072.246.128-.095.073-.161.131-.233.177s-.107.107-.045.17c.033.033.11.035.162.023.073-.018.142-.062.252-.113-.037.137-.069.227-.085.32-.007.044.015.092.024.138.055-.017.132-.017.162-.055.061-.08.097-.18.155-.294l.195.241c.2-.119.004-.296.075-.436h.155c.148-.173-.081-.215-.082-.317l.092-.321.003.006zm-.186.504c-.015.12-.094.216-.247.235-.144.018-.29-.094-.338-.252-.053-.169-.008-.34.117-.407.12-.066.235-.064.357.054-.133-.012-.252-.002-.256.131-.002.09.042.21.107.263.048.038.164-.012.261-.025h-.001z"/><path fill="#e8e8e8" style="fill:var(--color1,#e8e8e8)" d="M13.778 17.298c-.483.411-.384 1.291.1 1.454-.421-.455-.406-.942-.1-1.455zm-7.272 1.016c-.178-.378-.161-.759-.025-1.142-.223.314-.212.859.025 1.142zM3.096 7.428h-.584l.658-2.035h.739l.658 2.034h-.584l-.435-1.474h-.016l-.436 1.474zm-.109-.803h1.098v.413H2.987v-.413zm1.772.803V5.393h.864c.152 0 .279.021.383.063s.182.101.234.177a.46.46 0 0 1 .08.269v.007a.431.431 0 0 1-.182.352l-.001.001a.532.532 0 0 1-.202.085v.02a.495.495 0 0 1 .236.068l-.002-.001c.07.04.125.096.167.168a.486.486 0 0 1 .063.239v.012-.001a.535.535 0 0 1-.327.502.856.856 0 0 1-.373.074h-.938zm.541-.441h.253c.091 0 .159-.018.205-.052s.068-.087.068-.155v-.007a.215.215 0 0 0-.033-.115l.001.001a.198.198 0 0 0-.09-.074h-.001a.336.336 0 0 0-.133-.027h-.269v.429zm0-.771h.227a.312.312 0 0 0 .122-.024l-.002.001a.196.196 0 0 0 .085-.064v-.001a.173.173 0 0 0 .032-.101V6.013a.169.169 0 0 0-.066-.134.265.265 0 0 0-.157-.051H5.301v.389zm1.234-.378v-.445h1.732v.445h-.599v1.59h-.533v-1.59h-.599zm3.772.572c0 .226-.043.418-.13.574s-.203.272-.349.353c-.146.08-.31.119-.49.119-.182 0-.346-.04-.492-.12a.893.893 0 0 1-.346-.349l-.002-.005c-.085-.155-.129-.346-.129-.572s.043-.417.129-.572c.086-.155.203-.273.348-.353s.31-.12.492-.12c.18 0 .344.04.49.12s.264.197.35.353c.086.155.129.346.129.572zm-.557 0a.89.89 0 0 0-.047-.308.39.39 0 0 0-.138-.189l-.001-.001a.38.38 0 0 0-.214-.066h-.013.001-.012a.378.378 0 0 0-.215.067l.001-.001a.393.393 0 0 0-.138.188l-.001.003a.866.866 0 0 0-.047.286v.023-.001c0 .122.015.225.047.309a.404.404 0 0 0 .138.19l.001.001c.062.043.137.064.226.064s.165-.021.226-.065a.39.39 0 0 0 .138-.187l.001-.003a.905.905 0 0 0 .047-.309zm2.454 1.018h-.541V5.835h-.201a.45.45 0 0 0-.156.028l.003-.001a.213.213 0 0 0-.105.081v.001a.247.247 0 0 0-.036.131v.012-.001c0 .058.012.104.036.14.025.035.06.062.105.079s.1.024.162.024h.405v.429h-.514a.968.968 0 0 1-.398-.077.606.606 0 0 1-.265-.224l-.001-.002a.667.667 0 0 1-.095-.346v-.023.001c0-.144.031-.269.092-.372s.148-.183.259-.237a.866.866 0 0 1 .388-.082h.86V7.43zm-1.168-.934h.576l-.486.934h-.588l.498-.934zm1.423.934V5.393h.541v.795h.716v-.795h.541v2.034h-.541v-.795h-.716v.795h-.541zm3.456-2.034v.445h-.86v1.59h-.541V5.395h1.401zm2.037 1.016c0 .226-.043.418-.13.574s-.203.272-.349.353c-.146.08-.31.119-.49.119-.182 0-.346-.04-.492-.12a.893.893 0 0 1-.346-.349l-.002-.005c-.085-.155-.128-.346-.128-.572s.043-.417.128-.572c.087-.155.203-.273.349-.353s.311-.12.492-.12c.18 0 .344.04.49.12.147.08.264.197.35.353s.129.346.129.572zm-.556 0a.89.89 0 0 0-.047-.308.39.39 0 0 0-.138-.189l-.001-.001a.38.38 0 0 0-.214-.066h-.013.001-.012a.378.378 0 0 0-.215.067l.001-.001a.393.393 0 0 0-.138.188l-.001.003a.866.866 0 0 0-.047.286v.023-.001c0 .122.015.225.047.309a.404.404 0 0 0 .138.19l.001.001c.061.043.137.064.227.064s.165-.021.226-.065a.39.39 0 0 0 .138-.187l.001-.003a.881.881 0 0 0 .047-.309zm.741 1.018v-.425l.054-.008a.272.272 0 0 0 .165-.087c.044-.048.078-.125.101-.23s.039-.248.046-.43l.031-.854h1.444v2.035h-.521V5.824h-.424L19 6.463c-.012.237-.043.426-.093.567s-.128.242-.23.305a.787.787 0 0 1-.408.093h-.132zm2.097-2.034h.541v1.065h.015l.709-1.065h.459v2.034h-.541V6.359h-.012l-.72 1.069h-.451V5.394zM2.969 20.373l.264.477h.013l.266-.477h.486l-.479.819.498.819h-.498l-.272-.486h-.013l-.272.486h-.495l.491-.819-.476-.819h.489zm1.216 0h.542l.373.927h.019l.373-.927h.542v1.637h-.426v-.947h-.013l-.357.934h-.257l-.357-.94h-.013v.953h-.425v-1.637zm2.054 1.638v-1.637h1.155v.358h-.72v.282h.66v.358h-.66v.282h.718v.358H6.239zm1.319 0v-.342l.044-.006a.22.22 0 0 0 .132-.07.415.415 0 0 0 .082-.185c.019-.085.032-.2.037-.346l.025-.688H9.04v1.637h-.42v-1.292h-.341l-.025.515c-.009.191-.034.343-.075.456s-.102.195-.186.245a.631.631 0 0 1-.329.075h-.106zm1.963-1.088h.332c.135 0 .254.023.354.067.101.044.18.107.236.187s.085.175.084.284v.012a.485.485 0 0 1-.085.276l.001-.002a.554.554 0 0 1-.232.192l-.004.001a.834.834 0 0 1-.336.07h-.615v-1.638h.435v1.289H9.864c.045 0 .087-.01.125-.027l-.002.001a.187.187 0 0 0 .109-.17v-.014a.176.176 0 0 0-.061-.133c-.041-.037-.101-.055-.18-.055h-.332v-.34zm1.253 1.088v-1.637h.435v.64h.577v-.64h.435v1.637h-.435v-.639h-.576v.64h-.435zm1.654-1.638h.435v.858h.012l.57-.858h.37v1.637h-.435v-.86h-.009l-.579.86h-.364v-1.637zm3.261 1.302-.019.723h-.404v-.387h-.113v-.335h.536zm-1.666.336v-1.637h.42v1.296h.56v-1.295h.427v1.637h-1.406zm2.089-1.088h.332a.88.88 0 0 1 .354.067c.102.044.18.107.236.187s.084.175.084.284v.012a.49.49 0 0 1-.085.277l.001-.002a.562.562 0 0 1-.232.192l-.004.001a.834.834 0 0 1-.336.07h-.616v-1.638h.435v1.289H16.453c.045 0 .087-.01.125-.027l-.002.001a.187.187 0 0 0 .109-.17v-.014a.18.18 0 0 0-.061-.134c-.041-.037-.101-.055-.18-.055h-.332v-.34zm2.242 1.088-.491-.662h-.061v.662h-.436v-1.637h.435v.617h.056l.46-.617h.548l-.611.787.645.851h-.546zm.663-1.638h.436v.858h.012l.57-.858h.37v1.637h-.436v-.86h-.009l-.58.86h-.363v-1.637zm1.593 0h.436v.858h.012l.57-.858h.369v1.637h-.435v-.86h-.01l-.579.86h-.363v-1.637zm.852-.442h.273v.009a.305.305 0 0 1-.116.24h-.001c-.078.061-.181.093-.313.093s-.236-.031-.314-.093a.305.305 0 0 1-.115-.238v-.013.001h.27v.002c0 .035.013.067.035.091.025.027.067.041.125.041.055 0 .096-.014.12-.041a.149.149 0 0 0 .037-.094z"/><path fill="#e8e8e8" style="fill:var(--color1,#e8e8e8)" d="M12.25 1.267 1.206 3.257H0V2.224L12.25.017 24.5 2.224v1.034h-1.206L12.25 1.268zm0 29.343s-.222-.117-.603-.332c-2.306-1.3-10.441-6.17-10.441-10.153V3.256H0v16.869c0 1.626.942 3.152 2.026 4.41 1.12 1.299 2.58 2.526 3.994 3.571a49.235 49.235 0 0 0 3.893 2.581c.306.195.843.508 1.387.812l.258.132.098.053.027.015.009.005h.001l.556-1.093zm0 0s.222-.117.603-.332c2.306-1.3 10.441-6.17 10.441-10.153V3.256H24.5v16.869c0 1.626-.942 3.152-2.026 4.41-1.12 1.299-2.581 2.526-3.994 3.571a49.235 49.235 0 0 1-3.893 2.581c-.306.195-.843.508-1.387.812l-.258.132c.043-.02.002.003-.039.025l-.086.043-.009.005h-.001l-.556-1.093zm-.555 1.094.555-1.093.555 1.093-.555.294-.555-.294z"/></symbol><symbol id="icon-up" viewBox="0 0 32 32"><path d="M16 32c8.822 0 16-7.178 16-16S24.822 0 16 0 0 7.178 0 16s7.178 16 16 16zm0-30.401c7.941 0 14.401 6.46 14.401 14.401S23.941 30.401 16 30.401 1.599 23.941 1.599 16 8.059 1.599 16 1.599z"/><path d="m12.072 14.108 3.132-3.132v11.967a.802.802 0 1 0 1.606 0V10.982l3.132 3.132c.157.157.359.235.568.235s.411-.078.568-.235a.796.796 0 0 0 0-1.129l-4.496-4.496a.796.796 0 0 0-1.129 0l-4.496 4.496a.796.796 0 0 0 0 1.129c.294.307.803.307 1.116-.007z"/></symbol><symbol id="icon-down" viewBox="0 0 32 32"><path fill="none" stroke="#fff" style="stroke:var(--color1,#fff)" stroke-width="2.667" d="M9.333 16 16 22.667 22.667 16M16 8zm0-6.667C7.9 1.333 1.333 7.9 1.333 16S7.9 30.667 16 30.667 30.667 24.1 30.667 16 24.1 1.333 16 1.333z"/></symbol><symbol id="icon-left" viewBox="0 0 32 32"><path fill="#262626" stroke="#fff" style="stroke:var(--color1,white)" stroke-width="2.667" d="M16 9.333 9.333 16 16 22.667M24 16zm6.667 0C30.667 7.9 24.1 1.333 16 1.333S1.333 7.9 1.333 16 7.9 30.667 16 30.667 30.667 24.1 30.667 16z"/></symbol><symbol id="icon-right" viewBox="0 0 32 32"><path fill="#262626" stroke="#fff" style="stroke:var(--color2,white)" stroke-width="2.667" d="M16 22.667 22.667 16 16 9.333M8 16zm-6.667 0C1.333 24.1 7.9 30.667 16 30.667S30.667 24.1 30.667 16 24.1 1.333 16 1.333 1.333 7.9 1.333 16z"/></symbol><symbol id="icon-en" viewBox="0 0 34 32"><path fill="#fff" style="fill:var(--color1,#fff)" d="M0 0h33.882v32H0V0z"/><path fill="#d22f27" style="fill:var(--color2,#d22f27)" d="M0 0h33.882v4.211H0V0zm0 7.578h33.882v3.369H0V7.578zm0 6.739h33.882v3.368H0v-3.369z"/><path fill="#1e50a0" style="fill:var(--color3,#1e50a0)" d="M0 0h17.487v17.685H0V0z"/><path fill="#d22f27" style="fill:var(--color2,#d22f27)" d="M0 21.052h33.882v3.369H0v-3.369z"/><path fill="#fff" style="fill:var(--color1,#fff)" d="M2.351 5.052a.845.845 0 1 0-.003-1.684h.003a.843.843 0 1 0 0 1.684zm4.371 0a.845.845 0 1 0-.003-1.684h.003a.844.844 0 0 0-.847.841c0 .467.38.843.847.843zm4.371 0a.845.845 0 1 0-.003-1.684h.003a.844.844 0 0 0-.847.841c0 .467.38.843.847.843zm4.372 0a.845.845 0 1 0-.003-1.684h.003a.843.843 0 1 0 0 1.684zM13.28 8.42a.845.845 0 1 0-.003-1.684h.003a.844.844 0 0 0-.847.841c0 .467.38.843.847.843zm-4.371 0a.845.845 0 1 0-.003-1.684h.003a.844.844 0 0 0-.847.841c0 .467.38.843.847.843zm-4.374 0a.845.845 0 1 0-.003-1.684h.003a.843.843 0 1 0 0 1.684zm-2.184 3.371a.844.844 0 0 0 .847-.841.845.845 0 0 0-.845-.843h-.002a.845.845 0 1 0 .003 1.684h-.003zm4.371 0a.843.843 0 1 0 .002-1.684h-.002a.845.845 0 1 0 .003 1.684h-.003zm4.371 0a.843.843 0 1 0 .002-1.684h-.002a.845.845 0 1 0 .003 1.684h-.003zm4.372 0a.844.844 0 0 0 .847-.841.845.845 0 0 0-.845-.843h-.002a.845.845 0 1 0 .003 1.684h-.003zm-2.185 3.368a.843.843 0 1 0 .002-1.684h-.002a.845.845 0 1 0 .003 1.684h-.003zm-4.371 0a.843.843 0 1 0 .002-1.684h-.002a.845.845 0 1 0 .003 1.684h-.003zm-4.374 0a.843.843 0 1 0 .002-1.684h-.002a.845.845 0 1 0 .003 1.684h-.003z"/><path fill="#d22f27" style="fill:var(--color2,#d22f27)" d="M0 27.791h33.882V32H0v-4.209z"/></symbol><symbol id="icon-ua" viewBox="0 0 34 32"><path fill="#61b2e4" style="fill:var(--color5,#61b2e4)" d="M0 0h33.882v32H0V0z"/><path fill="#fcea2b" style="fill:var(--color6,#fcea2b)" d="M0 16h33.882v16H0V16z"/></symbol><symbol id="icon-facebook" viewBox="0 0 31 32"><path stroke-linejoin="round" stroke-linecap="round" stroke-width="2.56" d="M23.04 3.2H19.2a6.4 6.4 0 0 0-6.4 6.4v3.84H8.96v5.12h3.84V28.8h5.12V18.56h3.84l1.28-5.12h-5.12V9.6c0-.707.573-1.28 1.28-1.28h3.84V3.2z"/></symbol><symbol id="icon-insta" viewBox="0 0 32 32"><path fill="currentColor" stroke="#fff" style="stroke:var(--color4,white)" stroke-linejoin="round" stroke-linecap="round" stroke-width="2.667" d="M22.667 2.667H9.334a6.667 6.667 0 0 0-6.667 6.667v13.333a6.667 6.667 0 0 0 6.667 6.667v0h13.333a6.667 6.667 0 0 0 6.667-6.667v0V9.334a6.667 6.667 0 0 0-6.667-6.667v0z"/><path fill="currentColor" stroke="#fff" style="stroke:var(--color4,white)" stroke-linejoin="round" stroke-linecap="round" stroke-width="2.667" d="M21.333 15.16a5.334 5.334 0 0 1-10.548 1.594l-.004-.03a5.334 5.334 0 0 1 10.548-1.594l.004.03zm2-6.493h.013"/></symbol><symbol id="icon-copy" viewBox="0 0 32 32"><path stroke-linejoin="round" stroke-linecap="round" stroke-width="3.368" d="M27.453 10.274H13.137a2.863 2.863 0 0 0-2.863 2.863v14.316a2.863 2.863 0 0 0 2.863 2.863h14.316a2.863 2.863 0 0 0 2.863-2.863V13.137a2.863 2.863 0 0 0-2.863-2.863z"/><path stroke-linejoin="round" stroke-linecap="round" stroke-width="3.368" d="M4.547 21.726a2.871 2.871 0 0 1-2.863-2.863V4.547a2.871 2.871 0 0 1 2.863-2.863h14.316a2.871 2.871 0 0 1 2.863 2.863"/></symbol></defs></svg>