<svg aria-hidden="true" style="width:0;height:0;position:absolute;overflow:hidden" xmlns="http://www.w3.org/2000/svg"><defs><symbol id="icon-logo" viewBox="0 0 25 32"><path fill="#e8e8e8" style="fill:var(--color1,#e8e8e8)" d="M13.006 11.861c-.077-.036-.159-.063-.232-.104a1.563 1.563 0 0 1-.071-.04l.015.008a1.612 1.612 0 0 1-.215-.145l.003.003h-.001a.79.79 0 0 1-.06-.054c-.066-.067-.1-.131-.098-.195l.164.061a.03.03 0 0 0 .009.002c.011 0 .02-.007.024-.017a.03.03 0 0 0 .002-.009.027.027 0 0 0-.016-.024l-.194-.072a.496.496 0 0 1-.223-.209l-.001-.003a.278.278 0 0 1-.025-.061L12.086 11l-.001-.001a.146.146 0 0 1-.005-.038v-.008a.053.053 0 0 1 .012-.03.048.048 0 0 1 .02-.014.479.479 0 0 0 .267.091h.003a.026.026 0 0 0 .025-.024v-.002a.025.025 0 0 0-.024-.025.422.422 0 0 1-.251-.088l.001.001a.63.63 0 0 1-.171-.203l-.002-.003a.221.221 0 0 1-.023-.078v-.019a.086.086 0 0 1 .025-.056c.102.072.21.101.319.116h.004c.013 0 .023-.01.025-.022v-.004a.025.025 0 0 0-.022-.025.645.645 0 0 1-.313-.119l.002.001a.47.47 0 0 1-.151-.166l-.001-.002a.248.248 0 0 1-.022-.152v.001c.142.069.291.116.447.144h.005a.025.025 0 0 0 .025-.021v-.005a.026.026 0 0 0-.021-.025 1.67 1.67 0 0 1-.472-.157l.009.004-.062-.035v-.001c-.188-.107-.374-.211-.524-.338a.836.836 0 0 1-.304-.472c.3.181.639.313.976.444.136.053.271.105.404.162.291.123.515.323.541.62.049.557.407 1.253 1.261 1.434-.227-.017-1.083-.024-1.083-.024z"/><path fill="#e8e8e8" style="fill:var(--color1,#e8e8e8)" d="M11.178 9.736a.947.947 0 0 1-.287-.381h-.004a.027.027 0 0 1-.012-.003c-.15-.079-.293-.149-.434-.216-.363-.175-.704-.339-1.066-.639.008.17.118.326.242.488.387.389.867.637 1.412.839a.026.026 0 0 1-.009.05l-.009-.002c-.548-.202-1.034-.453-1.428-.848a.863.863 0 0 1-.23-.138l.001.001c.024.226.176.442.389.658.425.361.952.555 1.383.714l.021.008-.004-.046v-.001a.03.03 0 0 1 .012-.023l.012-.003a.03.03 0 0 1 .013.003c.121.072.195.107.296.154l.117.055c.118.057.18.084.24.111l.053.024a.136.136 0 0 1 .033-.068.482.482 0 0 1-.142-.166l-.001-.003a.301.301 0 0 1-.023-.198v.002l-.047-.027c-.187-.106-.377-.213-.53-.344z"/><path fill="#e8e8e8" style="fill:var(--color1,#e8e8e8)" d="M11.111 10.307c-.429-.159-.964-.355-1.395-.721a1.37 1.37 0 0 1-.26-.164l.003.002c.059.286.242.462.431.645l.045.043c.429.309.871.44 1.319.572l.017.005-.019-.051-.003-.009-.001-.008c0-.009.004-.017.011-.021.004-.003.009-.005.014-.005s.011.002.016.006a.5.5 0 0 0 .085.056.819.819 0 0 1-.21-.329l-.052-.019z"/><path fill="#e8e8e8" style="fill:var(--color1,#e8e8e8)" d="M11.238 10.732c-.447-.132-.895-.264-1.332-.578a1.125 1.125 0 0 1-.341-.192l.002.002c.045.218.216.371.396.531l.012.011c.434.316.91.447 1.289.553.068.018.132.037.193.055.065.017.12.03.167.039a1.17 1.17 0 0 1-.165-.146l-.001-.001a.916.916 0 0 1-.162-.251l-.002-.006-.056-.017h-.001z"/><path fill="#e8e8e8" style="fill:var(--color1,#e8e8e8)" d="M11.253 11.11c-.378-.105-.863-.239-1.304-.559a.545.545 0 0 1-.208-.096l.001.001c.06.24.214.406.387.564.176.142.43.238.714.309a8.322 8.322 0 0 0 .901.156.808.808 0 0 1-.311-.325c.026.004-.035-.013-.095-.03l-.086-.021z"/><path fill="#e8e8e8" style="fill:var(--color1,#e8e8e8)" d="M10.832 11.38c-.283-.071-.543-.168-.728-.314a.368.368 0 0 1-.107-.03l.003.001a.832.832 0 0 1-.076-.034l.006.003a.822.822 0 0 0 .465.482 4.39 4.39 0 0 0 1.521.256c-.021-.011-.038-.023-.055-.035l.001.001a.642.642 0 0 1-.156-.173l-.002-.003a8.323 8.323 0 0 1-.873-.155z"/><path fill="#e8e8e8" style="fill:var(--color1,#e8e8e8)" d="m11.961 11.795-.081.001a4.453 4.453 0 0 1-1.529-.268l.031.01-.036.002c.102.191.256.246.53.345.38 0 .775-.036 1.168.056a.263.263 0 0 1-.078-.091l-.001-.001a.078.078 0 0 1-.005-.055v.001zm.073-.05c.2.058.404.063.612-.003a1.603 1.603 0 0 1-.166-.115l.003.003c-.251.023-.418-.021-.653-.109a.13.13 0 0 1-.062.016.553.553 0 0 0 .124.132.66.66 0 0 0 .124.068l.018.008z"/><path fill="#e8e8e8" style="fill:var(--color1,#e8e8e8)" d="M11.835 11.469c.222.084.376.126.593.114a.414.414 0 0 1-.113-.155l-.001-.003a2.597 2.597 0 0 1-.619-.215l.015.007a1.177 1.177 0 0 1-.214-.039l.009.002c.08.125.18.239.329.288l.001.001zm-.105-.3c.164.083.354.152.553.197l.017.003a.264.264 0 0 1-.002-.029l.001-.026v.001a.552.552 0 0 1-.23-.224l-.001-.003a.318.318 0 0 1-.026-.059l-.001-.003a1.909 1.909 0 0 1-.573-.279.602.602 0 0 1-.148-.064l.003.001c.05.127.11.216.173.285s.129.118.196.169l.039.03zm-.235-.463c.153.117.338.198.536.265v-.019a.106.106 0 0 1 .023-.06.075.075 0 0 1 .016-.015.654.654 0 0 1-.153-.194l-.002-.004a.296.296 0 0 1-.026-.081v-.002a5.746 5.746 0 0 1-.352-.16l.037.017-.114-.054a3.189 3.189 0 0 1-.259-.132c.023.143.127.281.294.439zm-1.825 1.59c-.133-.02-.27-.024-.402-.053a2.476 2.476 0 0 1-.13-.029l.033.007-.002-.001a2.58 2.58 0 0 1-.403-.127l.018.006-.002-.001a1.126 1.126 0 0 1-.12-.058l.006.003c-.13-.072-.211-.154-.236-.252l.277.018h.003a.04.04 0 0 0 .04-.039v-.003a.04.04 0 0 0-.037-.04l-.327-.021a.76.76 0 0 1-.435-.221.482.482 0 0 1-.066-.083l-.001-.002-.001-.002a.223.223 0 0 1-.027-.065v-.001c-.002-.006-.002-.013-.002-.02 0-.011.002-.022.006-.032v.001a.089.089 0 0 1 .024-.03c.145.055.296.05.45.015a.042.042 0 0 0 .031-.04l-.001-.009a.04.04 0 0 0-.048-.03.661.661 0 0 1-.421-.02h-.001a.996.996 0 0 1-.353-.236.338.338 0 0 1-.069-.108l-.001-.002v-.002a.15.15 0 0 1-.007-.025v-.001a.148.148 0 0 1 .014-.098v.001c.188.063.365.057.538.032a.04.04 0 0 0 .034-.04l-.001-.006a.04.04 0 0 0-.04-.035h-.005c-.174.026-.347.03-.528-.038a.72.72 0 0 1-.306-.188.41.41 0 0 1-.099-.216v-.002c.247.04.496.043.747.015a.04.04 0 0 0 .035-.04v-.006a.04.04 0 0 0-.04-.036h-.004a2.68 2.68 0 0 1-.79-.026l.016.002-.111-.025c-.335-.077-.665-.152-.949-.278-.288-.127-.526-.304-.672-.582.537.139 1.115.185 1.687.232.231.018.462.037.689.062.5.054.93.258 1.101.701.32.829 1.101 1.86 2.376 1.8-.355.079-1.485.275-1.485.275z"/><path fill="#e8e8e8" style="fill:var(--color1,#e8e8e8)" d="M5.942 9.883a1.48 1.48 0 0 1-.605-.451.047.047 0 0 1-.017.004l-.008-.001a11.318 11.318 0 0 0-.651-.118l-.108-.014c-.631-.101-1.226-.196-1.91-.489.087.256.323.444.585.635.763.418 1.604.578 2.527.636a.041.041 0 0 1 .038.04v.003a.04.04 0 0 1-.04.038h-.002c-.926-.058-1.78-.22-2.555-.643a1.353 1.353 0 0 1-.418-.107l.009.003c.135.334.463.595.883.827.807.357 1.699.413 2.428.459l.035.002a.516.516 0 0 1-.026-.065l-.001-.005a.05.05 0 0 1-.002-.012c0-.011.004-.02.01-.028a.04.04 0 0 1 .029-.013l.01.001c.141.038.317.073.497.097l.023.003.202.03c.113.021.286.046.461.066l.047.004-.001-.024c0-.034.008-.067.022-.096l-.001.001a.76.76 0 0 1-.293-.193.487.487 0 0 1-.121-.288v-.002l-.083-.018c-.333-.076-.67-.154-.963-.283z"/><path fill="#e8e8e8" style="fill:var(--color1,#e8e8e8)" d="M6.09 10.787c-.726-.045-1.63-.101-2.45-.464a2.11 2.11 0 0 1-.478-.135l.014.005c.215.41.571.596.941.789l.087.045c.793.277 1.525.274 2.268.271h.027l-.054-.075-.005-.008c-.005-.007-.007-.015-.007-.023s.003-.019.009-.026a.04.04 0 0 1 .047-.012c.048.02.101.035.154.046-.207-.12-.368-.251-.465-.408l-.088-.005z"/><path fill="#e8e8e8" style="fill:var(--color1,#e8e8e8)" d="M6.47 11.38c-.74.003-1.484.006-2.289-.274a1.772 1.772 0 0 1-.613-.139l.012.004c.165.312.494.467.838.631l.023.011c.803.283 1.588.267 2.214.255.112-.002.218-.005.318-.005.1-.003.195-.009.288-.018l-.016.001a1.905 1.905 0 0 1-.327-.154l.009.005a1.467 1.467 0 0 1-.362-.315l-.002-.002h-.095z"/><path fill="#e8e8e8" style="fill:var(--color1,#e8e8e8)" d="M6.659 11.948c-.623.013-1.423.03-2.239-.257a.86.86 0 0 1-.364-.053l.006.002c.197.341.506.524.84.686.331.135.763.167 1.227.146s.957-.094 1.411-.165a.237.237 0 0 0 .036-.009c-.25-.046-.451-.199-.619-.354-.094.001-.194.002-.299.005z"/><path fill="#e8e8e8" style="fill:var(--color1,#e8e8e8)" d="M6.133 12.555c-.463.021-.904-.009-1.25-.148a.643.643 0 0 1-.172.005 1.927 1.927 0 0 1-.131-.017l.01.001c.244.307.545.491.923.525a7.017 7.017 0 0 0 2.438-.305.997.997 0 0 1-.103-.029l.006.002a.971.971 0 0 1-.319-.198l.001.001c-.449.07-.939.142-1.402.163z"/><path fill="#e8e8e8" style="fill:var(--color1,#e8e8e8)" d="M8.043 12.673a7.14 7.14 0 0 1-2.526.329l-.053.02c.24.246.61.359 1.072.384.665-.029 1.207-.285 1.7-.549a.417.417 0 0 1-.16-.105.131.131 0 0 1-.033-.08z"/><path fill="#e8e8e8" style="fill:var(--color1,#e8e8e8)" d="M8.34 12.895c-.511.275-1.086.562-1.798.594l-.122.04c.46.18.939.2 1.45-.035.274-.14.527-.313.737-.556a1.114 1.114 0 0 1-.275-.045l.008.002zm.556-.08c.09-.217.143-.255.346-.424-.102-.018.105-.047.008-.068l-.121-.027.04.008a1.71 1.71 0 0 1-1.027.34c-.015.012-.018.021-.019.025-.001.005.001.015.014.03.027.033.089.07.177.1l.034.011h.001c.169.051.39.066.549.004z"/><path fill="#e8e8e8" style="fill:var(--color1,#e8e8e8)" d="M8.133 12.563h.008c.345 0 .666-.106.931-.288l-.006.004a2.463 2.463 0 0 1-.314-.103l.017.006c-.374.149-.649.159-1.048.133a.236.236 0 0 1-.086.052h-.002a.887.887 0 0 0 .247.145c.064.022.138.038.215.047H8.1l.032.005z"/><path fill="#e8e8e8" style="fill:var(--color1,#e8e8e8)" d="M7.707 12.23c.375.026.63.021.957-.097l-.039-.02.007.003a.644.644 0 0 1-.211-.171l-.001-.001a4.018 4.018 0 0 1-1.038-.046l.024.003c-.078.018-.19.03-.33.037.176.154.38.282.63.29h.002zm-.292-.409a3.816 3.816 0 0 0 .972.044l-.014.001a.317.317 0 0 1-.024-.079v-.002a.852.852 0 0 1-.452-.241.561.561 0 0 1-.066-.08l-.001-.002c-.35-.008-.691-.046-1-.163h-.017a.908.908 0 0 1-.24-.032l.006.001c.133.171.263.28.39.357.125.076.249.122.373.168l.072.027zm-.563-.601c.285.11.603.149.935.159a.176.176 0 0 1-.007-.027v-.002a.18.18 0 0 1 .009-.102v.001a.165.165 0 0 1 .018-.032 1.028 1.028 0 0 1-.323-.231v-.001a.471.471 0 0 1-.075-.111l-.001-.003-.125-.016c-.104-.013-.213-.026-.42-.059l-.199-.03c-.155-.024-.276-.041-.454-.084.098.207.316.373.642.537zm5.444 6.254c.028-.352.027-.7.093-1.035.057-.296.149-.6.294-.86.533-.957 1.692-1.008 2.295-.096.146.22.301.278.532.284.665.015 1.329.044 2.018.069-.039-.126-.066-.246-.116-.354-.017-.037-.097-.056-.148-.061-.395-.037-.79-.082-1.186-.097-.337-.013-.542-.171-.638-.493-.043-.143-.121-.216-.283-.165.117-.191.317-.072.52-.146-.094-.052-.155-.11-.224-.12-.493-.073-.989-.133-1.482-.207a.806.806 0 0 1-.287-.124c.405.053.809.105 1.213.159.181.024.363.045.541.078.076.014.175.035.216.089.097.13.216.132.354.136.525.024 1.05.06 1.575.082.094.004.191-.037.285-.057.083-.018.166-.054.25-.053.853.016 1.706.036 2.558.06.054 0 .107.042.161.062a.868.868 0 0 0 .245.059c-.096-.221-.225-.391-.468-.43a179.14 179.14 0 0 1-2.176-.354.722.722 0 0 1-.267-.105l.003.002c-.221-.141-.435-.294-.684-.465l.398.417c-.334-.022-.629-.049-.925-.06-.858-.033-1.715-.066-2.573-.085-.242-.005-.486.053-.729.066-.22.012-.39-.091-.523-.269-.249-.337-.502-.669-.754-1.004-.196-.261-.453-.397-.777-.388-.767.021-1.532.061-2.284.242a.658.658 0 0 0-.496.441c-.194.521-.425 1.031-.58 1.564-.1.345-.123.723-.125 1.085l-.001.131c0 .495.03.983.088 1.463l-.006-.058c.043.354.184.433.538.449l3.28.149c.095.004.191 0 .274 0zm-2.252-.468a.955.955 0 0 1-.11-.71l-.001.006c.026-.109.044-.236.05-.367v-.005c.011-.284.007-.57.018-.855.015-.369.073-.73.252-1.059.006-.011 0-.03 0-.052-.293 0-.584.012-.873-.005-.168-.009-.333-.062-.498-.104-.137-.036-.176-.141-.133-.268.104-.304.203-.611.333-.903a.453.453 0 0 1 .269-.224l.003-.001a8.439 8.439 0 0 1 2.265-.163l-.024-.001a.618.618 0 0 1 .491.273c.182.27.358.545.524.825a.545.545 0 0 1 .011.541l.001-.003c-.085.165-.104.329-.117.501-.028.357-.051.716-.079 1.108V14.232a.301.301 0 0 0-.033-.137l.001.002c-.028-.049-.076-.085-.125-.136-.575 0-1.165.004-1.755-.004-.116 0-.19.037-.216.143-.072.29-.165.578-.197.873-.04.385.005.781-.05 1.163-.044.294-.07.573-.009.867zm3.967-3.091.011-.049c.047-.002.095-.002.142 0 .427.048.852.105 1.279.145.955.09 1.911.188 2.867.252.76.051 1.522.06 2.284.082.122.003.201.043.234.15-.129-.01-.258-.027-.39-.03-.211-.008-.931-.026-1.652-.041l-.408-.007c-.212-.005-.43-.056-.623.089-.017.013-.052.005-.078.004-.567-.041-1.134-.082-1.7-.127a.48.48 0 0 1-.149-.053l.003.001c-.101-.043-.197-.111-.303-.132-.433-.078-.87-.138-1.303-.21-.072-.011-.142-.049-.213-.075zm-1.765 2.309-2.08-.096v-.531a.781.781 0 0 0 .148.043c.235.025.473.031.704.073.331.06.659.139.985.226.122.031.235.107.245.283zm-2.34-.105c-.38-.021-.749-.027-1.114-.066-.262-.029-.38-.204-.364-.447h1.477v.512zm.21.866 2.091.059v.264c-.064 0-.123.002-.18 0-.558-.018-1.115-.038-1.672-.055-.216-.008-.216-.006-.238-.267zm-1.774-.124c.133.029.274.076.417.085.32.024.642.032.963.023.21-.009.291.112.357.225-.418 0-.845.005-1.272 0-.286-.005-.373-.078-.464-.334zm8.907-1.208c-.506-.043-1.003-.075-1.496-.132-.286-.033-.443-.267-.44-.624.021.045.033.066.043.089.114.248.29.389.571.403.384.02.768.061 1.152.092.095.007.19.009.171.171zm-8.907-1.479c.018-.146.111-.185.258-.177.23.014.46.007.69.008h.848l.013.073c-.052.017-.105.047-.157.048-.46.004-.921 0-1.381.004-.09.002-.18.029-.27.045v-.001zm2.035-.041-.018-.056c.04-.018.081-.053.121-.053.552 0 1.104.003 1.656.009.12.002.185.092.267.174-.225-.027-.428-.066-.63-.071-.465-.008-.931-.003-1.397-.003zm.466.365c.027.155-.094.155-.166.209s-.113.139-.214.072c-.068-.045-.146-.085-.19-.149-.018-.027.024-.139.065-.161.142-.075.296-.187.441.006.01.014.038.014.065.022zm1.787.561c-.091-.135-.111-.242.012-.344.1-.082.193-.172.294-.25.04-.03.099-.035.149-.051.002.071.036.171.002.208-.139.153-.298.289-.457.438v-.001zm.225-1.4h-.032c-.032-.114-.039-.244-.1-.338a8.792 8.792 0 0 0-.637-.9c-.097-.117-.275-.184-.429-.226-.167-.047-.349-.04-.525-.056.145-.011.293-.031.432-.005.17.031.366.059.493.164.338.276.573.647.758 1.045.043.091.027.211.039.318h.001zm-4.492.91c.038-.072.056-.136.097-.175s.11-.054.161-.087c.08-.052.148-.059.207.031.02.021.043.04.069.056.029.024.084.054.081.073a.175.175 0 0 1-.069.115h-.001c-.133.069-.27.246-.416.014-.012-.018-.059-.013-.127-.026h.001z"/><path fill="#e8e8e8" style="fill:var(--color1,#e8e8e8)" d="M19.209 16.92v-.268h1.385v.285h.576l-.014.142c.478-.151.704-.467.614-.937-.02-.107-.068-.164-.215-.129-.206.048-.427.03-.641.047-.05.003-.117.012-.145.045-.101.126-.231.114-.366.111-.37-.009-.741-.008-1.11-.019-.067-.002-.134-.044-.2-.066a.435.435 0 0 0-.1-.033h-.003c-1.047-.076-2.093-.153-3.141-.222-.434-.029-.87-.035-1.303-.057-.122-.006-.139.033-.097.143.07.177.17.292.364.348.727.208 1.449.43 2.171.657.29.091.576.079.857.009.276-.069.547-.075.828-.059.171.011.343.003.538.003zm-1.816-.056v.006c-.212-.03-.424-.076-.637-.084-.256-.009-.361-.173-.442-.38-.05-.128-.021-.177.111-.174.235.006.472.033.707.027l.027-.001a.65.65 0 0 1 .487.219l.001.001c.06.062.097.148.142.223-.095.056-.188.117-.285.166-.03.015-.075-.002-.113-.005h.002zm4.22-.5c.035.28-.112.515-.316.517-.061-.317-.026-.375.316-.517zm-15.936.657c.057-.379.091-.744.173-1.098.053-.233.145-.456.271-.658.282-.448.848-.54 1.245-.193.186.162.314.395.463.599.04.055.062.125.114.233.06-.665-.042-1.302.202-1.886-.375 0-.744-.002-1.113 0-.424.004-.847.011-1.271.018-.294.005-.379.091-.397.416.205.011.211.143.194.315-.026.271-.008.549-.048.818-.018.128-.123.243-.193.373.185.05.151.246.161.421.008.125.014.252.011.378-.004.145.067.219.189.264zm2.121-2.525c-.213-.197-.465-.226-.737-.214-.455.021-.912.022-1.368.03-.055 0-.11-.007-.165-.011l-.011-.046c.034-.017.067-.046.102-.048.056-.002.114.02.171.018.537-.012 1.074-.027 1.61-.043.28-.008.305.008.398.316v-.002zm7.053-1.1-1.013-.98.338-.042v-.03h-1.519c.03.059.062.115.097.17.146.203.315.39.438.606.177.308.432.399.758.364.289-.031.579-.057.9-.088z"/><path fill="#e8e8e8" style="fill:var(--color1,#e8e8e8)" d="M14.961 16.559c.186.104.367.217.559.31.543.264 1.087.532 1.698.57.503.033 1.008.03 1.512.041.177.003.355 0 .561 0l-.161-.09.23-.296c-.691-.076-1.345-.101-1.95.292l-.012-.06.294-.143c-.005-.014-.009-.03-.011-.03-.561.042-1.073-.176-1.6-.311-.348-.088-.689-.205-1.033-.308a.375.375 0 0 0-.069-.007h-.005l-.012.032zm-1.781 1.456c0 .296.086.559.278.783.393.455 1.017.427 1.37-.062.296-.404.307-.998.028-1.417-.376-.566-1.102-.566-1.479 0a1.194 1.194 0 0 0-.199.664v.034-.002zm1.645-.405a.97.97 0 0 1-.147 1.055c-.304.378-.812.358-1.109-.026a1.071 1.071 0 0 1-.002-1.265c.175-.226.402-.346.689-.288s.483.242.575.531l-.005-.006zm3.643-1.775c-.038-.031-.056-.059-.081-.066a.468.468 0 0 0-.087-.008l-.026.001h.001c-.463-.015-.463-.015-.583-.479a.281.281 0 0 1-.015-.062v-.002c-.009-.188.419-.467.589-.398a.98.98 0 0 0 .335.082c.639.02 1.277.03 1.916.037.075 0 .148-.049.223-.053s.15.02.267.038c-.122-.12-.212-.238-.365-.242-.848-.025-1.695-.056-2.543-.06-.299 0-.474.248-.649.463-.02.025-.014.087 0 .125.055.171.118.34.19.505.033.059.09.1.158.112h.001c.213.014.427.005.669.005zm.013-1.052.003-.036h.599l-.003.036h-.599zm2.144 0-.008.072-.538-.031.005-.041h.54zm-.767-.022v.041h-.547l.002-.041h.546zM6.121 17.758c.077.23.124.476.237.685.164.301.451.293.644.011.253-.368.254-1.067 0-1.438-.191-.28-.465-.279-.652.006-.142.217-.182.465-.187.72l-.043.015zm.837.559c-.173.254-.4.253-.551-.013a1.029 1.029 0 0 1-.119-.767l-.001.007c.045-.185.114-.348.207-.495l-.004.007c.07-.115.216-.154.326-.06s.181.225.282.355l-.179.064c-.026-.286-.026-.286-.109-.327l-.043.256-.157-.255c-.157.151.055.274.002.407l-.235-.016c.059.101.082.178.133.219.093.073.1.131.013.207-.073.066-.11.135-.023.226l.168-.105c.04.128-.098.264.04.404l.12-.317.131.204zm.018-.452c-.039.041-.084.115-.149.148-.025.013-.131-.058-.137-.099a1.63 1.63 0 0 1 .003-.407c.003-.023.104-.033.161-.047.01-.002.025.018.04.03-.138.077-.181.208-.096.323.024.034.095.03.178.053v-.001zm.133.033-.081.296c-.062-.12-.116-.239.081-.294v-.002zm10.178-2.669c-.171-.015-.342-.026-.512-.047-.224-.027-.445-.072-.669-.092s-.288-.172-.354-.364l.218-.015c-.055.139.034.206.125.239a.344.344 0 0 0 .253-.006l-.002.001c.041-.021.038-.135.058-.223h.214c0 .028-.012.066.002.082.129.171.436.184.6.036.051-.046.122-.07.183-.105l.029.045-.078.105.014.015.245-.165c-.694-.082-1.378-.15-2.067-.091.02.287.143.448.386.505.444.102.895.133 1.35.141l.005-.059zM7.785 16.88c-.074-.581-.233-1.124-.651-1.553-.04-.04-.055-.104-.064-.169-.26-.15-.603-.052-.846.25.077-.025.155-.047.234-.063.319-.045.564.095.764.332.258.305.392.675.515 1.049.018.051.033.103.048.155zm13.237.182c-.154 0-.293-.01-.43.005a.349.349 0 0 0-.183.101c-.105.102-.198.217-.29.319.253 0 .535.049.791-.015.2-.05.361-.242.541-.372l-.029-.045-.436.202.037-.195zm-6.261-1.427c-.39-.706-1.248-.682-1.715-.175.293-.164.571-.235.863-.149.136.04.283.095.384.19.139.13.285.155.469.133zm-2.573-3.615.136.125c.129-.023.226-.057.325-.055 1.151.036 2.303.053 3.446.226h.006c.018 0 .034-.01.042-.024-1.308-.232-2.628-.261-3.956-.273z"/><path fill="#e8e8e8" style="fill:var(--color1,#e8e8e8)" d="M18.477 15.409c.052.11.089.23.161.326a.226.226 0 0 0 .236.095h-.002a.225.225 0 0 0 .082-.036h-.001c.133-.082.142-.222.132-.362s-.045-.258-.183-.318c-.22-.094-.398.033-.426.293zm.538-.025c-.1.13-.156.293-.327.25-.015-.098 0-.216-.044-.248-.108-.076.058-.091.015-.137l.235-.055-.056.095.177.095zm1.875.031c.061.15.091.275.159.373.089.129.245.105.309-.038.074-.168.076-.349-.027-.498-.043-.063-.188-.12-.24-.092-.086.047-.135.165-.201.256zm.284.16a.517.517 0 0 1-.087-.088l-.001-.001c-.021-.033-.048-.09-.035-.117.017-.033.072-.047.115-.073l-.047-.045c.104.012.201.031.137.17a.076.076 0 0 0 0 .054v-.001c.037.098.032.104-.082.136v-.036zm-15.964.187c.193-.088.245-.463.121-.592.136-.184.128-.532-.044-.573l-.077 1.165zm9.216.508c-.035-.034-.065-.083-.106-.095-.489-.14-1.265.273-1.445.775.393-.514.893-.762 1.551-.68zm-8.31.5c.059-.099.112-.205.178-.3.205-.291.46-.306.67-.02.123.168.203.37.298.559.032.063.05.131.087.191-.075-.379-.179-.745-.508-.986-.153-.113-.319-.095-.457.032a.907.907 0 0 0-.269.523zm14.309 1.407c-.052.068-.093.105-.116.152-.244.517-.767.625-1.189.246a.667.667 0 0 0-.092-.061l-.004-.002c.052.238.402.39.771.351a.7.7 0 0 0 .63-.685z"/><path fill="#e8e8e8" style="fill:var(--color1,#e8e8e8)" d="M18.634 15.851c-.177-.175-.294-.37-.197-.628.072-.197.232-.239.457-.203-.161-.104-.285-.071-.4-.004-.149.086-.186.235-.172.395.017.206.101.373.312.44zm-1.55 1.867c-.359-.046-.478.248-.669.444l.035.048.634-.491zm3.917-1.858c-.143-.204-.214-.418-.096-.657.069-.141.194-.168.38-.12-.213-.109-.363-.069-.451.086-.12.216-.041.562.168.691zm-.121 1.811h-.4l.178.074-.316.285c.214-.096.398-.154.538-.36zm-9.12.717c.11.146.258.198.409.119.103-.053.172-.131.151-.271-.097.085-.171.197-.268.221-.09.023-.202-.044-.292-.068zm9.84-2.518c-.032-.156.037-.31-.075-.454-.087.258-.068.408.075.455zm-5.146-.779.472.036c-.172-.127-.363-.15-.472-.036zm1.589-1.59.318.27c-.025-.22-.086-.27-.318-.27zM5.223 16.2c-.125-.075-.139-.012-.128.398.042-.131.083-.262.128-.398zm5.351-3.735-.383 1.377.222.022.168-.749.029.005-.126.723c.141.037.194-.004.226-.146.084-.378.194-.75.287-1.125.025-.098.082-.131.175-.12a.878.878 0 0 0 .145 0c.305-.015.594.016.79.306a.52.52 0 0 0-.45-.372 9.16 9.16 0 0 0-2.282.15l.057-.009a.332.332 0 0 0-.271.226c-.097.272-.191.545-.279.82-.017.052.003.116.007.191.132-.361.247-.69.376-1.019a.237.237 0 0 1 .151-.126h.002c.377-.056.76-.101 1.159-.153z"/><path fill="#e8e8e8" style="fill:var(--color1,#e8e8e8)" d="M11.081 13.697c.094-.017.17-.044.245-.042.418.014.837.035 1.24.053-.03-.092-.07-.171-.079-.253-.018-.165-.107-.253-.258-.257-.278-.008-.556-.002-.834.002-.15.002-.209.116-.249.239-.03.09-.048.184-.066.258zm1.296-.172c-.184-.049-.357-.113-.535-.137-.191-.026-.392-.123-.588.011.06-.06.129-.119.203-.123.235-.011.47-.002.706.002.177.004.217.05.216.248zm-3.507.954h-.402l.002.02h.4v-.02zm8.182 1.843-.134.134c.048.048.09.117.147.137.034.011.093-.058.141-.091l-.155-.179zm.541.378-.241-.17-.141.198.375.019.007-.047zm-1.048-.13c.044-.055.096-.105.09-.119a.21.21 0 0 0-.105-.09h-.001c-.018-.007-.083.052-.079.066.015.043.051.08.096.143zm-1.716 1.046h-.277c-.085-.105.115-.376-.205-.401l-.053.352c-.089-.103-.157-.191-.237-.265-.028-.027-.109-.043-.126-.025-.032.035-.062.108-.047.146.037.099.101.186.175.316l-.371-.042c-.08.113-.072.197.067.252.072.029.14.072.246.128-.095.073-.161.131-.233.177s-.107.107-.045.17c.033.033.11.035.162.023.073-.018.142-.062.252-.113-.037.137-.069.227-.085.32-.007.044.015.092.024.138.055-.017.132-.017.162-.055.061-.08.097-.18.155-.294l.195.241c.2-.119.004-.296.075-.436h.155c.148-.173-.081-.215-.082-.317l.092-.321.003.006zm-.186.504c-.015.12-.094.216-.247.235-.144.018-.29-.094-.338-.252-.053-.169-.008-.34.117-.407.12-.066.235-.064.357.054-.133-.012-.252-.002-.256.131-.002.09.042.21.107.263.048.038.164-.012.261-.025h-.001z"/><path fill="#e8e8e8" style="fill:var(--color1,#e8e8e8)" d="M13.778 17.298c-.483.411-.384 1.291.1 1.454-.421-.455-.406-.942-.1-1.455zm-7.272 1.016c-.178-.378-.161-.759-.025-1.142-.223.314-.212.859.025 1.142zM3.096 7.428h-.584l.658-2.035h.739l.658 2.034h-.584l-.435-1.474h-.016l-.436 1.474zm-.109-.803h1.098v.413H2.987v-.413zm1.772.803V5.393h.864c.152 0 .279.021.383.063s.182.101.234.177a.46.46 0 0 1 .08.269v.007a.431.431 0 0 1-.182.352l-.001.001a.532.532 0 0 1-.202.085v.02a.495.495 0 0 1 .236.068l-.002-.001c.07.04.125.096.167.168a.486.486 0 0 1 .063.239v.012-.001a.535.535 0 0 1-.327.502.856.856 0 0 1-.373.074h-.938zm.541-.441h.253c.091 0 .159-.018.205-.052s.068-.087.068-.155v-.007a.215.215 0 0 0-.033-.115l.001.001a.198.198 0 0 0-.09-.074h-.001a.336.336 0 0 0-.133-.027h-.269v.429zm0-.771h.227a.312.312 0 0 0 .122-.024l-.002.001a.196.196 0 0 0 .085-.064v-.001a.173.173 0 0 0 .032-.101V6.013a.169.169 0 0 0-.066-.134.265.265 0 0 0-.157-.051H5.301v.389zm1.234-.378v-.445h1.732v.445h-.599v1.59h-.533v-1.59h-.599zm3.772.572c0 .226-.043.418-.13.574s-.203.272-.349.353c-.146.08-.31.119-.49.119-.182 0-.346-.04-.492-.12a.893.893 0 0 1-.346-.349l-.002-.005c-.085-.155-.129-.346-.129-.572s.043-.417.129-.572c.086-.155.203-.273.348-.353s.31-.12.492-.12c.18 0 .344.04.49.12s.264.197.35.353c.086.155.129.346.129.572zm-.557 0a.89.89 0 0 0-.047-.308.39.39 0 0 0-.138-.189l-.001-.001a.38.38 0 0 0-.214-.066h-.013.001-.012a.378.378 0 0 0-.215.067l.001-.001a.393.393 0 0 0-.138.188l-.001.003a.866.866 0 0 0-.047.286v.023-.001c0 .122.015.225.047.309a.404.404 0 0 0 .138.19l.001.001c.062.043.137.064.226.064s.165-.021.226-.065a.39.39 0 0 0 .138-.187l.001-.003a.905.905 0 0 0 .047-.309zm2.454 1.018h-.541V5.835h-.201a.45.45 0 0 0-.156.028l.003-.001a.213.213 0 0 0-.105.081v.001a.247.247 0 0 0-.036.131v.012-.001c0 .058.012.104.036.14.025.035.06.062.105.079s.1.024.162.024h.405v.429h-.514a.968.968 0 0 1-.398-.077.606.606 0 0 1-.265-.224l-.001-.002a.667.667 0 0 1-.095-.346v-.023.001c0-.144.031-.269.092-.372s.148-.183.259-.237a.866.866 0 0 1 .388-.082h.86V7.43zm-1.168-.934h.576l-.486.934h-.588l.498-.934zm1.423.934V5.393h.541v.795h.716v-.795h.541v2.034h-.541v-.795h-.716v.795h-.541zm3.456-2.034v.445h-.86v1.59h-.541V5.395h1.401zm2.037 1.016c0 .226-.043.418-.13.574s-.203.272-.349.353c-.146.08-.31.119-.49.119-.182 0-.346-.04-.492-.12a.893.893 0 0 1-.346-.349l-.002-.005c-.085-.155-.128-.346-.128-.572s.043-.417.128-.572c.087-.155.203-.273.349-.353s.311-.12.492-.12c.18 0 .344.04.49.12.147.08.264.197.35.353s.129.346.129.572zm-.556 0a.89.89 0 0 0-.047-.308.39.39 0 0 0-.138-.189l-.001-.001a.38.38 0 0 0-.214-.066h-.013.001-.012a.378.378 0 0 0-.215.067l.001-.001a.393.393 0 0 0-.138.188l-.001.003a.866.866 0 0 0-.047.286v.023-.001c0 .122.015.225.047.309a.404.404 0 0 0 .138.19l.001.001c.061.043.137.064.227.064s.165-.021.226-.065a.39.39 0 0 0 .138-.187l.001-.003a.881.881 0 0 0 .047-.309zm.741 1.018v-.425l.054-.008a.272.272 0 0 0 .165-.087c.044-.048.078-.125.101-.23s.039-.248.046-.43l.031-.854h1.444v2.035h-.521V5.824h-.424L19 6.463c-.012.237-.043.426-.093.567s-.128.242-.23.305a.787.787 0 0 1-.408.093h-.132zm2.097-2.034h.541v1.065h.015l.709-1.065h.459v2.034h-.541V6.359h-.012l-.72 1.069h-.451V5.394zM2.969 20.373l.264.477h.013l.266-.477h.486l-.479.819.498.819h-.498l-.272-.486h-.013l-.272.486h-.495l.491-.819-.476-.819h.489zm1.216 0h.542l.373.927h.019l.373-.927h.542v1.637h-.426v-.947h-.013l-.357.934h-.257l-.357-.94h-.013v.953h-.425v-1.637zm2.054 1.638v-1.637h1.155v.358h-.72v.282h.66v.358h-.66v.282h.718v.358H6.239zm1.319 0v-.342l.044-.006a.22.22 0 0 0 .132-.07.415.415 0 0 0 .082-.185c.019-.085.032-.2.037-.346l.025-.688H9.04v1.637h-.42v-1.292h-.341l-.025.515c-.009.191-.034.343-.075.456s-.102.195-.186.245a.631.631 0 0 1-.329.075h-.106zm1.963-1.088h.332c.135 0 .254.023.354.067.101.044.18.107.236.187s.085.175.084.284v.012a.485.485 0 0 1-.085.276l.001-.002a.554.554 0 0 1-.232.192l-.004.001a.834.834 0 0 1-.336.07h-.615v-1.638h.435v1.289H9.864c.045 0 .087-.01.125-.027l-.002.001a.187.187 0 0 0 .109-.17v-.014a.176.176 0 0 0-.061-.133c-.041-.037-.101-.055-.18-.055h-.332v-.34zm1.253 1.088v-1.637h.435v.64h.577v-.64h.435v1.637h-.435v-.639h-.576v.64h-.435zm1.654-1.638h.435v.858h.012l.57-.858h.37v1.637h-.435v-.86h-.009l-.579.86h-.364v-1.637zm3.261 1.302-.019.723h-.404v-.387h-.113v-.335h.536zm-1.666.336v-1.637h.42v1.296h.56v-1.295h.427v1.637h-1.406zm2.089-1.088h.332a.88.88 0 0 1 .354.067c.102.044.18.107.236.187s.084.175.084.284v.012a.49.49 0 0 1-.085.277l.001-.002a.562.562 0 0 1-.232.192l-.004.001a.834.834 0 0 1-.336.07h-.616v-1.638h.435v1.289H16.453c.045 0 .087-.01.125-.027l-.002.001a.187.187 0 0 0 .109-.17v-.014a.18.18 0 0 0-.061-.134c-.041-.037-.101-.055-.18-.055h-.332v-.34zm2.242 1.088-.491-.662h-.061v.662h-.436v-1.637h.435v.617h.056l.46-.617h.548l-.611.787.645.851h-.546zm.663-1.638h.436v.858h.012l.57-.858h.37v1.637h-.436v-.86h-.009l-.58.86h-.363v-1.637zm1.593 0h.436v.858h.012l.57-.858h.369v1.637h-.435v-.86h-.01l-.579.86h-.363v-1.637zm.852-.442h.273v.009a.305.305 0 0 1-.116.24h-.001c-.078.061-.181.093-.313.093s-.236-.031-.314-.093a.305.305 0 0 1-.115-.238v-.013.001h.27v.002c0 .035.013.067.035.091.025.027.067.041.125.041.055 0 .096-.014.12-.041a.149.149 0 0 0 .037-.094z"/><path fill="#e8e8e8" style="fill:var(--color1,#e8e8e8)" d="M12.25 1.267 1.206 3.257H0V2.224L12.25.017 24.5 2.224v1.034h-1.206L12.25 1.268zm0 29.343s-.222-.117-.603-.332c-2.306-1.3-10.441-6.17-10.441-10.153V3.256H0v16.869c0 1.626.942 3.152 2.026 4.41 1.12 1.299 2.58 2.526 3.994 3.571a49.235 49.235 0 0 0 3.893 2.581c.306.195.843.508 1.387.812l.258.132.098.053.027.015.009.005h.001l.556-1.093zm0 0s.222-.117.603-.332c2.306-1.3 10.441-6.17 10.441-10.153V3.256H24.5v16.869c0 1.626-.942 3.152-2.026 4.41-1.12 1.299-2.581 2.526-3.994 3.571a49.235 49.235 0 0 1-3.893 2.581c-.306.195-.843.508-1.387.812l-.258.132c.043-.02.002.003-.039.025l-.086.043-.009.005h-.001l-.556-1.093zm-.555 1.094.555-1.093.555 1.093-.555.294-.555-.294z"/></symbol><symbol id="icon-up" viewBox="0 0 32 32"><path d="M16 32c8.822 0 16-7.178 16-16S24.822 0 16 0 0 7.178 0 16s7.178 16 16 16zm0-30.401c7.941 0 14.401 6.46 14.401 14.401S23.941 30.401 16 30.401 1.599 23.941 1.599 16 8.059 1.599 16 1.599z"/><path d="m12.072 14.108 3.132-3.132v11.967a.802.802 0 1 0 1.606 0V10.982l3.132 3.132c.157.157.359.235.568.235s.411-.078.568-.235a.796.796 0 0 0 0-1.129l-4.496-4.496a.796.796 0 0 0-1.129 0l-4.496 4.496a.796.796 0 0 0 0 1.129c.294.307.803.307 1.116-.007z"/></symbol><symbol id="icon-down" viewBox="0 0 32 32"><path fill="none" stroke="#fff" style="stroke:var(--color1,#fff)" stroke-width="2.667" d="M9.333 16 16 22.667 22.667 16M16 8zm0-6.667C7.9 1.333 1.333 7.9 1.333 16S7.9 30.667 16 30.667 30.667 24.1 30.667 16 24.1 1.333 16 1.333z"/></symbol><symbol id="icon-left" viewBox="0 0 32 32"><path fill="#262626" stroke="#fff" style="stroke:var(--color1,white)" stroke-width="2.667" d="M16 9.333 9.333 16 16 22.667M24 16zm6.667 0C30.667 7.9 24.1 1.333 16 1.333S1.333 7.9 1.333 16 7.9 30.667 16 30.667 30.667 24.1 30.667 16z"/></symbol><symbol id="icon-right" viewBox="0 0 32 32"><path fill="#262626" stroke="#fff" style="stroke:var(--color2,white)" stroke-width="2.667" d="M16 22.667 22.667 16 16 9.333M8 16zm-6.667 0C1.333 24.1 7.9 30.667 16 30.667S30.667 24.1 30.667 16 24.1 1.333 16 1.333 1.333 7.9 1.333 16z"/></symbol><symbol id="icon-en" viewBox="0 0 34 32"><path fill="#fff" style="fill:var(--color1,#fff)" d="M0 0h33.882v32H0V0z"/><path fill="#d22f27" style="fill:var(--color2,#d22f27)" d="M0 0h33.882v4.211H0V0zm0 7.578h33.882v3.369H0V7.578zm0 6.739h33.882v3.368H0v-3.369z"/><path fill="#1e50a0" style="fill:var(--color3,#1e50a0)" d="M0 0h17.487v17.685H0V0z"/><path fill="#d22f27" style="fill:var(--color2,#d22f27)" d="M0 21.052h33.882v3.369H0v-3.369z"/><path fill="#fff" style="fill:var(--color1,#fff)" d="M2.351 5.052a.845.845 0 1 0-.003-1.684h.003a.843.843 0 1 0 0 1.684zm4.371 0a.845.845 0 1 0-.003-1.684h.003a.844.844 0 0 0-.847.841c0 .467.38.843.847.843zm4.371 0a.845.845 0 1 0-.003-1.684h.003a.844.844 0 0 0-.847.841c0 .467.38.843.847.843zm4.372 0a.845.845 0 1 0-.003-1.684h.003a.843.843 0 1 0 0 1.684zM13.28 8.42a.845.845 0 1 0-.003-1.684h.003a.844.844 0 0 0-.847.841c0 .467.38.843.847.843zm-4.371 0a.845.845 0 1 0-.003-1.684h.003a.844.844 0 0 0-.847.841c0 .467.38.843.847.843zm-4.374 0a.845.845 0 1 0-.003-1.684h.003a.843.843 0 1 0 0 1.684zm-2.184 3.371a.844.844 0 0 0 .847-.841.845.845 0 0 0-.845-.843h-.002a.845.845 0 1 0 .003 1.684h-.003zm4.371 0a.843.843 0 1 0 .002-1.684h-.002a.845.845 0 1 0 .003 1.684h-.003zm4.371 0a.843.843 0 1 0 .002-1.684h-.002a.845.845 0 1 0 .003 1.684h-.003zm4.372 0a.844.844 0 0 0 .847-.841.845.845 0 0 0-.845-.843h-.002a.845.845 0 1 0 .003 1.684h-.003zm-2.185 3.368a.843.843 0 1 0 .002-1.684h-.002a.845.845 0 1 0 .003 1.684h-.003zm-4.371 0a.843.843 0 1 0 .002-1.684h-.002a.845.845 0 1 0 .003 1.684h-.003zm-4.374 0a.843.843 0 1 0 .002-1.684h-.002a.845.845 0 1 0 .003 1.684h-.003z"/><path fill="#d22f27" style="fill:var(--color2,#d22f27)" d="M0 27.791h33.882V32H0v-4.209z"/></symbol><symbol id="icon-ua" viewBox="0 0 34 32"><path fill="#61b2e4" style="fill:var(--color5,#61b2e4)" d="M0 0h33.882v32H0V0z"/><path fill="#fcea2b" style="fill:var(--color6,#fcea2b)" d="M0 16h33.882v16H0V16z"/></symbol><symbol id="icon-facebook" viewBox="0 0 31 32"><path stroke-linejoin="round" stroke-linecap="round" stroke-width="2.56" d="M23.04 3.2H19.2a6.4 6.4 0 0 0-6.4 6.4v3.84H8.96v5.12h3.84V28.8h5.12V18.56h3.84l1.28-5.12h-5.12V9.6c0-.707.573-1.28 1.28-1.28h3.84V3.2z"/></symbol><symbol id="icon-insta" viewBox="0 0 32 32"><path fill="currentColor" stroke="#fff" style="stroke:var(--color4,white)" stroke-linejoin="round" stroke-linecap="round" stroke-width="2.667" d="M22.667 2.667H9.334a6.667 6.667 0 0 0-6.667 6.667v13.333a6.667 6.667 0 0 0 6.667 6.667v0h13.333a6.667 6.667 0 0 0 6.667-6.667v0V9.334a6.667 6.667 0 0 0-6.667-6.667v0z"/><path fill="currentColor" stroke="#fff" style="stroke:var(--color4,white)" stroke-linejoin="round" stroke-linecap="round" stroke-width="2.667" d="M21.333 15.16a5.334 5.334 0 0 1-10.548 1.594l-.004-.03a5.334 5.334 0 0 1 10.548-1.594l.004.03zm2-6.493h.013"/></symbol><symbol id="icon-copy" viewBox="0 0 32 32"><path d="M29.63 0H11.941a2.289 2.289 0 0 0-2.286 2.286v5.366h2.087V2.286c0-.11.089-.199.199-.199H29.63c.11 0 .199.089.199.199v17.689c0 .11-.089.199-.199.199h-5.199v2.087h5.199a2.289 2.289 0 0 0 2.286-2.286V2.286A2.289 2.289 0 0 0 29.63 0z"/><path d="M20.058 9.739H2.37a2.289 2.289 0 0 0-2.286 2.286v17.689A2.289 2.289 0 0 0 2.37 32h17.689a2.289 2.289 0 0 0 2.286-2.286V12.025a2.289 2.289 0 0 0-2.286-2.286zm0 20.174H2.369a.199.199 0 0 1-.199-.199V12.025c0-.11.089-.199.199-.199h17.689c.11 0 .199.089.199.199v17.689c0 .11-.089.199-.199.199z"/></symbol><symbol id="icon-logo-dark" viewBox="0 0 25 32"><path fill="#e8e8e8" style="fill:var(--color1,#e8e8e8)" d="M13.277 11.861c-.078-.036-.162-.063-.237-.104l-.056-.031-.001-.001a1.651 1.651 0 0 1-.216-.142h-.001l-.061-.053c-.068-.067-.103-.131-.101-.195l.167.061c.013.005.028-.002.033-.015s-.002-.028-.015-.033l-.197-.072a.494.494 0 0 1-.229-.211.313.313 0 0 1-.026-.063v-.001c-.004-.017-.006-.032-.005-.044s.005-.023.011-.031a.054.054 0 0 1 .02-.014.495.495 0 0 0 .274.09c.014.001.026-.01.027-.024s-.01-.026-.024-.027a.429.429 0 0 1-.255-.088.631.631 0 0 1-.176-.206.204.204 0 0 1-.023-.079V10.56a.084.084 0 0 1 .026-.056c.104.072.215.1.325.116.014.002.027-.008.029-.022s-.008-.027-.022-.029a.676.676 0 0 1-.318-.118.46.46 0 0 1-.155-.168.249.249 0 0 1-.022-.15c.145.068.297.115.456.144.014.002.027-.007.03-.021s-.007-.027-.021-.03a1.717 1.717 0 0 1-.536-.188c-.192-.107-.382-.212-.534-.339-.155-.129-.27-.278-.31-.471.306.181.653.313.996.443.139.053.278.106.413.161.298.123.526.323.553.621.05.557.416 1.253 1.288 1.434-.232-.017-1.106-.024-1.106-.024z"/><path fill="#e8e8e8" style="fill:var(--color1,#e8e8e8)" d="M11.412 9.736a.969.969 0 0 1-.293-.381.023.023 0 0 1-.016-.003 12.64 12.64 0 0 0-.443-.216c-.37-.175-.719-.339-1.088-.639.008.17.12.326.248.488.395.389.885.638 1.442.839.013.005.02.02.015.033s-.02.02-.033.015c-.559-.202-1.055-.453-1.458-.848a.865.865 0 0 1-.233-.136c.025.226.18.442.397.657.433.361.972.555 1.412.714l.021.007a.357.357 0 0 1-.004-.047c0-.009.005-.018.013-.023s.018-.005.026 0c.124.072.199.107.302.154l.119.055c.121.057.183.084.245.11l.054.023a.14.14 0 0 1 .033-.068.492.492 0 0 1-.146-.169.308.308 0 0 1-.024-.196 3.576 3.576 0 0 1-.59-.37z"/><path fill="#e8e8e8" style="fill:var(--color1,#e8e8e8)" d="M11.343 10.307c-.439-.158-.984-.355-1.424-.721-.13-.064-.2-.114-.263-.162.059.286.246.462.44.644l.046.043c.439.31.889.44 1.347.572l.017.005-.022-.06c-.004-.011 0-.023.01-.029s.022-.006.031.001c.026.021.056.04.087.056a.821.821 0 0 1-.214-.329l-.053-.019z"/><path fill="#e8e8e8" style="fill:var(--color1,#e8e8e8)" d="M11.472 10.732c-.456-.132-.914-.264-1.359-.578a1.189 1.189 0 0 1-.346-.189c.046.217.221.371.404.531l.012.011c.443.315.93.447 1.316.553l.197.055c.066.017.123.03.171.039a.945.945 0 0 1-.337-.404l-.057-.017h-.001z"/><path fill="#e8e8e8" style="fill:var(--color1,#e8e8e8)" d="M11.488 11.11c-.386-.105-.88-.239-1.331-.558a.574.574 0 0 1-.211-.095c.061.241.219.407.395.565.18.141.439.238.729.309s.605.116.897.155l.024.001a.82.82 0 0 1-.318-.325l-.185-.051z"/><path fill="#e8e8e8" style="fill:var(--color1,#e8e8e8)" d="M11.058 11.379c-.289-.071-.555-.168-.743-.314a.429.429 0 0 1-.106-.028l-.072-.031a.833.833 0 0 0 .475.482 4.62 4.62 0 0 0 1.553.256.64.64 0 0 1-.216-.21 8.7 8.7 0 0 1-.891-.155z"/><path fill="#e8e8e8" style="fill:var(--color1,#e8e8e8)" d="M12.211 11.796c-.43.003-.933-.03-1.611-.257l-.037.002c.104.191.261.246.541.345.389 0 .791-.036 1.193.056a.286.286 0 0 1-.08-.092.084.084 0 0 1-.006-.054zM12.285 11.745c.205.058.412.063.624-.003a1.772 1.772 0 0 1-.166-.112c-.256.022-.427-.021-.667-.109a.152.152 0 0 1-.05.015l-.014.001a.557.557 0 0 0 .127.132c.042.03.083.048.127.068a.108.108 0 0 0 .019.008z"/><path fill="#e8e8e8" style="fill:var(--color1,#e8e8e8)" d="M12.082 11.468c.226.083.384.126.605.114l-.017-.016a.42.42 0 0 1-.1-.142 2.679 2.679 0 0 1-.616-.208 1.317 1.317 0 0 1-.21-.037c.082.124.184.238.336.288h.001zM11.975 11.169c.187.091.381.155.582.2a.235.235 0 0 1 0-.053.545.545 0 0 1-.263-.289 1.947 1.947 0 0 1-.586-.279.588.588 0 0 1-.149-.063c.051.127.112.216.177.285s.132.118.2.169l.04.029zM11.735 10.705c.156.118.345.198.547.265v-.019a.105.105 0 0 1 .023-.059l.017-.016a.643.643 0 0 1-.158-.198.292.292 0 0 1-.027-.082l-.074-.032c-.062-.027-.126-.054-.248-.112l-.117-.054c-.091-.042-.163-.074-.264-.132.023.142.129.281.3.439zM9.871 12.296c-.136-.019-.276-.024-.41-.053l-.099-.022H9.36a2.586 2.586 0 0 1-.393-.121h-.001a1.278 1.278 0 0 1-.117-.054c-.133-.072-.215-.154-.241-.253l.283.018c.023.001.042-.016.043-.038s-.016-.042-.038-.043l-.334-.021a.781.781 0 0 1-.444-.221.496.496 0 0 1-.069-.085l-.001-.002a.22.22 0 0 1-.027-.066.08.08 0 0 1 .004-.052.076.076 0 0 1 .025-.031.796.796 0 0 0 .459.016c.022-.005.036-.027.031-.049s-.027-.036-.049-.031a.696.696 0 0 1-.43-.019H8.06a1.011 1.011 0 0 1-.361-.236.358.358 0 0 1-.071-.11v-.001l-.008-.027a.138.138 0 0 1 .014-.097c.191.063.373.057.548.032.022-.003.038-.024.035-.046s-.024-.038-.046-.035a1.072 1.072 0 0 1-.539-.038.743.743 0 0 1-.313-.188.404.404 0 0 1-.101-.219c.252.04.506.043.762.015.022-.002.039-.023.036-.045s-.023-.039-.045-.036c-.266.029-.53.024-.79-.023l-.113-.026c-.341-.077-.678-.153-.969-.278-.294-.127-.537-.304-.686-.581.549.139 1.139.185 1.722.231.236.019.472.037.703.062.51.054.949.258 1.123.701.326.829 1.124 1.86 2.426 1.799-.362.079-1.516.275-1.516.275z"/><path fill="#e8e8e8" style="fill:var(--color1,#e8e8e8)" d="M6.067 9.884a1.502 1.502 0 0 1-.618-.452.036.036 0 0 1-.025.003 19.41 19.41 0 0 0-.775-.132c-.644-.101-1.251-.196-1.95-.489.089.256.33.444.597.635.779.418 1.638.578 2.58.636.023.001.04.021.038.043s-.021.04-.043.038c-.946-.058-1.817-.219-2.608-.643a1.417 1.417 0 0 1-.418-.104c.139.334.473.595.901.827.824.358 1.735.413 2.479.458l.035.002a.843.843 0 0 1-.027-.07.041.041 0 0 1 .049-.053c.221.055.351.074.53.1l.207.031c.21.033.318.046.424.059l.093.011a.22.22 0 0 1 .02-.118.77.77 0 0 1-.299-.193.48.48 0 0 1-.124-.289l-.084-.019c-.34-.076-.685-.154-.983-.283z"/><path fill="#e8e8e8" style="fill:var(--color1,#e8e8e8)" d="M6.217 10.787c-.741-.045-1.663-.101-2.501-.464a2.18 2.18 0 0 1-.474-.13c.219.41.584.596.961.788l.089.045c.809.277 1.557.274 2.315.271h.027a1.942 1.942 0 0 1-.06-.082.04.04 0 0 1 .049-.061.89.89 0 0 0 .157.046c-.212-.12-.375-.251-.475-.407a2.512 2.512 0 0 0-.089-.005z"/><path fill="#e8e8e8" style="fill:var(--color1,#e8e8e8)" d="M6.604 11.379c-.756.003-1.515.006-2.336-.274a1.881 1.881 0 0 1-.614-.134c.168.312.504.467.856.631l.023.011c.819.283 1.622.267 2.26.255l.325-.005c.109-.003.202-.009.278-.017a2.018 2.018 0 0 1-.325-.149 1.455 1.455 0 0 1-.372-.318h-.096z"/><path fill="#e8e8e8" style="fill:var(--color1,#e8e8e8)" d="M6.798 11.949c-.636.013-1.453.029-2.285-.257a.905.905 0 0 1-.365-.051c.201.341.516.524.857.686.338.135.778.167 1.253.146s.977-.094 1.44-.165l.037-.009c-.255-.046-.46-.199-.631-.355-.096 0-.198.003-.305.005z"/><path fill="#e8e8e8" style="fill:var(--color1,#e8e8e8)" d="M6.262 12.554c-.473.021-.923-.009-1.276-.147a.628.628 0 0 1-.175.004c-.039-.003-.08-.009-.123-.015.249.307.557.491.942.525a7.323 7.323 0 0 0 2.488-.304.827.827 0 0 1-.099-.028 1.007 1.007 0 0 1-.325-.197c-.458.07-.959.142-1.431.163z"/><path fill="#e8e8e8" style="fill:var(--color1,#e8e8e8)" d="M8.211 12.673a7.431 7.431 0 0 1-2.579.329l-.055.02c.245.246.623.359 1.094.384.678-.029 1.233-.285 1.736-.548a.426.426 0 0 1-.163-.105.125.125 0 0 1-.033-.08z"/><path fill="#e8e8e8" style="fill:var(--color1,#e8e8e8)" d="M8.515 12.894c-.522.276-1.109.562-1.836.594l-.124.04c.47.18.958.2 1.48-.035.28-.14.538-.313.753-.557a1.228 1.228 0 0 1-.272-.043zM9.082 12.815c.091-.217.145-.255.353-.424-.105-.019.107-.047.009-.068l-.083-.019a1.788 1.788 0 0 1-1.049.34c-.015.012-.019.021-.019.026s0 .015.014.031a.43.43 0 0 0 .18.1l.034.011h.001c.173.051.398.066.56.004z"/><path fill="#e8e8e8" style="fill:var(--color1,#e8e8e8)" d="M8.302 12.562c.339-.003.658-.088.953-.284a2.533 2.533 0 0 1-.304-.097c-.382.149-.662.159-1.069.132a.227.227 0 0 1-.07.045l-.02.008a.875.875 0 0 0 .253.144c.078.027.149.037.224.047l.032.004z"/><path fill="#e8e8e8" style="fill:var(--color1,#e8e8e8)" d="M7.867 12.231c.383.026.643.021.977-.097l-.033-.017a.663.663 0 0 1-.216-.172 4.231 4.231 0 0 1-1.035-.042c-.079.018-.193.03-.337.037.181.154.388.282.643.29h.001zM7.569 11.821c.326.056.652.067.979.045a.328.328 0 0 1-.024-.081.872.872 0 0 1-.462-.241.577.577 0 0 1-.069-.082c-.357-.008-.705-.046-1.021-.163a.932.932 0 0 1-.255-.03c.135.172.268.28.398.357.129.076.254.122.381.168l.074.027zM6.995 11.22c.292.11.615.149.955.159l-.008-.029a.166.166 0 0 1 .009-.101.15.15 0 0 1 .019-.032 1.062 1.062 0 0 1-.331-.231.492.492 0 0 1-.078-.114l-.127-.016c-.107-.013-.217-.026-.428-.059a8.666 8.666 0 0 0-.204-.03 4.971 4.971 0 0 1-.463-.083c.099.207.323.373.655.537zM12.553 17.474c.029-.352.028-.7.095-1.034.059-.296.153-.6.3-.86.544-.957 1.728-1.008 2.343-.096.149.221.307.278.543.284.679.015 1.357.044 2.06.069-.04-.126-.067-.246-.119-.354-.018-.037-.099-.057-.151-.061-.403-.037-.807-.082-1.211-.097-.344-.013-.553-.172-.651-.493-.044-.143-.124-.215-.289-.164.12-.192.324-.072.531-.147-.095-.052-.158-.11-.228-.12-.504-.073-1.009-.133-1.512-.207a.814.814 0 0 1-.292-.124l1.238.158c.184.024.37.045.553.078.078.014.179.035.22.089.099.13.221.132.362.136.536.024 1.072.06 1.608.082.096.004.195-.037.292-.057.085-.018.17-.054.255-.052a284.5 284.5 0 0 1 2.612.06c.055 0 .109.042.164.062.08.031.165.051.25.059-.099-.221-.23-.391-.479-.43-.741-.115-1.482-.23-2.221-.354a.772.772 0 0 1-.27-.103c-.226-.141-.444-.294-.698-.465l.406.417c-.341-.022-.642-.048-.944-.06-.876-.033-1.752-.066-2.628-.085-.247-.005-.496.052-.744.066-.224.012-.398-.091-.534-.269-.254-.336-.513-.669-.77-1.004a.923.923 0 0 0-.794-.388c-.783.021-1.564.062-2.332.242a.664.664 0 0 0-.506.441c-.197.521-.434 1.031-.592 1.564-.102.345-.126.723-.128 1.085-.006.513.022 1.026.084 1.536.043.354.187.433.549.449l3.349.149c.097.004.194.001.28.001zm-2.299-.468a.949.949 0 0 1-.114-.704 2.12 2.12 0 0 0 .051-.372c.011-.284.008-.57.019-.855.016-.369.075-.73.258-1.059.006-.011 0-.029 0-.051-.3 0-.596.012-.891-.005-.171-.01-.34-.062-.508-.105-.14-.036-.18-.141-.135-.268.106-.304.207-.611.34-.903a.464.464 0 0 1 .278-.225 9.005 9.005 0 0 1 2.288-.164.618.618 0 0 1 .502.273c.186.27.366.545.535.826a.547.547 0 0 1 .012.538c-.087.164-.106.329-.12.501-.029.358-.052.716-.081 1.108v-1.298a.301.301 0 0 0-.033-.144c-.029-.049-.078-.085-.128-.136-.586 0-1.189.004-1.791-.003-.119 0-.194.037-.221.144-.074.289-.169.578-.201.873-.041.385.004.782-.052 1.164-.045.294-.071.574-.009.867zm4.05-3.091a.862.862 0 0 0 .011-.049c.048-.003.096-.003.144 0 .435.048.87.105 1.306.145.976.09 1.95.188 2.926.252.776.051 1.554.06 2.332.082.125.003.206.043.239.151-.132-.01-.263-.027-.399-.03a368.84 368.84 0 0 0-2.103-.048c-.216-.004-.44-.056-.636.089-.018.013-.053.005-.08.003-.579-.041-1.158-.082-1.736-.127a.499.499 0 0 1-.149-.052c-.104-.043-.202-.112-.309-.132-.442-.077-.888-.138-1.33-.21-.073-.011-.144-.049-.217-.075zm-1.802 2.309-2.124-.096v-.531a.872.872 0 0 0 .151.044c.239.026.482.031.718.073.338.06.673.139 1.005.226.125.031.24.107.25.283zm-2.389-.105c-.388-.021-.764-.027-1.137-.066-.268-.028-.389-.204-.371-.447h1.508v.513zm.215.866 2.134.059v.263c-.066 0-.126.002-.184 0l-1.707-.056c-.221-.008-.221-.005-.243-.267zm-1.812-.123c.136.028.28.076.426.085.327.024.655.032.982.023.214-.009.298.112.365.226-.427 0-.863.005-1.299 0-.292-.006-.381-.079-.474-.334zm9.093-1.208c-.517-.044-1.024-.076-1.527-.132-.292-.033-.452-.267-.449-.625.022.045.033.066.043.089.116.248.296.389.583.403.392.019.784.061 1.175.092.097.007.194.009.175.172zm-9.093-1.479c.019-.147.114-.185.263-.177.234.014.47.007.705.008h.865l.013.073c-.053.017-.107.048-.16.048-.47.004-.94 0-1.41.004-.092.001-.184.029-.276.044zm2.078-.041-.018-.056c.041-.018.083-.053.124-.053.564 0 1.127.003 1.691.009.122.002.189.093.272.174-.23-.027-.437-.066-.643-.071-.475-.009-.951-.003-1.426-.003zm.475.365c.027.156-.096.155-.169.209s-.116.139-.219.072c-.069-.045-.149-.085-.193-.149-.019-.027.024-.139.066-.16.145-.076.303-.186.45.006.01.013.039.013.066.022zm1.825.56c-.092-.136-.113-.243.012-.344.102-.082.197-.173.3-.251.041-.03.101-.035.152-.051.003.071.037.171.003.208-.142.154-.304.289-.467.438zm.23-1.4h-.033c-.033-.114-.04-.244-.102-.338-.204-.31-.41-.62-.65-.901-.099-.117-.281-.183-.438-.227-.171-.047-.356-.04-.536-.057.148-.011.299-.031.441-.005.174.031.374.06.503.164.345.276.586.647.775 1.045.044.091.028.211.039.318h.001zm-4.586.91c.039-.072.057-.136.099-.176s.111-.054.164-.087c.082-.052.15-.059.211.031a.313.313 0 0 0 .07.056c.03.024.085.054.082.073-.004.023-.012.045-.024.065s-.028.037-.048.05c-.136.069-.275.246-.425.014-.012-.018-.06-.013-.13-.026h.001z"/><path fill="#e8e8e8" style="fill:var(--color1,#e8e8e8)" d="M19.61 16.921v-.268h1.414v.285h.588l-.014.142c.488-.152.718-.467.627-.937-.021-.107-.069-.164-.22-.129-.21.048-.435.031-.654.046-.051.004-.12.012-.148.046-.104.126-.236.113-.374.11-.378-.009-.756-.008-1.134-.019-.069-.002-.136-.044-.204-.066a.475.475 0 0 0-.105-.033c-1.069-.076-2.137-.153-3.206-.222-.443-.029-.888-.035-1.33-.057-.125-.006-.142.033-.099.144.071.176.174.292.372.347.742.208 1.48.43 2.217.657.296.091.588.079.875.009a2.86 2.86 0 0 1 .845-.059c.174.011.35.002.549.002zm-1.854-.057v.006c-.217-.03-.433-.076-.65-.084-.261-.01-.369-.173-.451-.379-.051-.128-.022-.177.114-.174.241.006.482.033.722.027a.686.686 0 0 1 .526.219c.061.062.099.148.145.223-.097.056-.191.117-.292.166-.031.015-.077-.002-.115-.005h.001zm4.309-.5c.035.28-.115.514-.323.517-.062-.318-.027-.375.323-.517zM5.796 17.021c.058-.379.093-.744.176-1.099.055-.233.148-.455.277-.658a.837.837 0 0 1 1.271-.193c.19.162.321.395.473.599.041.055.063.125.116.233.061-.665-.042-1.302.207-1.886-.382 0-.76-.002-1.136 0-.432.004-.865.011-1.297.018-.301.005-.387.092-.406.417.209.011.215.143.197.315-.027.272-.009.549-.048.818-.019.128-.126.243-.197.373.189.049.154.246.164.421.008.126.015.252.011.377-.004.144.069.219.193.264zm2.166-2.524c-.217-.197-.474-.227-.753-.215-.465.021-.931.022-1.396.031-.056 0-.112-.008-.169-.012l-.011-.046c.035-.017.068-.046.104-.048.058-.003.117.019.175.018a225.47 225.47 0 0 0 1.644-.044c.286-.007.311.009.406.316v-.001zM15.161 13.396l-1.034-.98.345-.042v-.03h-1.55c.03.058.063.115.099.17.149.202.321.39.448.606.181.308.441.399.773.364.295-.031.591-.057.919-.088z"/><path fill="#e8e8e8" style="fill:var(--color1,#e8e8e8)" d="M15.273 16.559c.19.104.375.217.57.31.553.263 1.11.532 1.733.57.513.033 1.029.03 1.543.04.18.004.362 0 .572 0l-.164-.09.235-.296c-.705-.076-1.372-.101-1.991.292l-.012-.06.3-.143c-.005-.014-.009-.03-.011-.03-.572.042-1.096-.176-1.634-.31-.355-.089-.703-.205-1.054-.308a.384.384 0 0 0-.076-.007l-.013.032zM13.455 18.015c0 .296.087.559.284.783.401.454 1.038.426 1.399-.062.302-.404.313-.998.029-1.417-.384-.565-1.125-.566-1.51 0-.139.205-.21.449-.203.696zm1.679-.405c.168.382.108.741-.15 1.055-.31.378-.829.358-1.132-.027a1.053 1.053 0 0 1-.002-1.265c.179-.226.41-.346.703-.288s.493.242.586.531l-.005-.006zM18.854 15.835c-.038-.031-.057-.059-.082-.066a.486.486 0 0 0-.114-.007c-.474-.016-.474-.015-.595-.479a.35.35 0 0 1-.015-.064c-.009-.187.427-.467.601-.397.108.047.224.075.342.082.652.02 1.304.031 1.956.038.076 0 .151-.049.227-.053s.154.02.273.038c-.125-.12-.216-.237-.373-.242-.865-.025-1.73-.056-2.596-.06-.305 0-.483.248-.663.462-.021.025-.014.087 0 .125.056.172.121.34.194.505a.233.233 0 0 0 .162.113c.218.013.436.006.683.006zm.013-1.052.003-.036h.612l-.003.036h-.611zm2.188 0-.008.072-.549-.031.005-.041h.552zm-.783-.022v.041h-.559l.002-.041h.557zM6.249 17.758c.078.23.126.476.242.684.167.302.46.293.658.011.259-.368.259-1.066 0-1.438-.195-.28-.474-.279-.665.007-.145.217-.186.464-.191.719l-.043.016zm.855.558c-.177.254-.408.253-.563-.013a1.028 1.028 0 0 1-.123-.76c.042-.173.112-.338.207-.488.071-.114.221-.154.333-.06s.185.225.288.355l-.183.063c-.027-.286-.027-.286-.111-.327l-.044.256-.16-.254c-.16.151.056.273.002.406l-.24-.016c.06.101.084.179.136.219.094.073.103.131.014.207-.074.066-.112.135-.023.226l.172-.105c.04.128-.101.263.041.404l.122-.316.134.204zm.017-.451c-.04.042-.086.115-.152.148-.026.013-.134-.058-.14-.099a1.63 1.63 0 0 1 .003-.407c.003-.022.107-.033.164-.047.011-.002.026.018.041.03-.141.077-.185.208-.099.322.024.034.097.031.182.053v-.001zm.137.033-.082.296c-.063-.12-.119-.239.082-.294v-.001zM17.647 15.229c-.174-.015-.349-.026-.522-.047-.228-.028-.454-.072-.683-.092s-.294-.172-.362-.364l.222-.015c-.056.138.035.205.128.238a.364.364 0 0 0 .256-.006c.042-.021.038-.135.059-.223h.218c0 .028-.012.066.002.082.131.172.445.184.613.036.052-.046.124-.07.187-.105l.03.045-.079.106.014.014.25-.164c-.708-.082-1.407-.15-2.111-.092.021.287.146.449.395.505a6.7 6.7 0 0 0 1.378.141l.005-.059zM7.947 16.879c-.076-.581-.238-1.124-.664-1.553-.04-.04-.057-.104-.066-.169-.265-.15-.616-.051-.864.25.078-.026.158-.047.238-.063.325-.045.576.094.78.331.263.305.4.675.526 1.049.018.051.033.103.049.154zM21.46 17.063c-.157 0-.299-.011-.439.005a.355.355 0 0 0-.187.101c-.107.102-.202.217-.296.319.258 0 .547.049.807-.016.204-.05.369-.242.553-.371l-.03-.045-.445.202.037-.195zM15.069 15.634c-.398-.705-1.274-.682-1.751-.174.299-.164.583-.235.88-.149.139.04.289.096.392.19.142.13.291.155.478.133zM12.442 12.02l.139.125c.132-.022.23-.057.332-.054 1.175.036 2.351.053 3.518.226.01.001.019 0 .028-.005s.016-.011.021-.019c-1.335-.231-2.683-.261-4.039-.273z"/><path fill="#e8e8e8" style="fill:var(--color1,#e8e8e8)" d="M18.863 15.408c.053.11.091.23.164.326.017.025.039.047.065.063s.054.028.084.034a.232.232 0 0 0 .174-.037c.135-.082.144-.221.135-.362s-.046-.259-.187-.318c-.225-.094-.406.033-.435.294zm.55-.024c-.102.13-.159.293-.334.25-.015-.099 0-.216-.044-.248-.11-.077.06-.091.015-.137l.24-.055-.057.095.18.095zM21.325 15.415c.063.15.093.275.163.372.091.128.251.105.316-.038.076-.167.078-.349-.028-.499-.044-.062-.192-.12-.245-.092-.088.047-.138.166-.205.256zm.291.16a.541.541 0 0 1-.09-.089c-.022-.033-.049-.09-.035-.116.017-.033.073-.048.117-.073l-.047-.045c.106.012.205.031.139.17a.08.08 0 0 0 0 .053c.037.099.033.105-.084.137l-.001-.036zM5.319 15.762c.197-.087.251-.463.124-.592.139-.184.13-.532-.045-.573l-.079 1.165zM14.728 16.269c-.036-.033-.066-.082-.108-.094-.499-.14-1.292.273-1.475.775.4-.514.911-.762 1.583-.68zM6.244 16.77c.06-.099.113-.205.182-.3.209-.291.469-.306.684-.02.126.168.207.37.305.559.033.062.051.131.089.191-.076-.379-.182-.745-.519-.986-.156-.113-.325-.095-.467.033a.888.888 0 0 0-.274.523zM20.851 18.178c-.053.068-.096.105-.118.152-.249.516-.783.625-1.213.246a.916.916 0 0 0-.098-.064c.053.238.411.39.787.351.353-.037.642-.325.643-.685z"/><path fill="#e8e8e8" style="fill:var(--color1,#e8e8e8)" d="M19.024 15.851c-.18-.175-.3-.369-.201-.628.074-.197.237-.239.467-.202-.164-.104-.29-.071-.409-.004-.152.086-.189.234-.175.394.017.206.103.373.319.44zM17.44 17.717c-.367-.046-.488.248-.682.443l.036.048.646-.491zM21.439 15.86c-.146-.204-.219-.418-.099-.657.07-.141.197-.168.387-.12-.218-.109-.371-.069-.46.086-.123.216-.042.561.172.691zM21.317 17.67h-.408l.182.074-.323.285c.219-.096.406-.154.55-.36zM12.005 18.388c.113.147.263.197.418.119.105-.054.176-.131.155-.272-.099.085-.175.197-.274.221-.092.023-.206-.044-.299-.068zM22.05 15.871c-.033-.156.038-.311-.076-.455-.088.257-.069.407.076.455zM16.798 15.091l.482.036c-.176-.127-.371-.15-.482-.036zM18.42 13.501l.325.27c-.025-.221-.088-.27-.325-.27zM5.332 16.2c-.128-.074-.141-.012-.13.398l.13-.398zM10.795 12.465l-.391 1.376.226.022.172-.749.029.005-.128.723c.144.037.197-.004.23-.147.085-.378.197-.749.293-1.124.025-.099.084-.132.179-.12a.914.914 0 0 0 .148 0c.312-.015.606.016.807.306a.526.526 0 0 0-.46-.371 9.559 9.559 0 0 0-2.272.14.34.34 0 0 0-.277.226c-.099.272-.195.545-.285.82-.017.052.003.116.007.191.134-.362.252-.69.384-1.019.015-.031.037-.059.064-.08s.058-.037.092-.046c.386-.056.776-.101 1.183-.153z"/><path fill="#e8e8e8" style="fill:var(--color1,#e8e8e8)" d="M11.313 13.697c.096-.017.173-.044.25-.042.427.014.855.035 1.266.053-.03-.092-.071-.171-.08-.253-.018-.164-.109-.253-.263-.257a18.572 18.572 0 0 0-.851.002c-.154.002-.213.116-.254.239-.031.09-.049.183-.068.258zm1.323-.172c-.188-.049-.364-.112-.546-.137-.195-.026-.4-.123-.601.011.062-.06.132-.119.207-.123.24-.011.48-.002.72.002.181.003.222.049.22.247zM9.055 14.479h-.411l.002.021h.408v-.021zM17.407 16.321l-.136.134c.049.048.091.118.15.136.035.011.095-.058.144-.091l-.158-.179zM17.96 16.7l-.247-.169-.144.197.383.019.007-.047zM16.891 16.569c.044-.056.099-.104.091-.118a.214.214 0 0 0-.108-.091c-.018-.007-.085.052-.081.066.016.042.052.079.098.143zM15.138 17.615h-.283c-.087-.105.118-.376-.209-.402l-.055.351c-.091-.103-.16-.19-.242-.265-.029-.027-.111-.043-.128-.025-.033.035-.063.107-.048.146.038.099.103.185.179.315l-.38-.042c-.081.113-.073.197.068.252.074.029.143.072.252.129-.096.073-.164.131-.238.177s-.11.107-.046.17c.033.033.112.035.164.023.075-.018.144-.062.257-.113-.038.137-.07.227-.086.32-.008.043.015.092.024.138.056-.017.134-.017.164-.055.063-.08.099-.179.159-.293l.199.241c.203-.119.004-.296.076-.436h.159c.151-.173-.083-.215-.084-.317l.094-.321.003.006zm-.188.505c-.015.12-.096.217-.252.236-.147.018-.296-.094-.345-.252-.054-.169-.008-.34.12-.408.122-.066.239-.063.364.054-.135-.012-.258-.002-.261.132-.002.09.043.21.11.263.049.037.167-.013.266-.025h-.001z"/><path fill="#e8e8e8" style="fill:var(--color1,#e8e8e8)" d="M14.066 17.298c-.493.411-.393 1.291.102 1.454-.43-.454-.415-.942-.102-1.454zM6.642 18.313c-.182-.379-.164-.758-.025-1.142-.228.314-.216.859.025 1.142zM3.161 7.428h-.596l.671-2.034h.755l.671 2.034h-.596l-.445-1.474h-.016L3.16 7.428zm-.111-.803h1.12v.413H3.05v-.413zM4.858 7.428V5.394h.882c.155 0 .285.021.39.063s.186.101.239.177a.453.453 0 0 1 .081.269.429.429 0 0 1-.187.36.533.533 0 0 1-.207.085v.02c.087.003.167.026.238.067a.467.467 0 0 1 .235.418c0 .111-.029.21-.087.297s-.14.155-.246.205-.234.074-.381.074h-.957zm.553-.441h.258c.093 0 .162-.017.209-.052s.07-.087.07-.155c0-.048-.011-.088-.033-.121s-.053-.058-.093-.075a.367.367 0 0 0-.144-.026h-.266v.429zm0-.771h.226c.048 0 .091-.008.128-.023s.066-.037.086-.066a.178.178 0 0 0 .032-.106c0-.063-.023-.111-.068-.144s-.102-.051-.171-.051H5.41v.389zM6.671 5.839v-.445h1.768v.445h-.612v1.589h-.544V5.839h-.612zM10.521 6.411c0 .226-.044.418-.132.573s-.207.272-.357.353c-.15.079-.316.119-.501.119s-.353-.04-.502-.12-.267-.199-.356-.354a1.156 1.156 0 0 1-.131-.571c0-.226.044-.417.131-.572s.207-.273.356-.353c.15-.08.317-.12.502-.12.184 0 .351.04.501.12s.268.197.357.353c.088.155.132.346.132.572zm-.568 0c0-.122-.016-.224-.049-.308s-.079-.148-.142-.191c-.062-.044-.139-.066-.23-.066s-.168.022-.231.066c-.062.043-.11.107-.142.191s-.048.186-.048.308.016.225.048.309.08.147.142.191c.063.043.14.065.231.065s.168-.022.23-.065c.063-.044.11-.107.142-.191s.049-.187.049-.309zM12.457 7.428h-.552V5.835h-.195c-.064 0-.119.009-.166.027s-.082.044-.107.081c-.025.036-.037.084-.037.142s.012.104.037.14c.025.036.061.062.107.078s.102.024.166.024h.413v.429h-.524c-.154 0-.29-.026-.406-.076s-.207-.127-.272-.226a.67.67 0 0 1-.096-.368c0-.144.031-.268.094-.371s.151-.182.264-.237a.901.901 0 0 1 .396-.082h.878V7.43zm-1.192-.934h.588l-.497.934h-.6l.508-.934zM12.719 7.428V5.394h.552v.794h.731v-.794h.552v2.034h-.552v-.795h-.731v.795h-.552zM16.246 5.394v.445h-.878v1.589h-.552V5.394h1.43zM18.327 6.411c0 .226-.044.418-.132.573s-.207.272-.357.353c-.15.079-.317.119-.501.119-.185 0-.353-.04-.503-.12s-.267-.199-.356-.354a1.156 1.156 0 0 1-.131-.571c0-.226.044-.417.131-.572s.207-.273.356-.353c.15-.08.317-.12.503-.12.184 0 .351.04.501.12s.268.197.357.353c.088.155.132.346.132.572zm-.568 0c0-.122-.016-.224-.049-.308s-.079-.148-.142-.191c-.062-.044-.139-.066-.23-.066s-.169.022-.231.066c-.062.043-.11.107-.142.191s-.048.186-.048.308.016.225.048.309.08.147.142.191c.063.043.14.065.231.065s.168-.022.23-.065c.063-.044.11-.107.142-.191s.049-.187.049-.309zM18.515 7.428v-.425l.056-.008c.068-.011.123-.04.168-.087s.079-.125.103-.229c.024-.105.04-.249.047-.43l.032-.854h1.474v2.034h-.532V5.824h-.433l-.032.64c-.012.237-.044.426-.095.567s-.13.243-.235.305a.814.814 0 0 1-.416.093h-.135zM20.655 5.394h.552v1.065h.016l.723-1.065h.469v2.034h-.552V6.359h-.012l-.735 1.069h-.461V5.394zM3.031 20.374l.269.477h.013l.272-.477h.496l-.489.819.508.819h-.508l-.278-.486h-.013l-.278.486h-.505l.502-.819-.486-.819h.499zM4.272 20.374h.553l.381.927h.019l.381-.927h.553v1.637h-.435v-.947h-.013l-.365.934h-.262l-.365-.94h-.013v.953h-.435v-1.637zM6.369 22.011v-1.637h1.18v.358h-.736v.281h.675v.358h-.675v.281h.732v.358H6.368zM7.716 22.011v-.342l.045-.006c.054-.008.099-.032.135-.07s.064-.1.083-.185c.02-.085.032-.2.038-.346l.026-.688h1.186v1.637H8.8v-1.292h-.349l-.026.515c-.01.191-.035.343-.077.456s-.105.195-.189.246a.654.654 0 0 1-.335.075h-.109zM9.72 20.924h.339c.138 0 .259.022.361.066s.184.107.241.187a.473.473 0 0 1 .086.284c.001.109-.028.204-.086.287s-.137.147-.241.193a.877.877 0 0 1-.361.069h-.611v-1.637h.444v1.289h.166c.054 0 .099-.009.135-.026a.191.191 0 0 0 .111-.179c.001-.056-.02-.102-.062-.139s-.103-.056-.184-.056h-.339v-.339zM11 22.011v-1.637h.444v.64h.588v-.64h.445v1.637h-.445v-.64h-.588v.64H11zM12.688 20.374h.444v.857h.013l.582-.857h.377v1.637h-.445v-.86h-.01l-.592.86h-.371v-1.637zM16.016 21.675l-.019.723h-.413v-.387h-.115v-.336h.547zm-1.701.336v-1.637h.429v1.295h.572v-1.295h.435v1.637h-1.436zM16.448 20.924h.339c.138 0 .259.022.361.066s.184.107.241.187c.058.081.086.175.086.284s-.028.204-.086.287c-.057.082-.137.147-.241.193s-.223.069-.361.069h-.611v-1.637h.445v1.289h.166c.054 0 .099-.009.135-.026a.191.191 0 0 0 .111-.179c.001-.056-.02-.102-.062-.139s-.103-.056-.184-.056h-.339v-.339zM18.736 22.011l-.502-.662h-.062v.662h-.445v-1.637h.445v.617h.058l.47-.617h.559l-.624.787.659.851h-.558zM19.414 20.374h.445v.857h.013l.582-.857h.377v1.637h-.444v-.86h-.01l-.592.86h-.371v-1.637zM21.041 20.373h.444v.857h.013l.582-.857h.377v1.638h-.444v-.86h-.009l-.592.86h-.371v-1.638zm.87-.441h.278c0 .104-.04.187-.119.249s-.185.093-.319.093c-.135 0-.242-.031-.321-.093s-.118-.145-.117-.249h.275c0 .034.011.065.036.093s.068.042.127.042c.057 0 .098-.014.122-.041s.037-.058.037-.094z"/><path fill="#e8e8e8" style="fill:var(--color1,#e8e8e8)" d="M12.506 1.266 1.231 3.255H0V2.222L12.506.015l12.506 2.207v1.033h-1.231L12.506 1.266zm0 29.344s-.227-.118-.616-.332c-2.355-1.301-10.659-6.17-10.659-10.153V3.257H0v16.868c0 1.626.961 3.152 2.069 4.411 1.143 1.298 2.635 2.525 4.078 3.57a50.438 50.438 0 0 0 3.974 2.581c.54.317.992.569 1.309.743l.371.201.1.053.027.014.01.005.001.001.567-1.093zm0 0s.227-.118.616-.332c2.355-1.301 10.659-6.17 10.659-10.153V3.257h1.231v16.868c0 1.626-.961 3.152-2.069 4.411-1.143 1.298-2.634 2.525-4.078 3.57a50.438 50.438 0 0 1-3.974 2.581c-.54.317-.992.569-1.309.743l-.371.201-.1.053-.027.014-.01.005-.001.001-.567-1.093zm-.567 1.093.566-1.093.566 1.093-.566.294-.566-.294z"/></symbol><symbol id="icon-logo-light" viewBox="0 0 25 32"><path d="M12.506 1.266 1.231 3.255H0V2.222L12.506.015l12.506 2.207v1.033h-1.231L12.506 1.266zm0 29.344s-.227-.118-.616-.332c-2.355-1.301-10.659-6.17-10.659-10.153V3.257H0v16.868c0 1.626.961 3.152 2.069 4.411 1.143 1.298 2.635 2.525 4.078 3.57a50.438 50.438 0 0 0 3.974 2.581c.54.317.992.569 1.309.743l.371.201.051.027.05.026.008.004.019.01.008.004.002.001h.001l.567-1.093zm0 0s.227-.118.616-.332c2.355-1.301 10.659-6.17 10.659-10.153V3.257h1.231v16.868c0 1.626-.961 3.152-2.069 4.411-1.143 1.298-2.634 2.525-4.078 3.57a50.438 50.438 0 0 1-3.974 2.581 51.957 51.957 0 0 1-1.68.943l-.08.042-.021.011a.366.366 0 0 1-.019.01l-.008.004-.008.004-.002.001h-.001l-.567-1.093zm-.567 1.093.566-1.093.566 1.093-.566.294-.566-.294zM13.189 11.668c-.078-.036-.162-.063-.238-.104l-.056-.031-.001-.001a1.651 1.651 0 0 1-.216-.142h-.001a1.106 1.106 0 0 1-.061-.053c-.068-.067-.103-.131-.101-.195l.167.061c.013.005.028-.002.033-.015s-.002-.028-.015-.033l-.197-.072a.494.494 0 0 1-.229-.211.313.313 0 0 1-.026-.063v-.001c-.004-.017-.006-.032-.005-.044s.005-.023.011-.031a.054.054 0 0 1 .02-.014.495.495 0 0 0 .274.09c.014.001.026-.01.027-.024s-.01-.026-.024-.027a.429.429 0 0 1-.255-.088.631.631 0 0 1-.176-.206.204.204 0 0 1-.023-.079V10.367a.084.084 0 0 1 .026-.056c.104.072.215.1.325.116.014.002.027-.008.029-.022s-.008-.027-.022-.029a.676.676 0 0 1-.318-.118.46.46 0 0 1-.155-.168.249.249 0 0 1-.022-.15c.145.069.297.115.456.144.014.002.027-.007.03-.021s-.007-.027-.021-.03a1.717 1.717 0 0 1-.536-.188c-.192-.107-.382-.212-.534-.339-.155-.129-.27-.278-.31-.471.306.181.653.313.996.443.139.053.278.106.413.161.298.123.526.323.553.621.05.557.416 1.253 1.288 1.434-.232-.017-1.106-.024-1.106-.024z"/><path d="M11.323 9.543a.969.969 0 0 1-.293-.381.023.023 0 0 1-.016-.003 12.64 12.64 0 0 0-.443-.216c-.37-.175-.719-.339-1.088-.639.008.17.12.326.248.488.395.389.885.638 1.442.839.013.005.02.02.015.033s-.02.02-.033.015c-.559-.202-1.055-.453-1.458-.848a.865.865 0 0 1-.233-.136c.025.226.18.442.397.657.433.361.972.555 1.412.714l.021.008a.357.357 0 0 1-.004-.047c0-.009.005-.018.013-.023s.018-.005.026 0c.124.072.199.107.302.154l.119.055c.121.057.183.084.245.11l.054.023a.14.14 0 0 1 .033-.068.492.492 0 0 1-.146-.169.308.308 0 0 1-.024-.196 3.576 3.576 0 0 1-.59-.37z"/><path d="M11.254 10.113c-.439-.158-.984-.355-1.424-.721-.13-.064-.2-.114-.263-.162.059.286.246.462.44.644l.046.043c.439.31.889.44 1.347.572l.017.005-.022-.06c-.004-.011 0-.023.01-.029s.022-.006.031.001c.026.021.056.04.087.056a.821.821 0 0 1-.214-.329l-.053-.019z"/><path d="M11.383 10.539c-.456-.132-.914-.264-1.359-.578a1.189 1.189 0 0 1-.346-.189c.046.217.221.371.404.531l.012.011c.443.315.93.447 1.316.553l.197.055c.066.017.123.03.171.039a.945.945 0 0 1-.337-.404l-.057-.017h-.001z"/><path d="M11.399 10.916c-.386-.105-.88-.239-1.331-.558a.574.574 0 0 1-.211-.095c.061.241.219.407.395.565.18.141.439.238.729.309s.605.116.897.155l.024.001a.82.82 0 0 1-.318-.325 6.594 6.594 0 0 0-.185-.051z"/><path d="M10.969 11.186c-.289-.071-.555-.168-.743-.314a.429.429 0 0 1-.106-.028l-.072-.031a.833.833 0 0 0 .475.482 4.62 4.62 0 0 0 1.553.256.64.64 0 0 1-.216-.21 8.7 8.7 0 0 1-.891-.155z"/><path d="M12.122 11.602c-.43.003-.933-.03-1.612-.257l-.036.002c.104.191.312.326.591.425.305-.08.741-.116 1.143-.024a.276.276 0 0 1-.08-.092.084.084 0 0 1-.006-.054zM12.196 11.552c.205.058.412.063.624-.003a1.772 1.772 0 0 1-.166-.112c-.256.022-.427-.021-.667-.109a.152.152 0 0 1-.05.015l-.014.001a.557.557 0 0 0 .127.132c.042.03.083.048.127.068a.108.108 0 0 0 .019.008zM11.993 11.274c.226.083.384.126.605.114l-.017-.016a.42.42 0 0 1-.1-.142 2.679 2.679 0 0 1-.616-.208 1.317 1.317 0 0 1-.21-.037c.082.124.184.238.336.288h.001zM11.886 10.975c.187.091.381.156.582.2a.235.235 0 0 1 0-.053.545.545 0 0 1-.263-.289 1.947 1.947 0 0 1-.586-.279.588.588 0 0 1-.149-.063c.051.127.112.216.177.285s.132.118.2.169l.04.029zM11.646 10.511c.156.118.345.198.547.265v-.019a.105.105 0 0 1 .023-.059l.017-.016a.643.643 0 0 1-.158-.198.292.292 0 0 1-.027-.082l-.073-.032c-.062-.027-.126-.054-.248-.112l-.117-.054c-.091-.042-.163-.074-.264-.132.023.142.129.281.3.439z"/><path d="M9.432 11.933c-.136-.019-.276-.024-.41-.053l-.099-.022h-.002a2.71 2.71 0 0 1-.393-.12h-.001a1.278 1.278 0 0 1-.117-.054c-.133-.072-.215-.154-.241-.253l.283.018c.023.001.042-.016.043-.038s-.016-.042-.038-.043l-.334-.021a.781.781 0 0 1-.444-.221.496.496 0 0 1-.069-.085l-.001-.002c-.014-.024-.023-.046-.027-.066s-.003-.038.003-.052a.076.076 0 0 1 .025-.031.796.796 0 0 0 .459.016c.022-.005.036-.027.031-.049s-.027-.036-.049-.031a.696.696 0 0 1-.43-.019H7.62a1.011 1.011 0 0 1-.361-.236.358.358 0 0 1-.071-.11v-.001l-.008-.026a.141.141 0 0 1 .014-.098c.191.063.373.057.548.032.022-.003.038-.024.035-.046s-.024-.038-.046-.035a1.072 1.072 0 0 1-.539-.038.743.743 0 0 1-.313-.188.404.404 0 0 1-.101-.219c.252.04.506.043.762.015.022-.002.039-.023.036-.045s-.023-.039-.045-.036c-.266.029-.53.024-.79-.023l-.113-.026c-.341-.077-.678-.153-.969-.278-.294-.127-.537-.304-.686-.581.549.139 1.139.185 1.722.231.236.019.472.037.703.062.51.054.949.258 1.123.701.326.829 1.124 1.86 2.426 1.799-.362.079-1.516.275-1.516.275z"/><path d="M5.627 9.521c-.244-.106-.46-.246-.618-.452a.036.036 0 0 1-.025.003 19.41 19.41 0 0 0-.775-.132c-.644-.101-1.251-.196-1.95-.489.089.256.33.444.597.635.779.418 1.638.578 2.58.636.023.001.04.021.038.043s-.021.04-.043.038c-.946-.058-1.817-.219-2.608-.643a1.417 1.417 0 0 1-.418-.104c.139.334.473.595.901.827.824.358 1.735.413 2.479.458l.035.002a.843.843 0 0 1-.027-.07.041.041 0 0 1 .049-.053c.221.055.351.074.53.1l.207.031c.21.033.318.046.424.059l.094.011a.226.226 0 0 1 .02-.119.77.77 0 0 1-.299-.193.48.48 0 0 1-.124-.289l-.084-.019c-.34-.076-.684-.154-.982-.283z"/><path d="M5.777 10.424c-.741-.045-1.663-.101-2.501-.464a2.18 2.18 0 0 1-.474-.13c.219.41.584.596.961.788l.089.045c.809.277 1.557.274 2.315.271h.027a2.914 2.914 0 0 1-.06-.082.04.04 0 0 1 .049-.061.89.89 0 0 0 .157.046c-.212-.12-.375-.251-.475-.407a2.512 2.512 0 0 0-.089-.005z"/><path d="M6.165 11.016c-.756.003-1.515.006-2.336-.274a1.881 1.881 0 0 1-.614-.134c.168.312.504.467.856.631l.023.011c.819.283 1.622.267 2.26.255l.325-.005c.109-.003.202-.009.278-.017a2.018 2.018 0 0 1-.325-.149 1.455 1.455 0 0 1-.372-.318h-.096z"/><path d="M6.359 11.586c-.636.013-1.453.029-2.285-.257a.888.888 0 0 1-.365-.051c.201.341.516.524.857.686.338.135.778.167 1.253.146s.977-.094 1.44-.165l.037-.009c-.255-.046-.46-.199-.631-.355-.096 0-.198.003-.305.005z"/><path d="M5.822 12.192c-.473.021-.923-.009-1.276-.147a.628.628 0 0 1-.175.004c-.039-.003-.08-.009-.123-.015.249.307.557.491.942.525a7.323 7.323 0 0 0 2.488-.304.827.827 0 0 1-.099-.028 1.007 1.007 0 0 1-.325-.197c-.458.07-.959.142-1.431.163z"/><path d="M7.771 12.31a7.431 7.431 0 0 1-2.579.329l-.055.02c.245.246.623.359 1.094.384.678-.029 1.233-.285 1.736-.548a.426.426 0 0 1-.163-.105.125.125 0 0 1-.033-.08z"/><path d="M8.075 12.532c-.522.276-1.109.562-1.836.594l-.124.04c.47.18.958.2 1.48-.035.28-.14.538-.313.753-.557a1.29 1.29 0 0 1-.272-.042zM8.643 12.452c.091-.217.145-.255.353-.424-.105-.019.107-.047.009-.068l-.083-.019a1.788 1.788 0 0 1-1.049.34c-.015.012-.019.021-.019.026s0 .015.014.031a.43.43 0 0 0 .18.1l.034.011h.001c.173.051.398.066.56.004z"/><path d="M7.862 12.2c.339-.003.658-.088.953-.284a2.533 2.533 0 0 1-.304-.097c-.382.149-.662.159-1.069.132a.227.227 0 0 1-.07.045l-.02.008a.875.875 0 0 0 .253.144c.078.027.149.037.224.047l.032.004z"/><path d="M7.428 11.868c.383.026.643.021.977-.097l-.033-.017a.663.663 0 0 1-.216-.172 4.231 4.231 0 0 1-1.035-.042c-.079.018-.193.03-.337.037.181.154.388.282.643.29h.001zM7.13 11.459c.326.056.652.067.979.045a.328.328 0 0 1-.024-.081.876.876 0 0 1-.462-.241.577.577 0 0 1-.069-.082c-.357-.008-.705-.046-1.021-.163a.932.932 0 0 1-.255-.03c.135.172.268.28.398.357s.254.122.381.168l.074.027zM6.555 10.857c.292.11.615.149.955.159l-.008-.029a.166.166 0 0 1 .009-.101.15.15 0 0 1 .019-.032 1.062 1.062 0 0 1-.331-.231.492.492 0 0 1-.078-.114l-.127-.016c-.107-.013-.217-.026-.429-.059a8.666 8.666 0 0 0-.204-.03 4.971 4.971 0 0 1-.463-.083c.099.207.323.372.655.536zM6.931 19.052c.669.003.811-.094 1.059-.723.109-.276.197-.336.493-.326.219.007.438.018.657.029a.18.18 0 0 1 .094.019c.259.188.507.09.762-.012a.679.679 0 0 1 .296-.045c.284.024.565.068.848.096.085.009.116.044.141.124.152.495.41.682.927.682a.182.182 0 0 0 .033 0c.304-.034.529.051.772.28.902.85 2.618.582 3.1-.625.039-.099.099-.112.187-.111.575.003 1.15.005 1.725 0 .119 0 .183.035.246.138.622 1.03 2.256 1.169 3.005.257.362-.439.403-.953.34-1.492-.001-.011-.004-.022-.007-.033-.066-.178-.022-.308.133-.433.301-.243.356-.587.323-.953a.138.138 0 0 0-.033-.089c-.193-.154-.151-.371-.158-.574-.004-.106-.006-.204-.108-.275-.041-.028-.055-.092-.086-.137-.184-.263-.356-.537-.559-.784a.636.636 0 0 0-.35-.188c-.672-.126-1.348-.235-2.022-.346-.099-.016-.175-.038-.221-.138-.082-.182-.249-.225-.429-.256a.73.73 0 0 1-.293-.119c-.292-.213-.573-.441-.859-.661a2.824 2.824 0 0 0-1.494-.57c-1.441-.139-2.884-.23-4.33-.156-.643.033-1.282.138-1.922.218-.292.037-.486.213-.595.482-.131.329-.267.657-.389.993-.04.111-.092.146-.21.148-.87.015-1.741.036-2.611.063-.066.002-.171.058-.19.113-.104.291-.22.584-.269.887-.057.349-.048.709-.068 1.065-.002.033 0 .072-.019.094-.236.285-.113.626-.143.942-.004.047.082.122.143.151.172.082.351.151.531.217.081.029.111.072.105.157s.005.164 0 .246c-.007.136.043.222.172.285.058.028.101.115.121.184.066.23.099.472.185.693.126.324.369.509.738.486.075-.006.152-.003.228-.003zm5.309-1.816c-.085 0-.183.004-.28 0l-3.348-.149c-.362-.016-.506-.095-.55-.449a11.754 11.754 0 0 1-.083-1.536c.002-.363.026-.741.128-1.085.158-.533.394-1.042.592-1.563a.662.662 0 0 1 .506-.44c.767-.181 1.548-.221 2.331-.242a.923.923 0 0 1 .793.388c.256.335.515.667.769 1.003.135.178.31.282.533.269.248-.013.497-.071.744-.066.876.018 1.752.052 2.627.085.302.011.603.038.944.06l-.407-.417c.254.171.473.323.698.464a.767.767 0 0 0 .269.103c.74.122 1.479.238 2.221.354.249.039.379.209.479.43a.894.894 0 0 1-.25-.059c-.055-.02-.109-.06-.164-.062-.87-.024-1.741-.044-2.611-.06-.085 0-.17.035-.255.052-.097.02-.195.061-.291.057-.536-.022-1.071-.058-1.607-.082-.139-.006-.263-.007-.362-.136-.041-.055-.142-.075-.22-.089-.183-.033-.368-.054-.553-.078l-1.238-.158a.84.84 0 0 0 .292.124c.503.074 1.009.133 1.512.207.07.01.131.069.228.12-.207.075-.411-.045-.53.147.164-.05.245.022.289.164.099.321.307.479.651.493.404.015.808.06 1.211.097.054.005.133.024.151.061.052.108.079.23.119.354-.703-.024-1.381-.053-2.059-.069-.236-.005-.394-.063-.543-.284-.615-.911-1.799-.861-2.342.096-.148.26-.242.564-.3.86-.064.335-.063.681-.092 1.035v-.001zm7.055-.553c-.197 0-.373.008-.548 0a2.83 2.83 0 0 0-.845.059c-.287.07-.58.082-.875-.009a81.544 81.544 0 0 0-2.216-.657.53.53 0 0 1-.372-.347c-.044-.109-.027-.15.099-.144.443.022.887.028 1.329.057 1.069.069 2.137.147 3.205.222a.475.475 0 0 1 .105.033c.068.023.135.066.204.066.378.011.756.01 1.133.019.138.003.271.015.374-.11.028-.033.097-.042.148-.046.219-.016.443 0 .654-.046.15-.034.199.023.22.129.091.47-.139.785-.626.937l.014-.142h-.59v-.285h-1.413v.266zm-13.81.101c-.124-.046-.197-.121-.193-.263a3.946 3.946 0 0 0-.011-.377c-.011-.175.025-.371-.164-.421.072-.131.179-.246.197-.373.039-.269.022-.546.048-.818.017-.172.011-.304-.197-.315.018-.325.105-.412.406-.416.432-.007.864-.014 1.297-.018.377-.003.754 0 1.136 0-.249.584-.146 1.22-.207 1.885-.053-.108-.075-.177-.116-.233-.152-.204-.283-.437-.473-.599a.836.836 0 0 0-1.27.193 2.125 2.125 0 0 0-.276.657c-.083.355-.118.72-.176 1.098zm9.362-3.624c-.329.031-.624.057-.92.088-.332.035-.592-.056-.773-.364-.127-.215-.298-.404-.448-.606a1.928 1.928 0 0 1-.099-.17h1.551v.03l-.345.042 1.034.98zm.112 3.162.013-.03a.39.39 0 0 1 .076.007c.351.103.699.219 1.054.308.538.134 1.061.352 1.633.31.003 0 .007.016.012.03l-.3.143.012.061c.618-.394 1.285-.368 1.99-.292l-.235.296.164.09c-.211 0-.392.003-.572 0-.514-.011-1.029-.009-1.543-.04-.625-.038-1.18-.307-1.733-.57-.195-.094-.381-.208-.57-.312zm-1.818 1.455a1.184 1.184 0 0 1 .204-.697c.385-.565 1.125-.565 1.509 0a1.254 1.254 0 0 1-.029 1.417c-.363.49-.998.518-1.4.062a1.13 1.13 0 0 1-.284-.782zm5.398-2.179c-.247 0-.465.008-.682-.005-.034-.005-.066-.018-.094-.038s-.052-.045-.069-.074a5.03 5.03 0 0 1-.193-.504c-.014-.038-.021-.1 0-.125.179-.214.358-.463.663-.462.865.005 1.73.035 2.595.06.157.005.248.122.373.242-.119-.018-.197-.042-.273-.038s-.152.054-.227.053a98.059 98.059 0 0 1-1.955-.038 1.032 1.032 0 0 1-.342-.082c-.174-.07-.61.21-.601.397a.35.35 0 0 0 .015.064c.122.463.122.463.595.479a.482.482 0 0 1 .114.007c.025.006.044.034.081.064zM5.937 17.52l.046-.016c.005-.255.046-.502.191-.719.191-.286.47-.287.665-.007.258.371.257 1.07 0 1.437-.197.282-.49.29-.657-.011-.117-.209-.166-.455-.243-.684h-.001zm11.395-2.528-.006.059a6.783 6.783 0 0 1-1.378-.14c-.248-.056-.373-.218-.394-.505.703-.058 1.402.01 2.11.092l-.25.164-.013-.014.079-.105-.03-.045c-.063.034-.135.058-.187.105-.168.149-.48.136-.612-.036-.013-.017-.002-.054-.002-.082h-.218c-.021.088-.017.202-.059.223a.364.364 0 0 1-.256.006c-.092-.033-.184-.099-.128-.238l-.222.015c.066.192.137.344.362.364s.454.066.682.092c.174.02.349.03.523.046zm-9.696 1.65c-.016-.052-.031-.104-.048-.154-.127-.374-.263-.744-.526-1.049-.204-.237-.455-.376-.78-.331-.081.016-.16.037-.238.063.248-.301.599-.4.864-.25a.295.295 0 0 0 .066.169c.425.429.588.971.663 1.552zm13.509.183-.037.195.444-.203.03.045c-.182.129-.349.321-.551.371-.26.066-.549.016-.807.016.093-.102.188-.217.296-.319a.355.355 0 0 1 .187-.101c.139-.014.281-.004.437-.004h.001zm-6.39-1.427c-.188.022-.336-.004-.478-.131-.103-.094-.253-.15-.392-.19-.296-.086-.581-.017-.88.149.476-.509 1.351-.532 1.749.173h.001zm-2.626-3.614c1.356.012 2.704.041 4.036.272-.005.008-.012.015-.021.019s-.019.006-.028.005c-1.165-.173-2.341-.19-3.517-.225-.099-.003-.201.033-.332.054l-.138-.125zm6.419 3.386c.028-.261.21-.387.433-.293.141.059.178.181.187.318s0 .279-.135.362a.228.228 0 0 1-.258.003.244.244 0 0 1-.065-.063c-.074-.092-.111-.215-.164-.325l.001-.002zm2.462.007c.066-.09.117-.209.205-.256.053-.028.201.03.245.092.106.15.104.331.028.499-.066.143-.224.166-.316.038-.07-.095-.1-.221-.163-.371l.001-.002zm-16.001.347.079-1.165c.175.041.184.389.045.573.127.13.073.505-.125.594l.001-.002zm9.405.508c-.671-.082-1.183.167-1.583.68.183-.502.976-.915 1.475-.775.041.012.072.062.108.094zm-8.481.502a.888.888 0 0 1 .274-.523c.141-.129.31-.147.466-.033.336.242.442.608.518.986-.038-.06-.057-.129-.089-.191-.099-.189-.179-.39-.305-.559-.215-.287-.475-.271-.684.02-.069.095-.122.2-.182.3h.001zm14.603 1.406c0 .362-.289.648-.644.685-.376.039-.734-.112-.787-.351.034.019.067.04.099.064.431.379.964.271 1.213-.246.023-.047.065-.085.118-.152h.001zm-1.827-2.326c-.216-.066-.3-.233-.319-.44-.014-.16.023-.308.175-.394.118-.066.245-.099.409.004-.23-.037-.394.006-.467.202-.1.259.02.453.201.628h.001zm-1.584 1.866-.646.493-.036-.048c.194-.197.315-.491.682-.445zm3.998-1.856c-.214-.129-.296-.475-.172-.69.088-.155.242-.196.46-.086-.189-.049-.317-.021-.387.12-.119.24-.047.453.099.657zM21 17.433c-.144.205-.331.263-.55.358l.323-.284-.181-.073.408-.002zm-9.307.717c.092.024.207.092.298.068.099-.025.175-.136.273-.221.022.14-.049.218-.154.272-.154.079-.305.027-.417-.119zm10.04-2.516c-.145-.046-.164-.197-.076-.454.114.143.043.297.076.454zm-5.25-.778c.111-.114.306-.091.482.036l-.482-.036zm1.622-1.591c.238 0 .299.049.325.27l-.325-.27zM5.021 15.963l-.13.398c-.012-.41.002-.473.13-.398z"/><path d="M9.942 16.768c-.063-.293-.036-.573.007-.865.056-.382.011-.778.052-1.163.033-.296.127-.583.201-.872.027-.106.103-.145.221-.144.602.007 1.205.003 1.791.003.049.051.099.088.128.136a.299.299 0 0 1 .033.144c.003.421 0 .842 0 1.298.028-.392.052-.75.081-1.108.014-.172.033-.337.12-.501a.542.542 0 0 0-.012-.537 15.947 15.947 0 0 0-.535-.826.63.63 0 0 0-.5-.273 9 9 0 0 0-2.287.164.464.464 0 0 0-.278.225c-.133.292-.234.599-.34.903-.044.127-.005.232.135.268.168.043.337.095.508.105.296.017.592.005.89.005 0 .022.006.04 0 .051-.183.329-.242.69-.258 1.059-.012.284-.008.57-.019.855a2.106 2.106 0 0 1-.048.37.952.952 0 0 0 .113.703zm.54-4.539c-.407.052-.797.099-1.183.156a.245.245 0 0 0-.158.127c-.132.326-.249.657-.384 1.019-.004-.075-.024-.139-.007-.191.089-.275.187-.548.285-.82a.336.336 0 0 1 .276-.226 9.499 9.499 0 0 1 2.271-.14.528.528 0 0 1 .46.371c-.2-.29-.495-.321-.807-.306a.914.914 0 0 1-.148 0c-.095-.011-.153.022-.178.12-.099.375-.207.746-.293 1.124-.033.143-.086.184-.23.147l.128-.723-.029-.005-.172.749-.226-.022.394-1.379zM11 13.461c.019-.075.037-.169.066-.258.041-.123.101-.237.254-.239.283-.004.567-.01.851-.002.155.004.246.092.263.257.009.082.05.161.08.253-.41-.018-.838-.039-1.266-.053-.075-.002-.152.025-.248.042zM13.99 13.679c.073.026.143.066.218.077.443.072.887.131 1.329.21.107.019.205.087.309.131a.528.528 0 0 0 .149.052c.579.045 1.157.086 1.736.127.027.002.062.01.08-.003.197-.145.42-.093.636-.089.701.014 1.402.03 2.102.048.134.003.269.02.398.03-.033-.107-.114-.148-.239-.151-.777-.022-1.555-.031-2.331-.082-.977-.066-1.951-.162-2.925-.252-.436-.04-.87-.097-1.305-.145a1.153 1.153 0 0 0-.144 0c-.005.014-.009.031-.013.047z"/><path d="M12.189 15.987c-.01-.175-.126-.252-.25-.285a12.43 12.43 0 0 0-1.004-.226c-.236-.042-.479-.048-.718-.073a.995.995 0 0 1-.151-.042v.53l2.123.096zM9.8 15.882v-.513H8.292c-.017.243.104.418.371.447.373.039.749.046 1.137.067zM10.015 16.747c.022.263.022.259.243.266.569.017 1.137.037 1.706.056.059.002.118 0 .184 0v-.263l-2.133-.059zM8.205 16.624c.093.255.182.329.474.332.436.006.872 0 1.299 0-.066-.113-.151-.234-.364-.225a9.748 9.748 0 0 1-.982-.023c-.146-.008-.29-.055-.426-.083zM17.294 15.417c.019-.162-.078-.164-.175-.172-.392-.031-.783-.073-1.175-.092-.286-.014-.467-.155-.583-.403l-.043-.089c-.003.357.157.591.449.624.503.056 1.01.089 1.527.132zM8.204 13.939c.092-.015.184-.043.276-.044.47-.004.94 0 1.41-.004.054 0 .107-.033.16-.048l-.013-.073h-.865c-.235 0-.47.006-.705-.008-.151-.008-.244.032-.263.177zM10.282 13.898c.475 0 .951-.007 1.426.003.206.005.412.044.643.071-.083-.081-.15-.172-.272-.174a119.01 119.01 0 0 0-1.69-.009c-.041 0-.083.033-.124.053l.018.056zM10.757 14.263c-.027-.008-.056-.008-.066-.022-.147-.193-.305-.082-.45-.006-.041.022-.085.133-.066.16.044.064.125.104.193.149.103.066.149-.021.219-.072s.197-.054.169-.209zM12.58 14.823c.164-.149.325-.284.467-.437.033-.037 0-.137-.003-.208-.051.016-.111.02-.152.051-.105.078-.197.169-.3.25-.126.102-.105.208-.012.344zM12.81 13.423c-.011-.107.004-.226-.039-.318-.189-.398-.429-.769-.774-1.044-.13-.104-.329-.131-.503-.164-.143-.026-.294-.005-.441.005.179.017.365.01.535.057.157.043.338.11.438.226.24.28.447.591.65.9.062.094.069.224.102.337h.032zM8.225 14.333c.07.013.118.008.129.026.15.232.289.056.425-.014.019-.013.035-.031.048-.05s.021-.042.024-.065c.003-.019-.053-.049-.082-.073a.313.313 0 0 1-.07-.056c-.061-.089-.129-.082-.211-.031-.052.033-.121.046-.164.087s-.06.104-.099.175zm.519-.09.002.021h-.41l-.002-.021h.411zM17.439 16.627c.038.003.083.02.113.005.1-.049.195-.11.291-.166-.048-.075-.084-.161-.145-.223a.67.67 0 0 0-.526-.219c-.24.007-.481-.021-.721-.027-.135-.003-.164.046-.114.173.082.206.19.37.451.379.217.008.433.054.65.083v-.006zm-.347-.543.158.179c-.049.033-.109.102-.144.091-.059-.019-.101-.088-.15-.136l.136-.134zm.554.379-.007.048-.383-.019.144-.197.247.168zm-1.069-.132c-.046-.064-.081-.101-.099-.145-.004-.012.062-.071.081-.066a.21.21 0 0 1 .108.091c.008.016-.047.065-.091.121l.001-.001zM21.748 16.127c-.35.143-.385.201-.323.517.208-.004.358-.238.323-.517zM7.65 14.262c-.094-.308-.12-.323-.407-.315-.548.016-1.096.031-1.643.044-.059 0-.117-.021-.175-.018-.035.002-.069.031-.104.048l.011.046c.056.004.112.013.169.012.465-.008.931-.01 1.396-.031.279-.012.536.017.754.215zM14.824 17.378c-.094-.289-.289-.472-.586-.531s-.524.062-.703.288c-.282.355-.278.91.002 1.265.304.384.822.404 1.132.027.258-.314.318-.672.15-1.054l-.094.32c0 .102.235.144.084.317h-.159c-.072.139.128.317-.076.436l-.199-.241c-.059.114-.096.213-.158.293-.03.038-.108.038-.164.056-.009-.046-.033-.094-.024-.138.016-.093.048-.184.086-.32-.113.052-.182.095-.257.113-.051.012-.132.009-.164-.023-.064-.063-.028-.124.046-.17s.142-.105.238-.177c-.108-.056-.177-.099-.251-.128-.141-.055-.15-.138-.068-.251l.38.042c-.076-.131-.141-.218-.179-.315-.015-.039.015-.111.048-.146.017-.018.099-.002.128.025.082.075.15.162.242.265l.055-.351c.327.026.122.296.209.402h.285zm-1.072-.317c-.313.512-.329.999.102 1.454-.494-.163-.595-1.043-.102-1.454h-.001zM18.552 14.545h.611l.003-.036h-.611l-.003.036zM20.741 14.546h-.552l-.005.041.548.031.008-.072zM19.957 14.524h-.559l-.002.041h.559l.002-.041zM6.793 18.081l-.134-.204-.122.316c-.142-.141 0-.275-.041-.403l-.172.104c-.089-.09-.051-.161.023-.226.089-.077.08-.134-.014-.207-.052-.04-.076-.118-.136-.219l.24.016c.054-.131-.162-.255-.002-.406l.16.254.044-.256c.085.041.085.041.111.327l.183-.064c-.103-.131-.178-.263-.288-.355s-.261-.055-.333.06a1.649 1.649 0 0 0-.207.489c-.059.259-.015.532.123.759.155.266.386.268.563.014zm-.461-.005c-.241-.282-.253-.828-.025-1.141-.142.383-.158.763.023 1.141h.002z"/><path d="M6.81 17.629c-.085-.023-.158-.02-.183-.053-.086-.114-.042-.245.099-.322-.015-.011-.03-.033-.041-.03-.058.012-.162.024-.164.047a1.63 1.63 0 0 0-.003.407c.006.041.114.112.14.099.067-.033.114-.104.153-.147zM6.946 17.662c-.201.056-.146.174-.082.296l.082-.296zM19.097 15.147l-.18-.095.057-.095-.24.055c.045.046-.125.06-.015.137.045.033.03.15.044.248.175.043.232-.12.334-.25zM21.302 15.374c.118-.033.121-.038.084-.137a.08.08 0 0 1 0-.053c.066-.139-.033-.158-.139-.17l.047.045c-.044.025-.099.039-.117.073-.014.026.013.082.035.116a.576.576 0 0 0 .088.09l.003.035zM12.322 13.29c0-.197-.039-.244-.22-.247-.24-.004-.48-.012-.72-.002-.074.003-.145.062-.207.123.2-.133.406-.036.601-.011.181.024.358.088.546.137zM14.636 17.883c-.099.012-.217.063-.266.025a.366.366 0 0 1-.11-.263c.004-.131.126-.143.261-.131-.124-.117-.242-.119-.364-.054-.127.068-.174.238-.12.407.051.157.197.269.345.251.156-.018.237-.115.252-.235zM3.161 7.428h-.596l.671-2.034h.755l.671 2.034h-.596l-.445-1.474h-.016L3.16 7.428zm-.111-.803h1.12v.413H3.05v-.413zM4.858 7.428V5.394h.882c.155 0 .285.021.39.063s.186.101.239.177a.453.453 0 0 1 .081.269.429.429 0 0 1-.187.36.533.533 0 0 1-.207.085v.02c.087.003.167.026.238.067a.467.467 0 0 1 .235.418c0 .111-.029.21-.087.297s-.14.155-.246.205-.234.074-.381.074h-.957zm.553-.441h.258c.093 0 .162-.017.209-.052s.07-.087.07-.155c0-.048-.011-.088-.033-.121s-.053-.058-.093-.075a.367.367 0 0 0-.144-.026h-.266v.429zm0-.771h.226c.048 0 .091-.008.128-.023s.066-.037.086-.066a.178.178 0 0 0 .032-.106c0-.063-.023-.111-.068-.144s-.102-.051-.171-.051H5.41v.389zM6.671 5.839v-.445h1.768v.445h-.612v1.589h-.544V5.839h-.612zM10.521 6.411c0 .226-.044.418-.132.573s-.207.272-.357.353c-.15.079-.316.119-.501.119s-.353-.04-.502-.12-.267-.199-.356-.354a1.156 1.156 0 0 1-.131-.571c0-.226.044-.417.131-.572s.207-.273.356-.353c.15-.08.317-.12.502-.12.184 0 .351.04.501.12s.268.197.357.353c.088.155.132.346.132.572zm-.568 0c0-.122-.016-.224-.049-.308s-.079-.148-.142-.191c-.062-.044-.139-.066-.23-.066s-.168.022-.231.066c-.062.043-.11.107-.142.191s-.048.186-.048.308.016.225.048.309.08.147.142.191c.063.043.14.065.231.065s.168-.022.23-.065c.063-.044.11-.107.142-.191s.049-.187.049-.309zM12.457 7.428h-.552V5.835h-.195c-.064 0-.12.009-.166.027s-.082.044-.107.081c-.024.036-.037.084-.037.142s.012.104.037.14c.025.036.061.062.107.078s.102.024.166.024h.413v.429h-.524c-.154 0-.29-.026-.406-.076s-.207-.127-.272-.226a.67.67 0 0 1-.096-.368c0-.144.031-.268.094-.371s.151-.182.264-.237a.901.901 0 0 1 .396-.082h.878V7.43zm-1.192-.934h.588l-.497.934h-.6l.508-.934zM12.719 7.428V5.394h.552v.794h.731v-.794h.552v2.034h-.552v-.795h-.731v.795h-.552zM16.246 5.394v.445h-.878v1.589h-.552V5.394h1.43zM18.327 6.411c0 .226-.044.418-.132.573s-.207.272-.357.353c-.15.079-.317.119-.501.119-.185 0-.353-.04-.503-.12s-.267-.199-.356-.354a1.156 1.156 0 0 1-.131-.571c0-.226.044-.417.131-.572s.207-.273.356-.353c.15-.08.317-.12.503-.12.184 0 .351.04.501.12s.268.197.357.353c.088.155.132.346.132.572zm-.568 0c0-.122-.016-.224-.049-.308s-.079-.148-.142-.191c-.062-.044-.139-.066-.23-.066s-.169.022-.231.066c-.062.043-.11.107-.142.191s-.048.186-.048.308.016.225.048.309.08.147.142.191c.063.043.14.065.231.065s.168-.022.23-.065c.063-.044.11-.107.142-.191s.049-.187.049-.309zM18.515 7.428v-.425l.056-.008c.068-.011.123-.04.168-.087s.079-.125.103-.229c.024-.105.04-.249.047-.43l.032-.854h1.474v2.034h-.532V5.824h-.433l-.032.64c-.012.237-.044.426-.095.567s-.13.243-.235.305a.814.814 0 0 1-.416.093h-.135zM20.655 5.394h.552v1.065h.016l.723-1.065h.469v2.034h-.552V6.359h-.012l-.735 1.069h-.461V5.394zM3.031 20.374l.269.477h.013l.272-.477h.496l-.489.819.508.819h-.508l-.278-.486h-.013l-.278.486h-.505l.502-.819-.486-.819h.499zM4.272 20.374h.553l.381.927h.019l.381-.927h.553v1.637h-.435v-.947h-.013l-.365.934h-.262l-.365-.94h-.013v.953h-.435v-1.637zM6.369 22.011v-1.637h1.18v.358h-.736v.281h.675v.358h-.675v.281h.732v.358H6.368zM7.716 22.011v-.342l.045-.006c.054-.008.099-.032.135-.07s.064-.1.083-.185c.02-.085.032-.2.038-.346l.026-.688h1.186v1.637H8.8v-1.292h-.349l-.026.515c-.01.191-.035.343-.077.456s-.105.195-.189.246a.654.654 0 0 1-.335.075h-.109zM9.72 20.924h.339c.138 0 .259.022.361.066s.184.107.241.187a.473.473 0 0 1 .086.284c.001.109-.028.204-.086.287s-.137.147-.241.193a.877.877 0 0 1-.361.069h-.611v-1.637h.444v1.289h.166c.054 0 .099-.009.135-.026a.191.191 0 0 0 .111-.179c.001-.056-.02-.102-.062-.139s-.103-.056-.184-.056h-.339v-.339zM11 22.011v-1.637h.444v.64h.588v-.64h.445v1.637h-.445v-.64h-.588v.64H11zM12.688 20.374h.444v.857h.013l.582-.857h.377v1.637h-.445v-.86h-.01l-.592.86h-.371v-1.637zM16.017 21.675l-.019.723h-.413v-.387h-.115v-.336h.547zm-1.702.336v-1.637h.429v1.295h.572v-1.295h.435v1.637h-1.436zM16.448 20.924h.339c.138 0 .259.022.361.066s.184.107.241.187c.058.081.086.175.086.284s-.028.204-.086.287c-.057.082-.137.147-.241.193s-.223.069-.361.069h-.611v-1.637h.445v1.289h.166c.054 0 .099-.009.135-.026a.191.191 0 0 0 .111-.179c.001-.056-.02-.102-.062-.139s-.103-.056-.184-.056h-.339v-.339zM18.736 22.011l-.502-.662h-.062v.662h-.445v-1.637h.445v.617h.058l.47-.617h.559l-.624.787.659.851h-.558zM19.414 20.374h.445v.857h.013l.582-.857h.377v1.637h-.444v-.86h-.01l-.592.86h-.371v-1.637zM21.041 20.373h.444v.857h.013l.582-.857h.377v1.638h-.444v-.86h-.009l-.592.86h-.371v-1.638zm.87-.441h.278c0 .104-.04.187-.119.249s-.185.093-.319.093c-.135 0-.242-.031-.321-.093s-.118-.145-.117-.249h.275c0 .034.011.065.036.093s.068.042.127.042c.057 0 .098-.014.122-.041s.037-.058.037-.094z"/></symbol><symbol id="icon-toggle-down" viewBox="0 0 32 32"><path d="M3.292 9.292a.998.998 0 0 1 1.416 0L16 20.586 27.292 9.292a1 1 0 1 1 1.416 1.416l-12 12a.998.998 0 0 1-1.416 0l-12-12a.998.998 0 0 1 0-1.416z"/></symbol></defs></svg>