<svg aria-hidden="true" style="width:0;height:0;position:absolute;overflow:hidden" xmlns="http://www.w3.org/2000/svg"><defs><symbol id="icon-up" viewBox="0 0 31 32"><path fill="none" stroke="#fff" style="stroke:var(--color1,#fff)" stroke-width="2.56" d="m21.76 16-6.4-6.4-6.4 6.4m6.4 7.68zm0 6.4c7.776 0 14.08-6.304 14.08-14.08S23.136 1.92 15.36 1.92 1.28 8.224 1.28 16s6.304 14.08 14.08 14.08z"/></symbol><symbol id="icon-down" viewBox="0 0 32 32"><path fill="none" stroke="#fff" style="stroke:var(--color1,#fff)" stroke-width="2.667" d="M9.333 16 16 22.667 22.667 16M16 8zm0-6.667C7.9 1.333 1.333 7.9 1.333 16S7.9 30.667 16 30.667 30.667 24.1 30.667 16 24.1 1.333 16 1.333z"/></symbol><symbol id="icon-en" viewBox="0 0 34 32"><path fill="#fff" style="fill:var(--color1,#fff)" d="M0 0h33.882v32H0V0z"/><path fill="#d22f27" style="fill:var(--color2,#d22f27)" d="M0 0h33.882v4.211H0V0zm0 7.578h33.882v3.369H0V7.578zm0 6.739h33.882v3.368H0v-3.369z"/><path fill="#1e50a0" style="fill:var(--color3,#1e50a0)" d="M0 0h17.487v17.685H0V0z"/><path fill="#d22f27" style="fill:var(--color2,#d22f27)" d="M0 21.052h33.882v3.369H0v-3.369z"/><path fill="#fff" style="fill:var(--color1,#fff)" d="M2.351 5.052a.845.845 0 1 0-.003-1.684h.003a.843.843 0 1 0 0 1.684zm4.371 0a.845.845 0 1 0-.003-1.684h.003a.844.844 0 0 0-.847.841c0 .467.38.843.847.843zm4.371 0a.845.845 0 1 0-.003-1.684h.003a.844.844 0 0 0-.847.841c0 .467.38.843.847.843zm4.372 0a.845.845 0 1 0-.003-1.684h.003a.843.843 0 1 0 0 1.684zM13.28 8.42a.845.845 0 1 0-.003-1.684h.003a.844.844 0 0 0-.847.841c0 .467.38.843.847.843zm-4.371 0a.845.845 0 1 0-.003-1.684h.003a.844.844 0 0 0-.847.841c0 .467.38.843.847.843zm-4.374 0a.845.845 0 1 0-.003-1.684h.003a.843.843 0 1 0 0 1.684zm-2.184 3.371a.844.844 0 0 0 .847-.841.845.845 0 0 0-.845-.843h-.002a.845.845 0 1 0 .003 1.684h-.003zm4.371 0a.843.843 0 1 0 .002-1.684h-.002a.845.845 0 1 0 .003 1.684h-.003zm4.371 0a.843.843 0 1 0 .002-1.684h-.002a.845.845 0 1 0 .003 1.684h-.003zm4.372 0a.844.844 0 0 0 .847-.841.845.845 0 0 0-.845-.843h-.002a.845.845 0 1 0 .003 1.684h-.003zm-2.185 3.368a.843.843 0 1 0 .002-1.684h-.002a.845.845 0 1 0 .003 1.684h-.003zm-4.371 0a.843.843 0 1 0 .002-1.684h-.002a.845.845 0 1 0 .003 1.684h-.003zm-4.374 0a.843.843 0 1 0 .002-1.684h-.002a.845.845 0 1 0 .003 1.684h-.003z"/><path fill="#d22f27" style="fill:var(--color2,#d22f27)" d="M0 27.791h33.882V32H0v-4.209z"/></symbol><symbol id="icon-facebook" viewBox="0 0 31 32"><path stroke-linejoin="round" stroke-linecap="round" stroke-width="2.56" d="M23.04 3.2H19.2a6.4 6.4 0 0 0-6.4 6.4v3.84H8.96v5.12h3.84V28.8h5.12V18.56h3.84l1.28-5.12h-5.12V9.6c0-.707.573-1.28 1.28-1.28h3.84V3.2z"/></symbol><symbol id="icon-insta" viewBox="0 0 32 32"><path fill="currentColor" stroke="#fff" style="stroke:var(--color4,white)" stroke-linejoin="round" stroke-linecap="round" stroke-width="2.667" d="M22.667 2.667H9.334a6.667 6.667 0 0 0-6.667 6.667v13.333a6.667 6.667 0 0 0 6.667 6.667v0h13.333a6.667 6.667 0 0 0 6.667-6.667v0V9.334a6.667 6.667 0 0 0-6.667-6.667v0z"/><path fill="currentColor" stroke="#fff" style="stroke:var(--color4,white)" stroke-linejoin="round" stroke-linecap="round" stroke-width="2.667" d="M21.333 15.16a5.334 5.334 0 0 1-10.548 1.594l-.004-.03a5.334 5.334 0 0 1 10.548-1.594l.004.03zm2-6.493h.013"/></symbol><symbol id="icon-ua" viewBox="0 0 34 32"><path fill="#61b2e4" style="fill:var(--color5,#61b2e4)" d="M0 0h33.882v32H0V0z"/><path fill="#fcea2b" style="fill:var(--color6,#fcea2b)" d="M0 16h33.882v16H0V16z"/></symbol><symbol id="icon-left" viewBox="0 0 32 32"><path fill="#262626" stroke="#fff" style="stroke:var(--color1,white)" stroke-width="2.667" d="M16 9.333 9.333 16 16 22.667M24 16zm6.667 0C30.667 7.9 24.1 1.333 16 1.333S1.333 7.9 1.333 16 7.9 30.667 16 30.667 30.667 24.1 30.667 16z"/></symbol><symbol id="icon-right" viewBox="0 0 32 32"><path fill="#262626" stroke="#fff" style="stroke:var(--color2,white)" stroke-width="2.667" d="M16 22.667 22.667 16 16 9.333M8 16zm-6.667 0C1.333 24.1 7.9 30.667 16 30.667S30.667 24.1 30.667 16 24.1 1.333 16 1.333 1.333 7.9 1.333 16z"/></symbol></defs></svg>