<svg aria-hidden="true" style="width:0;height:0;position:absolute;overflow:hidden" xmlns="http://www.w3.org/2000/svg"><defs><symbol id="icon-arrow-up" viewBox="0 0 31 32"><path stroke-width="2.56" d="m21.76 16-6.4-6.4-6.4 6.4m6.4 7.68zm0 6.4c7.776 0 14.08-6.304 14.08-14.08S23.136 1.92 15.36 1.92 1.28 8.224 1.28 16s6.304 14.08 14.08 14.08z"/></symbol><symbol id="icon-arrow-down" viewBox="0 0 32 32"><path stroke-width="2.667" d="M9.333 16 16 22.667 22.667 16M16 8zm0-6.667C7.9 1.333 1.333 7.899 1.333 16S7.899 30.667 16 30.667c8.1 0 14.667-6.567 14.667-14.667S24.1 1.333 16 1.333z"/></symbol><symbol id="icon-en" viewBox="0 0 34 32"><path fill="#fff" style="fill:var(--color1,#fff)" d="M0 0h33.882v32H0V0z"/><path fill="#d22f27" style="fill:var(--color2,#d22f27)" d="M0 0h33.882v4.211H0V0zm0 7.579h33.882v3.368H0V7.579zm0 6.737h33.882v3.368H0v-3.368z"/><path fill="#1e50a0" style="fill:var(--color3,#1e50a0)" d="M0 0h17.488v17.684H0V0z"/><path fill="#d22f27" style="fill:var(--color2,#d22f27)" d="M0 21.051h33.882v3.368H0v-3.368z"/><path fill="#fff" style="fill:var(--color1,#fff)" d="M2.351 5.052c.468 0 .847-.377.847-.842s-.379-.842-.847-.842c-.468 0-.847.377-.847.842s.379.842.847.842zM6.722 5.052c.468 0 .847-.377.847-.842s-.379-.842-.847-.842c-.468 0-.847.377-.847.842s.379.842.847.842zM11.093 5.052c.468 0 .847-.377.847-.842s-.379-.842-.847-.842c-.468 0-.847.377-.847.842s.379.842.847.842zM15.465 5.052c.468 0 .847-.377.847-.842s-.379-.842-.847-.842c-.468 0-.847.377-.847.842s.379.842.847.842zM13.281 8.419c.468 0 .847-.377.847-.842s-.379-.842-.847-.842c-.468 0-.847.377-.847.842s.379.842.847.842zM8.91 8.419c.468 0 .847-.377.847-.842s-.379-.842-.847-.842c-.468 0-.847.377-.847.842s.379.842.847.842zM4.535 8.419c.468 0 .847-.377.847-.842s-.379-.842-.847-.842c-.468 0-.847.377-.847.842s.379.842.847.842zM2.351 11.791c.468 0 .847-.377.847-.842s-.379-.842-.847-.842c-.468 0-.847.377-.847.842s.379.842.847.842zM6.722 11.791c.468 0 .847-.377.847-.842s-.379-.842-.847-.842c-.468 0-.847.377-.847.842s.379.842.847.842zM11.093 11.791c.468 0 .847-.377.847-.842s-.379-.842-.847-.842c-.468 0-.847.377-.847.842s.379.842.847.842zM15.465 11.791c.468 0 .847-.377.847-.842s-.379-.842-.847-.842c-.468 0-.847.377-.847.842s.379.842.847.842zM13.281 15.158c.468 0 .847-.377.847-.842s-.379-.842-.847-.842c-.468 0-.847.377-.847.842s.379.842.847.842zM8.91 15.158c.468 0 .847-.377.847-.842s-.379-.842-.847-.842c-.468 0-.847.377-.847.842s.379.842.847.842zM4.535 15.158c.468 0 .847-.377.847-.842s-.379-.842-.847-.842c-.468 0-.847.377-.847.842s.379.842.847.842z"/><path fill="#d22f27" style="fill:var(--color2,#d22f27)" d="M0 27.791h33.882v4.21H0v-4.21z"/></symbol><symbol id="icon-facebook" viewBox="0 0 31 32"><path stroke-linejoin="round" stroke-linecap="round" stroke-width="2.56" d="M23.04 3.2H19.2a6.402 6.402 0 0 0-6.4 6.4v3.84H8.96v5.12h3.84V28.8h5.12V18.56h3.84l1.28-5.12h-5.12V9.6a1.28 1.28 0 0 1 1.28-1.28h3.84V3.2z"/></symbol><symbol id="icon-insta" viewBox="0 0 31 32"><path stroke-linejoin="round" stroke-linecap="round" stroke-width="2.56" d="M21.76 3.2H8.96a6.4 6.4 0 0 0-6.4 6.4v12.8a6.4 6.4 0 0 0 6.4 6.4h12.8a6.4 6.4 0 0 0 6.4-6.4V9.6a6.4 6.4 0 0 0-6.4-6.4z"/><path stroke-linejoin="round" stroke-linecap="round" stroke-width="2.56" d="M20.48 15.194a5.12 5.12 0 1 1-10.127 1.502 5.12 5.12 0 0 1 10.126-1.502zM22.4 8.96h.013"/></symbol><symbol id="icon-ua" viewBox="0 0 34 32"><path fill="#61b2e4" style="fill:var(--color4,#61b2e4)" d="M0 0h33.882v32H0V0z"/><path fill="#fcea2b" style="fill:var(--color5,#fcea2b)" d="M0 16h33.882v16H0V16z"/></symbol></defs></svg>