<svg width="68" height="87" fill="none" xmlns="http://www.w3.org/2000/svg"><g clip-path="url('#clip0_514_6567')" fill="#262626"><path fill-rule="evenodd" clip-rule="evenodd" d="M34 3.443 3.347 8.85H0V6.042L34 .043l34 6V8.85h-3.347L34 3.443Zm0 79.778s-.616-.32-1.674-.904C25.924 78.781 3.347 65.543 3.347 54.712V8.852H0v45.86c0 4.42 2.613 8.57 5.625 11.992 3.107 3.53 7.162 6.865 11.086 9.707 3.945 2.857 7.873 5.296 10.805 7.018 1.47.861 2.696 1.548 3.559 2.02.432.237.773.42 1.009.546l.137.073.135.071.023.012.051.027.02.01.006.003.002.002c.001 0 .002 0 1.542-2.972Zm0 0s.616-.32 1.674-.904c6.401-3.536 28.979-16.774 28.979-27.605V8.852H68v45.86c0 4.42-2.613 8.57-5.625 11.992-3.107 3.53-7.162 6.865-11.086 9.707-3.945 2.857-7.873 5.296-10.805 7.018-1.47.861-2.696 1.548-3.559 2.02-.432.237-.773.42-1.009.546l-.216.115c-.021.01-.04.02-.056.03l-.051.026-.023.012-.02.01-.006.003-.002.002c-.001 0-.002 0-1.542-2.972Zm-1.54 2.972L34 83.221l1.54 2.972-1.54.798-1.54-.798Z"/><path d="M35.858 31.723c-.214-.097-.44-.171-.646-.284a9.288 9.288 0 0 1-.15-.084l-.004-.001a4.626 4.626 0 0 1-.586-.387h-.002a2.137 2.137 0 0 1-.165-.146c-.184-.181-.278-.356-.273-.53l.455.166a.07.07 0 1 0 .048-.131l-.537-.195c-.251-.1-.494-.343-.621-.575a.804.804 0 0 1-.072-.172v-.004a.36.36 0 0 1-.014-.12.144.144 0 0 1 .03-.084.136.136 0 0 1 .056-.038c.214.161.47.228.744.245a.07.07 0 1 0 .008-.139c-.268-.017-.504-.084-.694-.238l-.002-.001a1.72 1.72 0 0 1-.477-.56.601.601 0 0 1-.063-.214v-.003a.335.335 0 0 1 0-.047.233.233 0 0 1 .07-.153c.283.195.583.274.883.316a.07.07 0 1 0 .02-.139c-.304-.042-.594-.122-.865-.32v-.002c-.21-.15-.348-.302-.423-.457a.684.684 0 0 1-.06-.407c.393.186.808.314 1.24.39a.07.07 0 1 0 .025-.137 4.713 4.713 0 0 1-1.283-.417 58.255 58.255 0 0 0-.173-.096c-.522-.29-1.037-.576-1.453-.921-.421-.35-.734-.756-.844-1.281.832.49 1.775.85 2.709 1.205.378.144.755.288 1.122.439.809.334 1.43.879 1.503 1.688.136 1.514 1.13 3.405 3.5 3.898-.63-.045-3.006-.064-3.006-.064Z"/><path d="M30.785 25.944c-.35-.29-.635-.624-.796-1.036a.07.07 0 0 1-.042-.007 33.823 33.823 0 0 0-1.206-.589c-1.006-.474-1.955-.922-2.959-1.738.023.462.328.886.674 1.326 1.074 1.058 2.404 1.734 3.92 2.28a.07.07 0 0 1-.048.132c-1.52-.549-2.87-1.231-3.963-2.305a2.388 2.388 0 0 1-.634-.37c.066.613.488 1.201 1.079 1.787 1.178.98 2.642 1.509 3.84 1.94l.056.021a1.149 1.149 0 0 1-.011-.127.07.07 0 0 1 .105-.063c.336.197.54.29.82.418l.324.15c.329.155.499.228.667.3l.148.064a.369.369 0 0 1 .09-.184 1.32 1.32 0 0 1-.397-.459.829.829 0 0 1-.065-.534l-.129-.071c-.52-.289-1.047-.581-1.473-.935Z"/><path d="M30.597 27.496c-1.192-.43-2.675-.964-3.872-1.96a3.759 3.759 0 0 1-.715-.44c.162.776.67 1.256 1.196 1.752l.124.117c1.192.841 2.417 1.195 3.661 1.554l.045.013a3.63 3.63 0 0 1-.059-.163.07.07 0 0 1 .11-.077c.071.056.152.107.236.15-.29-.298-.495-.59-.582-.894l-.144-.052Z"/><path d="M30.948 28.652c-1.24-.358-2.484-.717-3.695-1.57a3.16 3.16 0 0 1-.94-.516c.125.592.6 1.008 1.099 1.444l.033.03c1.205.857 2.527 1.216 3.579 1.502.187.05.366.1.534.148.18.047.335.082.464.106a3.332 3.332 0 0 1-.46-.4 2.51 2.51 0 0 1-.457-.699l-.156-.045h-.001Z"/><path d="M30.992 29.677c-1.049-.284-2.394-.65-3.62-1.518a1.549 1.549 0 0 1-.573-.259c.166.655.594 1.106 1.075 1.535.489.384 1.194.647 1.982.84.786.193 1.645.315 2.437.422l.065.003c-.396-.198-.658-.547-.864-.883a35.15 35.15 0 0 0-.502-.14Z"/><path d="M29.822 30.412c-.785-.193-1.508-.458-2.02-.854a1.12 1.12 0 0 1-.289-.077 3.03 3.03 0 0 1-.194-.085c.26.623.677 1.072 1.29 1.312 1.767.594 3.09.697 4.221.696a1.428 1.428 0 0 1-.148-.093 1.72 1.72 0 0 1-.438-.478c-.783-.106-1.637-.228-2.422-.42Z"/><path d="M32.958 31.543c-1.168.009-2.537-.08-4.382-.7l-.099.006c.283.52.848.888 1.607 1.155.829-.218 2.015-.314 3.107-.064a.732.732 0 0 1-.218-.25.216.216 0 0 1-.015-.147ZM33.16 31.406c.556.159 1.12.171 1.697-.008-.166-.1-.319-.2-.451-.304-.697.06-1.16-.058-1.815-.297a.389.389 0 0 1-.173.043c.122.171.236.28.346.358.114.082.225.132.344.185l.051.023Z"/><path d="M32.607 30.652c.616.227 1.044.343 1.646.31a2.124 2.124 0 0 1-.046-.043 1.126 1.126 0 0 1-.271-.385 7.24 7.24 0 0 1-1.675-.566 3.483 3.483 0 0 1-.57-.1c.223.338.5.647.914.784h.002ZM32.316 29.84a7.052 7.052 0 0 0 1.58.543.595.595 0 0 1 0-.145 1.506 1.506 0 0 1-.642-.616.996.996 0 0 1-.073-.168c-.58-.185-1.133-.413-1.593-.758a1.635 1.635 0 0 1-.404-.17c.14.345.305.587.48.775.174.186.358.322.544.458l.108.08ZM31.663 28.578c.425.32.937.54 1.488.72v-.052a.285.285 0 0 1 .063-.16.258.258 0 0 1 .047-.044 1.792 1.792 0 0 1-.43-.537.79.79 0 0 1-.073-.224 22.474 22.474 0 0 0-.2-.087 18.057 18.057 0 0 1-.673-.303 29.3 29.3 0 0 0-.32-.148c-.248-.114-.441-.202-.718-.358.064.387.35.765.816 1.193ZM25.642 32.444c-.37-.053-.749-.064-1.114-.144l-.268-.06-.005-.002a7.38 7.38 0 0 1-1.07-.327l-.003-.002a3.391 3.391 0 0 1-.317-.147c-.362-.195-.585-.42-.655-.687l.77.048a.111.111 0 1 0 .014-.222l-.908-.057c-.428-.039-.91-.302-1.207-.6a1.285 1.285 0 0 1-.19-.237.577.577 0 0 1-.074-.178.23.23 0 0 1 .01-.141.218.218 0 0 1 .066-.084c.4.15.822.14 1.248.043a.111.111 0 1 0-.05-.217c-.418.094-.809.097-1.168-.053l-.003-.001c-.366-.145-.746-.382-.98-.642a.958.958 0 0 1-.193-.3l-.002-.003a.546.546 0 0 1-.02-.072.372.372 0 0 1 .038-.265c.52.17 1.015.156 1.491.086a.111.111 0 1 0-.032-.22c-.483.07-.962.08-1.465-.104h-.001c-.388-.135-.667-.307-.85-.511a1.09 1.09 0 0 1-.276-.595 7.774 7.774 0 0 0 2.072.04.111.111 0 1 0-.024-.22c-.724.08-1.44.064-2.149-.062l-.307-.07c-.928-.209-1.844-.415-2.633-.756-.8-.346-1.46-.827-1.865-1.58 1.492.377 3.095.503 4.681.628.643.05 1.283.101 1.912.168 1.386.147 2.58.703 3.054 1.906.887 2.255 3.057 5.056 6.595 4.892-.985.214-4.122.748-4.122.748Z"/><path d="M15.298 25.886c-.663-.287-1.25-.67-1.68-1.228a.11.11 0 0 1-.069.008c-.73-.144-1.426-.253-2.107-.36-1.75-.273-3.401-.532-5.302-1.33.242.697.898 1.207 1.624 1.726 2.117 1.135 4.453 1.572 7.015 1.73a.111.111 0 1 1-.014.221c-2.57-.157-4.938-.596-7.091-1.747a3.805 3.805 0 0 1-1.136-.282c.377.908 1.285 1.617 2.45 2.248 2.242.972 4.716 1.123 6.74 1.246l.096.006a1.83 1.83 0 0 1-.074-.19.111.111 0 0 1 .133-.142c.601.15.955.2 1.442.271.166.024.348.051.561.084a28.533 28.533 0 0 0 1.409.192.586.586 0 0 1 .055-.322c-.347-.136-.62-.31-.813-.524a1.32 1.32 0 0 1-.338-.787 65.223 65.223 0 0 0-.23-.052c-.924-.208-1.86-.418-2.67-.768Z"/><path d="M15.706 28.34c-2.015-.123-4.522-.275-6.798-1.26a5.979 5.979 0 0 1-1.29-.353c.596 1.114 1.588 1.62 2.614 2.142l.241.123c2.2.752 4.232.744 6.295.736h.074a5.945 5.945 0 0 1-.163-.225.111.111 0 0 1 .133-.166c.133.053.28.096.428.125-.575-.327-1.02-.68-1.29-1.107l-.244-.015Z"/><path d="M16.76 29.95c-2.054.009-4.118.017-6.352-.744a5.027 5.027 0 0 1-1.668-.366c.457.847 1.37 1.27 2.328 1.715l.063.03c2.227.77 4.41.726 6.145.691.309-.006.604-.012.883-.012.296-.01.55-.024.757-.046a5.32 5.32 0 0 1-.883-.405 3.999 3.999 0 0 1-1.011-.864l-.259.001h-.003Z"/><path d="M17.287 31.5c-1.73.034-3.95.08-6.212-.7a2.465 2.465 0 0 1-.994-.138c.547.926 1.404 1.424 2.331 1.865.92.367 2.116.453 3.406.396 1.289-.058 2.657-.256 3.916-.448.034-.007.068-.015.1-.024-.693-.126-1.251-.542-1.716-.964-.262.001-.54.007-.83.013Z"/><path d="M15.828 33.146c-1.286.057-2.51-.025-3.47-.4a1.777 1.777 0 0 1-.477.011 4.881 4.881 0 0 1-.335-.042c.677.835 1.515 1.335 2.561 1.427 2.966.116 5.035-.32 6.765-.828a2.328 2.328 0 0 1-.268-.075c-.264-.092-.548-.248-.884-.536-1.245.19-2.606.386-3.892.443Z"/><path d="M21.128 33.469c-1.781.536-3.913 1.014-7.01.895l-.15.053c.666.669 1.694.977 2.974 1.045 1.844-.079 3.352-.775 4.72-1.49-.19-.079-.35-.175-.443-.286a.344.344 0 0 1-.09-.217Z"/><path d="M21.954 34.07c-1.419.75-3.015 1.528-4.992 1.615l-.338.109c1.278.488 2.605.543 4.023-.094.76-.382 1.462-.853 2.046-1.514a3.298 3.298 0 0 1-.74-.116ZM23.497 33.854c.249-.59.395-.694.96-1.151-.285-.051.29-.128.024-.186a14.843 14.843 0 0 1-.225-.05c-.879.634-1.837.911-2.852.924-.041.033-.05.058-.052.07-.002.013 0 .04.037.082.076.09.248.19.49.272.03.01.06.02.092.029h.003c.47.139 1.082.18 1.523.01Z"/><path d="M21.375 33.169c.922-.007 1.79-.24 2.592-.773a7.05 7.05 0 0 1-.826-.263c-1.038.406-1.8.432-2.907.36a.617.617 0 0 1-.245.143c.263.207.486.322.688.392.212.075.404.1.61.129l.088.012Z"/><path d="M20.194 32.266c1.043.07 1.749.057 2.655-.262l-.089-.046a1.794 1.794 0 0 1-.588-.468c-.935.07-1.873.045-2.814-.115a5.56 5.56 0 0 1-.916.102c.491.417 1.056.766 1.748.79h.004ZM19.384 31.154c.887.151 1.774.181 2.66.122a.948.948 0 0 1-.066-.221c-.465-.07-.95-.347-1.257-.655a1.59 1.59 0 0 1-.187-.223c-.97-.023-1.917-.125-2.775-.444a2.601 2.601 0 0 1-.694-.08c.368.466.73.76 1.081.97.35.207.692.331 1.037.457l.201.074ZM17.821 29.517c.793.298 1.674.405 2.597.433a.659.659 0 0 1-.022-.078.419.419 0 0 1 .075-.36c-.337-.156-.672-.38-.898-.63a1.254 1.254 0 0 1-.212-.31l-.344-.043c-.29-.035-.59-.071-1.165-.162a47.564 47.564 0 0 0-.554-.082 13.433 13.433 0 0 1-1.259-.226c.27.563.879 1.012 1.782 1.458ZM18.845 51.798c1.818.01 2.205-.256 2.88-1.966.295-.751.536-.912 1.34-.886.595.019 1.19.049 1.787.078a.508.508 0 0 1 .256.05c.703.51 1.378.244 2.071-.034.256-.1.53-.141.805-.122.77.064 1.536.184 2.306.26.232.023.316.12.383.338.412 1.346 1.115 1.853 2.521 1.853.03.002.06.002.09 0 .827-.094 1.438.139 2.1.762 2.453 2.311 7.116 1.583 8.426-1.697.107-.268.268-.304.509-.303 1.564.007 3.128.012 4.69 0 .323 0 .499.094.669.375 1.692 2.8 6.133 3.177 8.168.7.984-1.194 1.096-2.592.924-4.057a.439.439 0 0 0-.019-.09c-.179-.485-.06-.836.363-1.177.817-.661.967-1.595.877-2.591a.378.378 0 0 0-.09-.243c-.524-.418-.41-1.01-.43-1.56-.01-.288-.017-.555-.294-.748-.11-.077-.149-.25-.233-.371-.5-.715-.968-1.46-1.52-2.133-.214-.26-.609-.447-.951-.51-1.827-.343-3.664-.64-5.496-.941-.269-.043-.477-.104-.6-.375-.224-.495-.678-.61-1.166-.697a1.968 1.968 0 0 1-.796-.322c-.792-.58-1.556-1.198-2.336-1.796-1.199-.92-2.537-1.403-4.06-1.55-3.918-.378-7.84-.626-11.772-.424-1.748.09-3.485.374-5.227.593-.792.1-1.32.58-1.616 1.31-.358.894-.727 1.787-1.057 2.7-.11.3-.252.397-.572.403-2.367.04-4.733.097-7.1.171-.179.005-.464.157-.518.307-.283.79-.597 1.587-.73 2.412-.154.95-.13 1.928-.186 2.894-.005.09 0 .197-.051.256-.642.776-.308 1.703-.388 2.562-.012.127.224.332.389.41.468.223.955.412 1.444.59.22.08.303.195.285.426-.018.23.013.447 0 .669-.02.369.117.605.466.775.157.075.275.311.33.5.179.624.268 1.282.502 1.885.343.88 1.003 1.384 2.005 1.321.204-.017.413-.007.622-.007Zm14.431-4.939c-.232 0-.496.01-.76 0-3.034-.133-6.068-.267-9.101-.404-.983-.043-1.376-.26-1.496-1.22a32.087 32.087 0 0 1-.227-4.175c.005-.987.07-2.013.347-2.948.43-1.449 1.072-2.833 1.609-4.25.248-.654.69-1.036 1.376-1.198 2.086-.49 4.208-.6 6.336-.658.901-.024 1.609.346 2.158 1.055.697.91 1.4 1.814 2.092 2.728.368.485.842.766 1.45.732.676-.037 1.35-.192 2.022-.179 2.382.05 4.762.142 7.142.23.82.032 1.639.104 2.566.163l-1.108-1.133c.692.464 1.286.88 1.899 1.263.223.14.472.234.731.279 2.011.331 4.022.648 6.038.961.676.106 1.03.569 1.3 1.17a2.462 2.462 0 0 1-.68-.16c-.15-.055-.296-.165-.447-.169a832.626 832.626 0 0 0-7.099-.163c-.23 0-.461.094-.692.143-.263.055-.53.166-.792.155-1.457-.06-2.912-.158-4.369-.223-.378-.016-.715-.02-.983-.371-.113-.148-.387-.205-.599-.243-.497-.09-1-.146-1.502-.211-1.122-.145-2.244-.288-3.365-.43.241.143.51.294.794.336 1.368.2 2.743.363 4.11.562.191.028.358.187.62.327-.561.203-1.116-.122-1.441.4.447-.136.665.06.784.446.268.873.836 1.304 1.77 1.34 1.099.043 2.195.164 3.29.264.147.013.364.066.412.166.141.294.215.626.324.964-1.91-.066-3.753-.145-5.598-.187-.641-.014-1.073-.172-1.476-.771-1.672-2.478-4.89-2.341-6.368.26-.402.708-.656 1.534-.816 2.338-.174.91-.171 1.853-.25 2.813v-.002Zm19.181-1.5c-.536 0-1.015.022-1.489 0-.773-.046-1.53-.027-2.296.16-.78.19-1.578.222-2.378-.026a232.589 232.589 0 0 0-6.025-1.787c-.536-.151-.818-.466-1.01-.944-.12-.297-.075-.407.267-.39 1.205.058 2.413.076 3.614.154 2.906.187 5.809.398 8.714.604.099.018.195.048.286.089.185.062.367.179.554.179 1.026.03 2.055.027 3.081.05.376.009.736.042 1.017-.3.075-.089.263-.113.402-.124.594-.043 1.206 0 1.778-.126.408-.094.54.062.596.351.249 1.278-.376 2.134-1.703 2.547l.039-.385H56.3v-.776h-3.843v.723Zm-37.544.273c-.337-.125-.536-.327-.524-.714.01-.342-.01-.685-.03-1.026-.028-.476.067-1.01-.447-1.144.197-.357.488-.667.537-1.015.107-.732.059-1.485.131-2.224.047-.467.03-.826-.536-.856.05-.883.286-1.119 1.103-1.132 1.175-.018 2.35-.038 3.525-.048 1.024-.008 2.05 0 3.088 0-.677 1.587-.396 3.316-.562 5.125-.144-.294-.204-.482-.315-.633-.415-.555-.77-1.187-1.286-1.629-1.102-.94-2.67-.693-3.454.525a5.798 5.798 0 0 0-.752 1.787c-.225.965-.32 1.958-.478 2.984Zm25.453-9.853c-.894.085-1.698.156-2.503.24-.903.095-1.608-.152-2.101-.99-.344-.585-.812-1.097-1.218-1.646a4.978 4.978 0 0 1-.268-.463h4.216v.082l-.938.114 2.812 2.663Zm.303 8.595.035-.082c.07 0 .138.005.206.018.954.28 1.9.596 2.865.837 1.462.366 2.884.958 4.439.844.007 0 .018.044.032.082l-.816.389.032.164c1.68-1.072 3.494-1 5.41-.794l-.64.804.447.244c-.574 0-1.065.009-1.554 0-1.399-.029-2.8-.023-4.194-.11-1.698-.103-3.207-.834-4.711-1.549-.531-.256-1.035-.564-1.55-.847Zm-4.94 3.958a3.227 3.227 0 0 1 .554-1.895c1.045-1.536 3.058-1.535 4.102 0 .773 1.139.741 2.753-.078 3.851-.986 1.331-2.715 1.407-3.806.17-.535-.603-.774-1.323-.773-2.126Zm14.673-5.924c-.672 0-1.266.021-1.855-.015a.624.624 0 0 1-.442-.305 13.975 13.975 0 0 1-.525-1.37c-.037-.104-.057-.273 0-.34.487-.581.972-1.26 1.801-1.257 2.352.013 4.704.096 7.056.165.426.012.673.33 1.013.657-.324-.05-.537-.115-.741-.103-.204.011-.413.147-.619.144a277.89 277.89 0 0 1-5.315-.102 2.78 2.78 0 0 1-.93-.225c-.473-.189-1.658.572-1.634 1.08.007.06.021.118.04.174.332 1.26.332 1.259 1.619 1.302.104-.006.209 0 .311.02.068.016.12.093.22.175Zm-34.26 5.225.123-.044c.015-.693.126-1.365.52-1.955.519-.776 1.279-.779 1.807-.017.701 1.008.7 2.908 0 3.907-.536.765-1.332.789-1.787-.03-.318-.568-.45-1.237-.661-1.86h-.003Zm30.98-6.873-.016.16c-1.262-.023-2.513-.105-3.746-.38-.674-.153-1.014-.592-1.072-1.372 1.912-.157 3.811.026 5.736.25l-.681.446-.037-.04.214-.286-.081-.122c-.171.094-.367.16-.508.285-.456.404-1.306.37-1.665-.097-.036-.048-.004-.147-.004-.224h-.593c-.056.24-.045.55-.16.607a.983.983 0 0 1-.696.015c-.251-.089-.5-.268-.347-.647l-.604.04c.179.521.372.936.983.99.611.053 1.235.178 1.855.25.472.054.949.083 1.421.125Zm-26.363 4.486c-.043-.14-.084-.281-.13-.42-.346-1.016-.716-2.023-1.43-2.852-.556-.643-1.238-1.023-2.121-.9-.22.045-.436.102-.648.172.675-.818 1.627-1.086 2.348-.679.025.179.07.35.18.46 1.155 1.164 1.597 2.64 1.802 4.22Zm36.728.498-.1.53 1.207-.552.082.123c-.495.351-.95.873-1.499 1.009-.707.179-1.492.043-2.194.043.252-.277.51-.59.805-.868a.961.961 0 0 1 .508-.274c.377-.04.764-.01 1.19-.01h.001Zm-17.37-3.881c-.511.06-.914-.01-1.301-.358-.28-.256-.689-.406-1.066-.516-.804-.235-1.58-.046-2.391.405 1.294-1.385 3.673-1.448 4.755.469h.002Zm-7.14-9.824c3.686.032 7.35.112 10.972.74a.136.136 0 0 1-.134.066c-3.169-.47-6.365-.516-9.562-.613-.268-.008-.547.09-.901.148l-.376-.34Zm17.452 9.203c.076-.71.57-1.052 1.177-.796.383.16.485.493.509.864.024.37 0 .758-.368.982a.626.626 0 0 1-.875-.161c-.202-.251-.302-.586-.446-.884l.002-.005Zm6.693.02c.179-.246.318-.569.557-.698.145-.077.547.08.666.25.288.407.282.901.076 1.356-.179.39-.61.452-.858.104-.191-.26-.272-.6-.444-1.008l.003-.005Zm-43.504.943.214-3.169c.475.113.5 1.057.123 1.559.345.355.199 1.374-.34 1.614l.003-.004Zm25.569 1.383c-1.826-.222-3.217.453-4.303 1.85.498-1.366 2.654-2.488 4.01-2.106.112.032.196.169.293.256ZM16.13 44.951c.099-.556.328-1.045.745-1.424.384-.35.843-.4 1.268-.089.913.658 1.202 1.654 1.41 2.68-.104-.162-.155-.35-.242-.519-.268-.512-.486-1.061-.829-1.519-.584-.779-1.29-.737-1.858.054-.187.258-.333.544-.495.817h.001Zm39.7 3.824c0 .983-.786 1.763-1.75 1.863-1.021.105-1.994-.305-2.139-.953.094.051.183.109.268.172 1.171 1.031 2.62.736 3.298-.668.063-.128.177-.23.322-.414h.001Zm-4.966-6.324c-.587-.18-.816-.634-.866-1.196-.039-.434.062-.838.476-1.072.322-.179.665-.268 1.11.01-.625-.1-1.071.017-1.268.55-.272.703.055 1.231.546 1.708h.002Zm-4.306 5.073-1.757 1.34-.097-.13c.526-.536.855-1.335 1.854-1.21Zm10.87-5.047c-.583-.352-.805-1.29-.468-1.877.24-.423.657-.532 1.251-.235-.515-.132-.862-.058-1.053.325-.323.654-.128 1.23.27 1.787Zm-.334 4.92c-.39.557-.9.714-1.495.972l.878-.77-.492-.198 1.11-.005ZM31.79 49.345c.25.065.563.25.81.186.269-.069.475-.37.744-.601.06.38-.134.592-.42.739-.419.214-.828.073-1.134-.324Zm27.298-6.84c-.395-.126-.447-.537-.208-1.237.31.388.116.807.208 1.236ZM44.814 40.39c.303-.31.832-.247 1.31.097l-1.31-.097Zm4.408-4.325c.646 0 .814.134.882.734l-.882-.734Zm-35.57 7.334L13.3 44.48c-.033-1.115.005-1.285.352-1.082Z"/><path d="M27.03 45.589c-.172-.797-.1-1.557.017-2.351.152-1.039.029-2.115.14-3.163.09-.804.345-1.585.546-2.371.075-.29.28-.394.602-.39 1.637.02 3.275.008 4.868.008.134.14.268.24.347.371.062.12.093.255.09.39.006 1.146 0 2.291 0 3.53.076-1.066.14-2.04.218-3.012.038-.468.09-.916.326-1.36a1.483 1.483 0 0 0-.034-1.462 42.564 42.564 0 0 0-1.454-2.245 1.698 1.698 0 0 0-1.362-.742 24.473 24.473 0 0 0-6.218.447 1.224 1.224 0 0 0-.756.61c-.363.795-.636 1.63-.924 2.456-.12.346-.014.632.367.728.456.116.916.257 1.38.284.805.047 1.61.013 2.422.013 0 .06.015.108 0 .14-.497.893-.658 1.876-.701 2.878-.032.773-.021 1.549-.053 2.323a5.74 5.74 0 0 1-.13 1.005 2.58 2.58 0 0 0 .308 1.913Zm1.47-12.34c-1.106.141-2.167.268-3.218.424a.649.649 0 0 0-.429.343c-.357.886-.678 1.788-1.043 2.77-.01-.204-.065-.379-.018-.52.243-.747.507-1.488.773-2.228.126-.349.377-.545.752-.615a25.857 25.857 0 0 1 6.174-.382c.559.032 1.121.481 1.251 1.01-.545-.789-1.346-.872-2.193-.832-.133.01-.268.01-.401 0-.258-.028-.417.06-.485.326-.268 1.018-.564 2.029-.796 3.055-.09.388-.235.5-.625.4l.348-1.966-.08-.013-.467 2.035-.614-.059 1.07-3.748Zm1.406 3.349c.052-.204.1-.459.178-.703.111-.335.274-.644.691-.65.77-.012 1.543-.026 2.313-.005.422.012.668.252.715.7.024.223.136.436.218.687-1.114-.048-2.277-.105-3.442-.143-.202-.006-.413.068-.673.114ZM38.036 37.19c.197.071.39.178.593.208 1.204.196 2.413.357 3.614.57.291.05.558.237.84.357.127.068.263.115.404.14 1.573.122 3.145.234 4.72.346.072.006.168.027.217-.009.537-.393 1.142-.253 1.73-.242 1.906.038 3.81.081 5.714.131.365.01.73.054 1.083.082-.09-.292-.31-.401-.65-.41-2.113-.06-4.228-.083-6.336-.223-2.656-.178-5.306-.44-7.953-.685-1.185-.109-2.366-.263-3.549-.393a3.565 3.565 0 0 0-.392 0c-.015.04-.025.083-.035.128Z"/><path d="M33.138 43.465c-.028-.478-.343-.685-.68-.774a34.474 34.474 0 0 0-2.73-.616c-.642-.115-1.302-.13-1.953-.199a2.458 2.458 0 0 1-.41-.114v1.442l5.773.26ZM26.645 43.179v-1.396h-4.1c-.047.66.282 1.137 1.01 1.214 1.013.108 2.035.124 3.09.182ZM27.23 45.531c.058.715.06.705.659.724 1.546.047 3.092.1 4.639.15.16.006.32 0 .5 0v-.714l-5.799-.16ZM22.306 45.197c.252.694.494.894 1.288.903 1.186.017 2.372 0 3.53 0-.178-.307-.41-.636-.99-.612-.89.024-1.782.002-2.67-.064-.397-.02-.789-.149-1.158-.227ZM47.02 41.915c.051-.441-.213-.447-.476-.47-1.065-.083-2.129-.197-3.195-.25-.778-.038-1.27-.42-1.584-1.095l-.117-.243c-.008.971.426 1.608 1.22 1.698 1.368.154 2.746.241 4.151.36ZM22.305 37.896c.25-.042.5-.117.75-.12 1.277-.011 2.555 0 3.833-.01.146 0 .291-.09.436-.131l-.036-.2h-2.352c-.639 0-1.279.017-1.916-.02-.41-.023-.663.087-.715.481ZM27.954 37.785c1.292 0 2.585-.018 3.877.01.56.012 1.118.119 1.747.191-.227-.22-.408-.467-.74-.471a357.36 357.36 0 0 0-4.595-.025c-.113 0-.226.09-.338.143l.05.152ZM29.245 38.776c-.073-.022-.152-.021-.178-.059-.4-.523-.829-.222-1.223-.017-.113.06-.23.362-.179.436.121.174.34.283.526.405.28.179.404-.056.594-.197.19-.14.535-.145.46-.568ZM34.203 40.3c.447-.404.885-.771 1.27-1.188.09-.102 0-.372-.007-.565-.14.044-.302.055-.413.138-.284.21-.536.458-.817.68-.341.276-.284.567-.033.936ZM34.827 36.492c-.031-.29.012-.615-.107-.863-.514-1.081-1.167-2.09-2.106-2.84-.352-.281-.893-.357-1.367-.446-.388-.07-.798-.015-1.2.014.488.046.993.027 1.456.154.428.117.92.298 1.192.615.653.762 1.214 1.608 1.767 2.448.168.256.189.608.277.918h.088ZM22.363 38.969c.19.036.32.021.352.071.407.631.785.151 1.155-.037a.47.47 0 0 0 .195-.314c.009-.051-.143-.133-.223-.198a.88.88 0 0 1-.19-.152c-.166-.243-.352-.224-.575-.084-.142.09-.327.126-.446.237-.12.11-.163.282-.268.477Zm1.409-.246.005.056h-1.115l-.006-.056h1.116ZM47.414 45.205c.103.007.227.054.308.014.273-.134.53-.299.792-.452-.13-.203-.23-.436-.395-.605a1.835 1.835 0 0 0-1.43-.596c-.652.018-1.307-.056-1.96-.073-.369-.01-.448.125-.31.471.224.561.517 1.005 1.227 1.031.59.02 1.178.147 1.768.227v-.017Zm-.944-1.476.429.487c-.132.09-.297.278-.392.249-.159-.051-.274-.24-.407-.371l.37-.365Zm1.506 1.03-.02.13-1.042-.05.391-.536.67.456ZM45.07 44.4c-.125-.173-.222-.273-.269-.393-.011-.032.17-.192.22-.179a.583.583 0 0 1 .294.247c.02.045-.127.177-.248.328l.003-.003ZM59.128 43.846c-.952.388-1.046.546-.877 1.405.565-.01.972-.648.877-1.405ZM20.799 38.774c-.257-.836-.325-.879-1.107-.856-1.489.045-2.978.085-4.468.12-.159 0-.319-.057-.476-.05-.096.005-.188.084-.282.13l.03.124c.153.011.306.035.458.032 1.266-.022 2.531-.027 3.796-.083.76-.033 1.458.047 2.049.583ZM40.304 47.247c-.257-.785-.786-1.283-1.593-1.443-.808-.16-1.426.168-1.912.782-.766.965-.757 2.473.006 3.438.826 1.044 2.234 1.099 3.078.073.702-.853.864-1.828.407-2.866-.084.29-.17.58-.256.87 0 .279.639.392.229.863h-.432c-.196.377.347.862-.205 1.184l-.542-.655c-.16.309-.26.58-.43.795-.082.104-.295.105-.447.152-.026-.125-.09-.257-.066-.375.044-.253.13-.5.235-.87-.308.14-.496.258-.7.307-.139.034-.358.024-.447-.062-.173-.171-.076-.338.124-.463s.385-.284.647-.482c-.295-.153-.481-.268-.684-.35-.384-.15-.406-.376-.185-.683l1.032.114c-.208-.357-.383-.591-.487-.856-.041-.106.04-.302.13-.398.046-.048.268-.004.349.068.221.203.409.441.657.72l.149-.955c.888.07.332.804.568 1.092h.775Zm-2.917-.862c-.85 1.392-.894 2.717.278 3.952-1.343-.442-1.617-2.835-.276-3.952h-.002ZM50.44 39.545h1.66l.008-.098h-1.661l-.008.098ZM56.389 39.547h-1.501l-.013.112 1.49.084.024-.196ZM54.258 39.488H52.74l-.005.113h1.52l.003-.113ZM18.467 49.157l-.364-.555-.33.86c-.387-.384 0-.749-.113-1.097l-.466.284c-.241-.245-.139-.439.063-.614.242-.208.22-.365-.037-.563-.141-.11-.206-.321-.37-.595l.653.043c.147-.357-.441-.692-.005-1.103l.434.691.12-.695c.23.11.23.11.303.888l.497-.174c-.28-.357-.485-.714-.783-.965-.299-.25-.71-.148-.904.163-.259.41-.449.858-.563 1.328a2.783 2.783 0 0 0 .335 2.065c.42.724 1.049.728 1.53.039Zm-1.25-.013c-.657-.768-.689-2.25-.069-3.103-.387 1.042-.43 2.074.064 3.103h.004Z"/><path d="M18.515 47.929c-.233-.062-.43-.054-.498-.143-.233-.311-.114-.668.268-.877-.041-.03-.082-.089-.11-.08-.158.033-.44.066-.448.127-.049.367-.051.738-.008 1.106.016.112.311.306.381.268.181-.09.31-.284.415-.401ZM18.886 48.018c-.546.15-.396.472-.224.804l.224-.804ZM51.921 41.181l-.49-.258.154-.257-.652.15c.121.125-.339.164-.04.372.123.09.08.409.12.673.476.117.631-.327.908-.68ZM57.915 41.799c.32-.09.328-.105.227-.372a.201.201 0 0 1 0-.144c.18-.378-.089-.429-.378-.46l.128.12c-.119.07-.268.107-.318.2-.038.07.036.221.095.315.07.09.15.173.24.244l.006.097ZM33.502 36.132c0-.536-.107-.663-.598-.672-.653-.01-1.306-.033-1.957-.005-.2.01-.394.17-.562.334.545-.363 1.103-.1 1.633-.029.493.066.973.24 1.484.372ZM39.793 48.619c-.268.034-.591.17-.722.066-.179-.143-.305-.47-.299-.714.01-.358.343-.389.71-.358-.337-.319-.657-.323-.988-.147-.346.184-.472.648-.325 1.108.138.428.536.732.937.683.425-.05.646-.312.687-.638ZM8.594 20.194h-1.62l1.825-5.53h2.052l1.825 5.53h-1.62l-1.21-4.007h-.042l-1.21 4.007Zm-.302-2.182h3.045v1.123H8.292v-1.123ZM13.209 20.194v-5.53h2.398c.42 0 .775.057 1.06.17.289.114.506.274.651.48.148.208.222.452.222.733 0 .203-.045.388-.135.556a1.192 1.192 0 0 1-.373.42c-.16.113-.347.19-.561.233v.054c.237.01.453.07.648.181.194.11.349.262.464.456.115.193.173.42.173.68 0 .303-.08.572-.238.808-.156.236-.38.421-.67.556-.29.135-.635.203-1.036.203h-2.603Zm1.501-1.199h.702c.252 0 .441-.047.567-.14.126-.096.19-.236.19-.422 0-.13-.03-.24-.09-.33a.556.556 0 0 0-.254-.204.983.983 0 0 0-.391-.07h-.724v1.166Zm0-2.095h.616c.131 0 .247-.021.348-.062a.477.477 0 0 0 .321-.467.456.456 0 0 0-.183-.392.753.753 0 0 0-.465-.138h-.637V16.9ZM18.137 15.874v-1.21h4.806v1.21h-1.664v4.32H19.8v-4.32h-1.662ZM28.605 17.429c0 .616-.12 1.135-.36 1.558a2.41 2.41 0 0 1-.969.959c-.407.216-.86.324-1.36.324-.505 0-.96-.11-1.367-.327a2.434 2.434 0 0 1-.966-.961c-.238-.423-.357-.941-.357-1.553 0-.616.119-1.134.357-1.556.239-.423.561-.742.966-.958a2.847 2.847 0 0 1 1.366-.327c.5 0 .954.109 1.361.327.407.216.73.535.97.958.24.422.359.94.359 1.556Zm-1.545 0c0-.331-.044-.61-.132-.837a1.058 1.058 0 0 0-.386-.519 1.062 1.062 0 0 0-.627-.178c-.248 0-.458.06-.629.178a1.08 1.08 0 0 0-.386.519c-.086.227-.13.506-.13.837 0 .331.044.611.13.84.088.227.217.4.386.518.171.117.381.176.63.176.248 0 .457-.059.626-.176.17-.119.3-.291.386-.518.088-.229.132-.509.132-.84ZM33.868 20.194h-1.501v-4.331h-.53c-.174 0-.325.024-.45.073a.588.588 0 0 0-.292.221.68.68 0 0 0-.1.386.66.66 0 0 0 .1.381.585.585 0 0 0 .292.213c.125.043.276.065.45.065h1.124v1.166h-1.426c-.42 0-.788-.069-1.104-.207a1.643 1.643 0 0 1-.74-.616c-.175-.272-.262-.606-.262-1.002 0-.392.085-.729.256-1.01.172-.28.41-.495.719-.645.31-.15.668-.224 1.077-.224h2.387v5.53Zm-3.24-2.538h1.598l-1.35 2.538h-1.63l1.382-2.538ZM34.579 20.194v-5.53h1.5v2.16h1.988v-2.16h1.501v5.53h-1.5v-2.16H36.08v2.16h-1.501ZM44.17 14.664v1.21h-2.388v4.32h-1.5v-5.53h3.887ZM49.826 17.429c0 .616-.12 1.135-.36 1.558-.239.421-.562.74-.968.959-.407.216-.861.324-1.361.324-.504 0-.96-.11-1.367-.327a2.434 2.434 0 0 1-.966-.961c-.238-.423-.357-.941-.357-1.553 0-.616.12-1.134.357-1.556.24-.423.561-.742.966-.958a2.847 2.847 0 0 1 1.367-.327c.5 0 .954.109 1.36.327.407.216.73.535.97.958.239.422.359.94.359 1.556Zm-1.545 0c0-.331-.044-.61-.132-.837a1.055 1.055 0 0 0-.386-.519 1.062 1.062 0 0 0-.626-.178c-.249 0-.459.06-.63.178a1.08 1.08 0 0 0-.386.519c-.086.227-.13.506-.13.837 0 .331.044.611.13.84.089.227.217.4.386.518.172.117.381.176.63.176.248 0 .457-.059.626-.176.171-.119.3-.291.386-.518.088-.229.132-.509.132-.84ZM50.337 20.194v-1.156l.15-.021a.768.768 0 0 0 .457-.238c.123-.131.216-.34.281-.624.067-.286.11-.676.127-1.169l.087-2.322h4.006v5.53h-1.447V15.83h-1.177l-.087 1.738c-.032.645-.118 1.159-.259 1.542-.14.383-.354.66-.64.829-.286.17-.663.254-1.131.254h-.367ZM56.156 14.664h1.502v2.894h.042l1.966-2.894h1.275v5.53h-1.502v-2.905h-.032l-1.998 2.905h-1.253v-5.53ZM8.241 55.39l.73 1.296h.035l.74-1.295h1.347l-1.33 2.226 1.382 2.225H9.763l-.757-1.321h-.034l-.757 1.321H6.841l1.365-2.225-1.321-2.226H8.24ZM11.614 55.39h1.504l1.035 2.522h.052l1.035-2.521h1.504v4.451h-1.182V57.27h-.035l-.991 2.538h-.713l-.992-2.556h-.034v2.591h-1.183v-4.451ZM17.317 59.842v-4.451h3.208v.973h-2v.765h1.835v.974h-1.835v.766h1.991v.973h-3.2ZM20.977 59.842v-.93l.121-.018a.615.615 0 0 0 .368-.19c.098-.107.174-.274.226-.503.053-.23.087-.544.102-.941l.07-1.87h3.225v4.452h-1.165V56.33h-.948l-.07 1.4c-.025.518-.095.932-.208 1.24-.113.31-.285.532-.515.668-.23.136-.534.204-.91.204h-.296ZM26.426 56.886h.922c.375 0 .703.06.983.18s.499.29.654.509c.156.22.234.476.232.772a1.32 1.32 0 0 1-.232.78c-.155.225-.373.4-.654.526-.28.126-.608.19-.983.19h-1.66V55.39h1.208v3.503h.452a.839.839 0 0 0 .367-.071.516.516 0 0 0 .302-.485.474.474 0 0 0-.169-.378c-.114-.101-.281-.152-.5-.152h-.922v-.922ZM29.905 59.842v-4.451h1.209v1.738h1.6v-1.738h1.208v4.451h-1.208v-1.739h-1.6v1.74h-1.209ZM34.496 55.39h1.209v2.33h.034l1.583-2.33h1.026v4.452h-1.209v-2.339h-.026l-1.608 2.34h-1.009V55.39ZM43.545 58.93l-.052 1.964H42.37v-1.052h-.313v-.913h1.487Zm-4.626.912v-4.451h1.166v3.521h1.556v-3.521h1.182v4.451H38.92ZM44.718 56.886h.921c.375 0 .703.06.983.18s.499.29.654.509c.156.22.234.476.232.772a1.32 1.32 0 0 1-.232.78c-.155.225-.373.4-.654.526-.28.126-.608.19-.983.19h-1.66V55.39h1.208v3.503h.452a.838.838 0 0 0 .367-.071.516.516 0 0 0 .303-.485.474.474 0 0 0-.17-.378c-.114-.101-.281-.152-.5-.152h-.921v-.922ZM50.94 59.842l-1.365-1.8h-.17v1.8h-1.209v-4.451h1.21v1.678h.156l1.278-1.678h1.521l-1.695 2.139 1.79 2.312H50.94ZM52.781 55.39h1.209v2.33h.035l1.582-2.33h1.026v4.452h-1.209v-2.339h-.026l-1.608 2.34H52.78V55.39ZM57.205 55.39h1.208v2.33h.035l1.582-2.33h1.026v4.452h-1.208v-2.34h-.026l-1.609 2.34h-1.008v-4.453Zm2.364-1.2h.757a.827.827 0 0 1-.324.678c-.215.168-.503.252-.867.252-.367 0-.657-.084-.872-.252a.815.815 0 0 1-.32-.678h.748a.367.367 0 0 0 .098.252c.068.075.184.113.346.113.155 0 .266-.037.333-.111a.379.379 0 0 0 .101-.255Z"/></g><defs><clipPath id="clip0_514_6567"><path fill="#fff" d="M0 0h68v87H0z"/></clipPath></defs></svg>