<svg aria-hidden="true" style="position: absolute; width: 0; height: 0; overflow: hidden;" version="1.1" xmlns="http://www.w3.org/2000/svg" xmlns:xlink="http://www.w3.org/1999/xlink">
<defs>
<symbol id="icon-arrow-up" viewBox="0 0 31 32">
<path stroke-linejoin="miter" stroke-linecap="butt" stroke-miterlimit="4" stroke-width="2.56" d="M21.76 16l-6.4-6.4-6.4 6.4M15.36 23.68v0zM15.36 30.080c7.776 0 14.080-6.304 14.080-14.080s-6.304-14.080-14.080-14.080c-7.776 0-14.080 6.304-14.080 14.080s6.304 14.080 14.080 14.080z"></path>
</symbol>
<symbol id="icon-arrow-down" viewBox="0 0 32 32">
<path stroke-linejoin="miter" stroke-linecap="butt" stroke-miterlimit="4" stroke-width="2.6667" d="M9.333 16l6.667 6.667 6.667-6.667M16 8v0zM16 1.333c-8.1 0-14.667 6.566-14.667 14.667s6.566 14.667 14.667 14.667c8.1 0 14.667-6.567 14.667-14.667s-6.567-14.667-14.667-14.667z"></path>
</symbol>
<symbol id="icon-en" viewBox="0 0 34 32">
<path fill="#fff" style="fill: var(--color1, #fff)" d="M0 0h33.882v32h-33.882v-32z"></path>
<path fill="#d22f27" style="fill: var(--color2, #d22f27)" d="M0 0h33.882v4.211h-33.882v-4.211zM0 7.579h33.882v3.368h-33.882v-3.368zM0 14.316h33.882v3.368h-33.882v-3.368z"></path>
<path fill="#1e50a0" style="fill: var(--color3, #1e50a0)" d="M0 0h17.488v17.684h-17.488v-17.684z"></path>
<path fill="#d22f27" style="fill: var(--color2, #d22f27)" d="M0 21.051h33.882v3.368h-33.882v-3.368z"></path>
<path fill="#fff" style="fill: var(--color1, #fff)" d="M2.351 5.052c0.468 0 0.847-0.377 0.847-0.842s-0.379-0.842-0.847-0.842c-0.468 0-0.847 0.377-0.847 0.842s0.379 0.842 0.847 0.842z"></path>
<path fill="#fff" style="fill: var(--color1, #fff)" d="M6.722 5.052c0.468 0 0.847-0.377 0.847-0.842s-0.379-0.842-0.847-0.842c-0.468 0-0.847 0.377-0.847 0.842s0.379 0.842 0.847 0.842z"></path>
<path fill="#fff" style="fill: var(--color1, #fff)" d="M11.093 5.052c0.468 0 0.847-0.377 0.847-0.842s-0.379-0.842-0.847-0.842c-0.468 0-0.847 0.377-0.847 0.842s0.379 0.842 0.847 0.842z"></path>
<path fill="#fff" style="fill: var(--color1, #fff)" d="M15.465 5.052c0.468 0 0.847-0.377 0.847-0.842s-0.379-0.842-0.847-0.842c-0.468 0-0.847 0.377-0.847 0.842s0.379 0.842 0.847 0.842z"></path>
<path fill="#fff" style="fill: var(--color1, #fff)" d="M13.281 8.419c0.468 0 0.847-0.377 0.847-0.842s-0.379-0.842-0.847-0.842c-0.468 0-0.847 0.377-0.847 0.842s0.379 0.842 0.847 0.842z"></path>
<path fill="#fff" style="fill: var(--color1, #fff)" d="M8.91 8.419c0.468 0 0.847-0.377 0.847-0.842s-0.379-0.842-0.847-0.842c-0.468 0-0.847 0.377-0.847 0.842s0.379 0.842 0.847 0.842z"></path>
<path fill="#fff" style="fill: var(--color1, #fff)" d="M4.535 8.419c0.468 0 0.847-0.377 0.847-0.842s-0.379-0.842-0.847-0.842c-0.468 0-0.847 0.377-0.847 0.842s0.379 0.842 0.847 0.842z"></path>
<path fill="#fff" style="fill: var(--color1, #fff)" d="M2.351 11.791c0.468 0 0.847-0.377 0.847-0.842s-0.379-0.842-0.847-0.842c-0.468 0-0.847 0.377-0.847 0.842s0.379 0.842 0.847 0.842z"></path>
<path fill="#fff" style="fill: var(--color1, #fff)" d="M6.722 11.791c0.468 0 0.847-0.377 0.847-0.842s-0.379-0.842-0.847-0.842c-0.468 0-0.847 0.377-0.847 0.842s0.379 0.842 0.847 0.842z"></path>
<path fill="#fff" style="fill: var(--color1, #fff)" d="M11.093 11.791c0.468 0 0.847-0.377 0.847-0.842s-0.379-0.842-0.847-0.842c-0.468 0-0.847 0.377-0.847 0.842s0.379 0.842 0.847 0.842z"></path>
<path fill="#fff" style="fill: var(--color1, #fff)" d="M15.465 11.791c0.468 0 0.847-0.377 0.847-0.842s-0.379-0.842-0.847-0.842c-0.468 0-0.847 0.377-0.847 0.842s0.379 0.842 0.847 0.842z"></path>
<path fill="#fff" style="fill: var(--color1, #fff)" d="M13.281 15.158c0.468 0 0.847-0.377 0.847-0.842s-0.379-0.842-0.847-0.842c-0.468 0-0.847 0.377-0.847 0.842s0.379 0.842 0.847 0.842z"></path>
<path fill="#fff" style="fill: var(--color1, #fff)" d="M8.91 15.158c0.468 0 0.847-0.377 0.847-0.842s-0.379-0.842-0.847-0.842c-0.468 0-0.847 0.377-0.847 0.842s0.379 0.842 0.847 0.842z"></path>
<path fill="#fff" style="fill: var(--color1, #fff)" d="M4.535 15.158c0.468 0 0.847-0.377 0.847-0.842s-0.379-0.842-0.847-0.842c-0.468 0-0.847 0.377-0.847 0.842s0.379 0.842 0.847 0.842z"></path>
<path fill="#d22f27" style="fill: var(--color2, #d22f27)" d="M0 27.791h33.882v4.21h-33.882v-4.21z"></path>
</symbol>
<symbol id="icon-facebook" viewBox="0 0 31 32">
<path stroke-linejoin="round" stroke-linecap="round" stroke-miterlimit="4" stroke-width="2.56" d="M23.040 3.2h-3.84c-1.697 0-3.325 0.674-4.525 1.875s-1.875 2.828-1.875 4.525v3.84h-3.84v5.12h3.84v10.24h5.12v-10.24h3.84l1.28-5.12h-5.12v-3.84c0-0.339 0.135-0.665 0.375-0.905s0.566-0.375 0.905-0.375h3.84v-5.12z"></path>
</symbol>
<symbol id="icon-insta" viewBox="0 0 31 32">
<path stroke-linejoin="round" stroke-linecap="round" stroke-miterlimit="4" stroke-width="2.56" d="M21.76 3.2h-12.8c-3.535 0-6.4 2.865-6.4 6.4v12.8c0 3.535 2.865 6.4 6.4 6.4h12.8c3.535 0 6.4-2.865 6.4-6.4v-12.8c0-3.535-2.865-6.4-6.4-6.4z"></path>
<path stroke-linejoin="round" stroke-linecap="round" stroke-miterlimit="4" stroke-width="2.56" d="M20.48 15.194c0.158 1.065-0.024 2.153-0.52 3.109s-1.281 1.731-2.243 2.215c-0.962 0.484-2.052 0.653-3.115 0.482s-2.045-0.673-2.807-1.434c-0.761-0.762-1.264-1.744-1.435-2.807s-0.003-2.153 0.482-3.115c0.484-0.962 1.259-1.747 2.215-2.243s2.044-0.678 3.109-0.52c1.087 0.161 2.093 0.667 2.869 1.444s1.283 1.783 1.444 2.869z"></path>
<path stroke-linejoin="round" stroke-linecap="round" stroke-miterlimit="4" stroke-width="2.56" d="M22.4 8.96h0.013"></path>
</symbol>
<symbol id="icon-ua" viewBox="0 0 34 32">
<path fill="#61b2e4" style="fill: var(--color4, #61b2e4)" d="M0 0h33.882v32h-33.882v-32z"></path>
<path fill="#fcea2b" style="fill: var(--color5, #fcea2b)" d="M0 16h33.882v16h-33.882v-16z"></path>
</symbol>
</defs>
</svg>
