<svg aria-hidden="true" style="position: absolute; width: 0; height: 0; overflow: hidden;"
  version="1.1" xmlns="http://www.w3.org/2000/svg" xmlns:xlink="http://www.w3.org/1999/xlink">
  <defs>
    <symbol id="icon-logo" viewBox="0 0 25 32">
      <path fill="#e8e8e8" style="fill: var(--color1, #e8e8e8)"
        d="M13.006 11.861c-0.077-0.036-0.159-0.063-0.232-0.104-0.035-0.019-0.053-0.029-0.071-0.040l0.015 0.008c-0.081-0.046-0.15-0.093-0.215-0.145l0.003 0.003h-0.001c-0.022-0.018-0.041-0.035-0.060-0.054l0 0c-0.066-0.067-0.1-0.131-0.098-0.195l0.164 0.061c0.003 0.001 0.006 0.002 0.009 0.002 0.011 0 0.020-0.007 0.024-0.017l0-0c0.001-0.003 0.002-0.006 0.002-0.009 0-0.011-0.007-0.020-0.016-0.024l-0-0-0.194-0.072c-0.096-0.045-0.173-0.119-0.223-0.209l-0.001-0.003c-0.010-0.018-0.019-0.039-0.025-0.061l-0.001-0.002-0.001-0.001c-0.003-0.011-0.005-0.024-0.005-0.038 0-0.003 0-0.005 0-0.008l-0 0c0.001-0.011 0.005-0.022 0.012-0.030l-0 0c0.005-0.006 0.012-0.011 0.020-0.014l0-0c0.074 0.054 0.167 0.088 0.267 0.091h0.001c0.001 0 0.001 0 0.002 0 0.013 0 0.024-0.011 0.025-0.024v-0c0-0.001 0-0.001 0-0.002 0-0.014-0.011-0.025-0.024-0.025h-0c-0.095-0.002-0.181-0.034-0.251-0.088l0.001 0.001c-0.071-0.055-0.129-0.124-0.171-0.203l-0.002-0.003c-0.012-0.023-0.020-0.050-0.023-0.078l-0-0.001v-0.018c0.001-0.022 0.011-0.042 0.025-0.056v0c0.102 0.072 0.21 0.101 0.319 0.116 0.001 0 0.002 0 0.004 0 0.013 0 0.023-0.010 0.025-0.022v-0c0-0.001 0-0.002 0-0.004 0-0.013-0.009-0.023-0.022-0.025l-0-0c-0.118-0.012-0.224-0.055-0.313-0.119l0.002 0.001c-0.064-0.043-0.115-0.1-0.151-0.166l-0.001-0.002c-0.016-0.032-0.025-0.070-0.025-0.111 0-0.014 0.001-0.028 0.003-0.041l-0 0.001c0.142 0.069 0.291 0.116 0.447 0.144 0.001 0 0.003 0 0.005 0 0.013 0 0.023-0.009 0.025-0.021l0-0c0-0.001 0-0.003 0-0.005 0-0.012-0.009-0.023-0.021-0.025l-0-0c-0.174-0.031-0.329-0.084-0.472-0.157l0.009 0.004-0.062-0.035v-0.001c-0.188-0.107-0.374-0.211-0.524-0.338-0.152-0.129-0.264-0.278-0.304-0.472 0.3 0.181 0.639 0.313 0.976 0.444 0.136 0.053 0.271 0.105 0.404 0.162 0.291 0.123 0.515 0.323 0.541 0.62 0.049 0.557 0.407 1.253 1.261 1.434-0.227-0.017-1.083-0.024-1.083-0.024z"></path>
      <path fill="#e8e8e8" style="fill: var(--color1, #e8e8e8)"
        d="M11.178 9.736c-0.126-0.107-0.229-0.229-0.287-0.381-0.001 0-0.003 0-0.004 0-0.004 0-0.008-0.001-0.012-0.003l0 0c-0.15-0.079-0.293-0.149-0.434-0.216-0.363-0.175-0.704-0.339-1.066-0.639 0.008 0.17 0.118 0.326 0.242 0.488 0.387 0.389 0.867 0.637 1.412 0.839 0.013 0.005 0.020 0.020 0.015 0.033-0.004 0.010-0.013 0.017-0.024 0.017-0.003 0-0.006-0.001-0.009-0.002l0 0c-0.548-0.202-1.034-0.453-1.428-0.848-0.088-0.036-0.163-0.082-0.23-0.138l0.001 0.001c0.024 0.226 0.176 0.442 0.389 0.658 0.425 0.361 0.952 0.555 1.383 0.714l0.021 0.008c-0.002-0.014-0.003-0.030-0.004-0.046l-0-0.001c0-0.009 0.005-0.018 0.012-0.023 0.004-0.002 0.008-0.003 0.012-0.003s0.009 0.001 0.013 0.003l-0-0c0.121 0.072 0.195 0.107 0.296 0.154l0.117 0.055c0.118 0.057 0.18 0.084 0.24 0.111l0.053 0.024c0.005-0.026 0.016-0.050 0.033-0.068l-0 0c-0.060-0.044-0.108-0.101-0.142-0.166l-0.001-0.003c-0.019-0.039-0.030-0.084-0.030-0.132 0-0.023 0.002-0.045 0.007-0.066l-0 0.002-0.047-0.027c-0.187-0.106-0.377-0.213-0.53-0.344z"></path>
      <path fill="#e8e8e8" style="fill: var(--color1, #e8e8e8)"
        d="M11.111 10.307c-0.429-0.159-0.964-0.355-1.395-0.721-0.098-0.048-0.183-0.102-0.26-0.164l0.003 0.002c0.059 0.286 0.242 0.462 0.431 0.645l0.045 0.043c0.429 0.309 0.871 0.44 1.319 0.572l0.017 0.005c-0.005-0.011-0.012-0.031-0.019-0.051l-0.003-0.009c-0.001-0.002-0.001-0.005-0.001-0.008 0-0.009 0.004-0.017 0.011-0.021l0-0c0.004-0.003 0.009-0.005 0.014-0.005s0.011 0.002 0.016 0.006l-0-0c0.025 0.021 0.055 0.040 0.085 0.056-0.105-0.11-0.178-0.217-0.21-0.329l-0.052-0.019z"></path>
      <path fill="#e8e8e8" style="fill: var(--color1, #e8e8e8)"
        d="M11.238 10.732c-0.447-0.132-0.895-0.264-1.332-0.578-0.13-0.046-0.242-0.111-0.341-0.192l0.002 0.002c0.045 0.218 0.216 0.371 0.396 0.531l0.012 0.011c0.434 0.316 0.91 0.447 1.289 0.553 0.068 0.018 0.132 0.037 0.193 0.055 0.065 0.017 0.12 0.030 0.167 0.039-0.062-0.045-0.116-0.094-0.165-0.146l-0.001-0.001c-0.066-0.073-0.122-0.158-0.162-0.251l-0.002-0.006-0.056-0.017h-0.001z"></path>
      <path fill="#e8e8e8" style="fill: var(--color1, #e8e8e8)"
        d="M11.253 11.11c-0.378-0.105-0.863-0.239-1.304-0.559-0.079-0.018-0.148-0.051-0.208-0.096l0.001 0.001c0.060 0.24 0.214 0.406 0.387 0.564 0.176 0.142 0.43 0.238 0.714 0.309 0.283 0.071 0.593 0.116 0.878 0.155 0.007 0.001 0.015 0.001 0.023 0.001h0c-0.143-0.073-0.237-0.201-0.311-0.325 0.026 0.004-0.035-0.013-0.095-0.030l-0.086-0.021z"></path>
      <path fill="#e8e8e8" style="fill: var(--color1, #e8e8e8)"
        d="M10.832 11.38c-0.283-0.071-0.543-0.168-0.728-0.314-0.039-0.005-0.074-0.015-0.107-0.030l0.003 0.001c-0.031-0.012-0.054-0.023-0.076-0.034l0.006 0.003c0.094 0.229 0.243 0.394 0.465 0.482 0.636 0.219 1.113 0.257 1.521 0.256-0.021-0.011-0.038-0.023-0.055-0.035l0.001 0.001c-0.063-0.048-0.115-0.107-0.156-0.173l-0.002-0.003c-0.283-0.039-0.59-0.084-0.873-0.155z"></path>
      <path fill="#e8e8e8" style="fill: var(--color1, #e8e8e8)"
        d="M11.961 11.795c-0.024 0-0.052 0.001-0.081 0.001-0.537 0-1.052-0.094-1.529-0.268l0.031 0.010-0.036 0.002c0.102 0.191 0.256 0.246 0.53 0.345 0.38 0 0.775-0.036 1.168 0.056-0.033-0.024-0.059-0.055-0.078-0.091l-0.001-0.001c-0.005-0.010-0.008-0.022-0.008-0.035 0-0.007 0.001-0.014 0.003-0.020l-0 0.001zM12.034 11.745c0.2 0.058 0.404 0.063 0.612-0.003-0.062-0.038-0.116-0.075-0.166-0.115l0.003 0.003c-0.251 0.023-0.418-0.021-0.653-0.109-0.018 0.010-0.040 0.016-0.062 0.016h-0c0.044 0.063 0.085 0.103 0.124 0.132 0.041 0.030 0.082 0.049 0.124 0.068l0.018 0.008z"></path>
      <path fill="#e8e8e8" style="fill: var(--color1, #e8e8e8)"
        d="M11.835 11.469c0.222 0.084 0.376 0.126 0.593 0.114-0.049-0.042-0.088-0.095-0.113-0.155l-0.001-0.003c-0.228-0.049-0.43-0.121-0.619-0.215l0.015 0.007c-0.077-0.007-0.146-0.020-0.214-0.039l0.009 0.002c0.080 0.125 0.18 0.239 0.329 0.288l0.001 0.001zM11.73 11.169c0.164 0.083 0.354 0.152 0.553 0.197l0.017 0.003c-0.001-0.009-0.002-0.019-0.002-0.029 0-0.009 0.001-0.017 0.001-0.026l-0 0.001c-0.099-0.052-0.178-0.129-0.23-0.224l-0.001-0.003c-0.010-0.017-0.019-0.038-0.026-0.059l-0.001-0.003c-0.209-0.069-0.408-0.152-0.573-0.279-0.055-0.016-0.104-0.037-0.148-0.064l0.003 0.001c0.050 0.127 0.11 0.216 0.173 0.285s0.129 0.118 0.196 0.169l0.039 0.030zM11.495 10.706c0.153 0.117 0.338 0.198 0.536 0.265v-0.019c0.001-0.023 0.010-0.043 0.023-0.060l-0 0c0.005-0.006 0.010-0.011 0.016-0.015l0-0c-0.063-0.055-0.115-0.12-0.153-0.194l-0.002-0.004c-0.012-0.024-0.021-0.052-0.026-0.081l-0-0.002c-0.147-0.061-0.25-0.11-0.352-0.16l0.037 0.017-0.114-0.054c-0.090-0.042-0.159-0.075-0.259-0.132 0.023 0.143 0.127 0.281 0.294 0.439zM9.67 12.296c-0.133-0.020-0.27-0.024-0.402-0.053-0.065-0.013-0.098-0.021-0.13-0.029l0.033 0.007-0.002-0.001c-0.15-0.035-0.279-0.076-0.403-0.127l0.018 0.006-0.002-0.001c-0.046-0.019-0.084-0.038-0.12-0.058l0.006 0.003c-0.13-0.072-0.211-0.154-0.236-0.252l0.277 0.018c0.001 0 0.002 0 0.003 0 0.022 0 0.039-0.017 0.040-0.039v-0c0-0.001 0-0.002 0-0.003 0-0.021-0.017-0.039-0.037-0.040h-0l-0.327-0.021c-0.155-0.014-0.328-0.111-0.435-0.221-0.025-0.025-0.047-0.053-0.066-0.083l-0.001-0.002-0.001-0.002c-0.012-0.019-0.021-0.041-0.027-0.065l-0-0.001c-0.002-0.006-0.002-0.013-0.002-0.020 0-0.011 0.002-0.022 0.006-0.032l-0 0.001c0.006-0.012 0.014-0.022 0.024-0.030l0-0c0.145 0.055 0.296 0.050 0.45 0.015 0.018-0.005 0.031-0.021 0.031-0.040 0-0.003-0-0.006-0.001-0.009l0 0c-0.004-0.018-0.020-0.031-0.039-0.031-0.003 0-0.006 0-0.009 0.001l0-0c-0.151 0.035-0.291 0.036-0.421-0.020h-0.001c-0.138-0.055-0.256-0.135-0.353-0.236l-0-0c-0.029-0.031-0.053-0.067-0.069-0.108l-0.001-0.002v-0.002c-0.003-0.007-0.005-0.016-0.007-0.025l-0-0.001c-0.002-0.009-0.003-0.020-0.003-0.031 0-0.024 0.006-0.047 0.017-0.067l-0 0.001c0.188 0.063 0.365 0.057 0.538 0.032 0.019-0.003 0.034-0.020 0.034-0.040 0-0.002-0-0.004-0.001-0.006l0 0c-0.002-0.020-0.019-0.035-0.040-0.035-0.002 0-0.004 0-0.005 0l0-0c-0.174 0.026-0.347 0.030-0.528-0.038h-0c-0.14-0.050-0.24-0.113-0.306-0.188-0.052-0.059-0.088-0.134-0.099-0.216l-0-0.002c0.247 0.040 0.496 0.043 0.747 0.015 0.020-0.003 0.035-0.020 0.035-0.040 0-0.002-0-0.004-0-0.006l0 0c-0.002-0.020-0.019-0.036-0.040-0.036-0.001 0-0.003 0-0.004 0h0c-0.093 0.011-0.2 0.018-0.309 0.018-0.164 0-0.325-0.015-0.481-0.044l0.016 0.002-0.111-0.025c-0.335-0.077-0.665-0.152-0.949-0.278-0.288-0.127-0.526-0.304-0.672-0.582 0.537 0.139 1.115 0.185 1.687 0.232 0.231 0.018 0.462 0.037 0.689 0.062 0.5 0.054 0.93 0.258 1.101 0.701 0.32 0.829 1.101 1.86 2.376 1.8-0.355 0.079-1.485 0.275-1.485 0.275z"></path>
      <path fill="#e8e8e8" style="fill: var(--color1, #e8e8e8)"
        d="M5.942 9.883c-0.239-0.105-0.45-0.246-0.605-0.451-0.005 0.002-0.011 0.004-0.017 0.004-0.003 0-0.006-0-0.008-0.001l0 0c-0.134-0.031-0.391-0.077-0.651-0.118l-0.108-0.014c-0.631-0.101-1.226-0.196-1.91-0.489 0.087 0.256 0.323 0.444 0.585 0.635 0.763 0.418 1.604 0.578 2.527 0.636 0.021 0.002 0.038 0.019 0.038 0.040 0 0.001-0 0.002-0 0.003v-0c-0.001 0.021-0.019 0.038-0.040 0.038-0.001 0-0.001-0-0.002-0h0c-0.926-0.058-1.78-0.22-2.555-0.643-0.151-0.014-0.289-0.051-0.418-0.107l0.009 0.003c0.135 0.334 0.463 0.595 0.883 0.827 0.807 0.357 1.699 0.413 2.428 0.459l0.035 0.002c-0.009-0.018-0.018-0.041-0.026-0.065l-0.001-0.005c-0.001-0.004-0.002-0.008-0.002-0.012 0-0.011 0.004-0.020 0.010-0.028l-0 0c0.007-0.008 0.018-0.013 0.029-0.013 0.003 0 0.007 0 0.010 0.001l-0-0c0.141 0.038 0.317 0.073 0.497 0.097l0.023 0.003c0.060 0.008 0.125 0.018 0.202 0.030 0.113 0.021 0.286 0.046 0.461 0.066l0.047 0.004c-0.001-0.007-0.001-0.016-0.001-0.024 0-0.034 0.008-0.067 0.022-0.096l-0.001 0.001c-0.125-0.050-0.223-0.114-0.293-0.193-0.069-0.078-0.113-0.178-0.121-0.288l-0-0.002-0.083-0.018c-0.333-0.076-0.67-0.154-0.963-0.283z"></path>
      <path fill="#e8e8e8" style="fill: var(--color1, #e8e8e8)"
        d="M6.090 10.787c-0.726-0.045-1.63-0.101-2.45-0.464-0.175-0.028-0.33-0.074-0.478-0.135l0.014 0.005c0.215 0.41 0.571 0.596 0.941 0.789l0.087 0.045c0.793 0.277 1.525 0.274 2.268 0.271h0.027c-0.016-0.021-0.035-0.048-0.054-0.075l-0.005-0.008c-0.005-0.007-0.007-0.015-0.007-0.023s0.003-0.019 0.009-0.026l-0 0c0.007-0.009 0.019-0.015 0.032-0.015 0.005 0 0.011 0.001 0.015 0.003l-0-0c0.048 0.020 0.101 0.035 0.154 0.046-0.207-0.12-0.368-0.251-0.465-0.408l-0.088-0.005z"></path>
      <path fill="#e8e8e8" style="fill: var(--color1, #e8e8e8)"
        d="M6.47 11.38c-0.74 0.003-1.484 0.006-2.289-0.274-0.219-0.010-0.424-0.059-0.613-0.139l0.012 0.004c0.165 0.312 0.494 0.467 0.838 0.631l0.023 0.011c0.803 0.283 1.588 0.267 2.214 0.255 0.112-0.002 0.218-0.005 0.318-0.005 0.1-0.003 0.195-0.009 0.288-0.018l-0.016 0.001c-0.123-0.045-0.228-0.095-0.327-0.154l0.009 0.005c-0.141-0.087-0.261-0.193-0.362-0.315l-0.002-0.002h-0.095z"></path>
      <path fill="#e8e8e8" style="fill: var(--color1, #e8e8e8)"
        d="M6.659 11.948c-0.623 0.013-1.423 0.030-2.239-0.257-0.018 0.001-0.038 0.002-0.059 0.002-0.107 0-0.21-0.019-0.305-0.055l0.006 0.002c0.197 0.341 0.506 0.524 0.84 0.686 0.331 0.135 0.763 0.167 1.227 0.146s0.957-0.094 1.411-0.165c0.012-0.002 0.024-0.005 0.036-0.009-0.25-0.046-0.451-0.199-0.619-0.354-0.094 0.001-0.194 0.002-0.299 0.005z"></path>
      <path fill="#e8e8e8" style="fill: var(--color1, #e8e8e8)"
        d="M6.133 12.555c-0.463 0.021-0.904-0.009-1.25-0.148-0.050 0.010-0.109 0.010-0.172 0.005-0.049-0.005-0.090-0.010-0.131-0.017l0.010 0.001c0.244 0.307 0.545 0.491 0.923 0.525 1.069 0.043 1.814-0.117 2.438-0.305-0.039-0.009-0.071-0.018-0.103-0.029l0.006 0.002c-0.123-0.047-0.229-0.114-0.319-0.198l0.001 0.001c-0.449 0.070-0.939 0.142-1.402 0.163z"></path>
      <path fill="#e8e8e8" style="fill: var(--color1, #e8e8e8)"
        d="M8.043 12.673c-0.641 0.197-1.41 0.373-2.526 0.329l-0.053 0.020c0.24 0.246 0.61 0.359 1.072 0.384 0.665-0.029 1.207-0.285 1.7-0.549-0.063-0.023-0.116-0.059-0.16-0.105l-0-0c-0.019-0.021-0.031-0.049-0.033-0.080v-0z"></path>
      <path fill="#e8e8e8" style="fill: var(--color1, #e8e8e8)"
        d="M8.34 12.895c-0.511 0.275-1.086 0.562-1.798 0.594l-0.122 0.040c0.46 0.18 0.939 0.2 1.45-0.035 0.274-0.14 0.527-0.313 0.737-0.556-0.097-0.004-0.188-0.019-0.275-0.045l0.008 0.002zM8.896 12.815c0.090-0.217 0.143-0.255 0.346-0.424-0.102-0.018 0.105-0.047 0.008-0.068-0.066-0.014-0.094-0.021-0.121-0.027l0.040 0.008c-0.283 0.212-0.64 0.34-1.027 0.34h-0c-0.015 0.012-0.018 0.021-0.019 0.025-0.001 0.005 0.001 0.015 0.014 0.030 0.027 0.033 0.089 0.070 0.177 0.1l0.034 0.011h0.001c0.169 0.051 0.39 0.066 0.549 0.004z"></path>
      <path fill="#e8e8e8" style="fill: var(--color1, #e8e8e8)"
        d="M8.133 12.563c0.002 0 0.005 0 0.008 0 0.345 0 0.666-0.106 0.931-0.288l-0.006 0.004c-0.119-0.031-0.218-0.064-0.314-0.103l0.017 0.006c-0.374 0.149-0.649 0.159-1.048 0.133-0.024 0.023-0.054 0.041-0.086 0.052l-0.002 0c0.095 0.076 0.175 0.118 0.247 0.145 0.064 0.022 0.138 0.038 0.215 0.047l0.005 0 0.032 0.005z"></path>
      <path fill="#e8e8e8" style="fill: var(--color1, #e8e8e8)"
        d="M7.707 12.23c0.375 0.026 0.63 0.021 0.957-0.097-0.018-0.009-0.028-0.015-0.039-0.020l0.007 0.003c-0.084-0.043-0.155-0.101-0.211-0.171l-0.001-0.001c-0.102 0.009-0.22 0.014-0.34 0.014-0.238 0-0.471-0.020-0.698-0.060l0.024 0.003c-0.078 0.018-0.19 0.030-0.33 0.037 0.176 0.154 0.38 0.282 0.63 0.29h0.002zM7.415 11.821c0.2 0.036 0.429 0.056 0.664 0.056 0.104 0 0.206-0.004 0.308-0.012l-0.014 0.001c-0.011-0.023-0.019-0.051-0.024-0.079l-0-0.002c-0.179-0.034-0.333-0.12-0.452-0.241l-0-0c-0.024-0.025-0.047-0.051-0.066-0.080l-0.001-0.002c-0.35-0.008-0.691-0.046-1-0.163-0.005 0-0.011 0-0.017 0-0.083 0-0.163-0.011-0.24-0.032l0.006 0.001c0.133 0.171 0.263 0.28 0.39 0.357 0.125 0.076 0.249 0.122 0.373 0.168l0.072 0.027zM6.852 11.22c0.285 0.11 0.603 0.149 0.935 0.159-0.003-0.008-0.005-0.017-0.007-0.027l-0-0.002c-0.002-0.011-0.004-0.023-0.004-0.036 0-0.023 0.005-0.046 0.013-0.066l-0 0.001c0.005-0.012 0.011-0.022 0.018-0.032l-0 0c-0.126-0.058-0.234-0.136-0.323-0.231l-0-0.001c-0.030-0.033-0.055-0.070-0.075-0.111l-0.001-0.003-0.125-0.016c-0.104-0.013-0.213-0.026-0.42-0.059-0.075-0.012-0.139-0.021-0.199-0.030-0.155-0.024-0.276-0.041-0.454-0.084 0.098 0.207 0.316 0.373 0.642 0.537zM12.296 17.474c0.028-0.352 0.027-0.7 0.093-1.035 0.057-0.296 0.149-0.6 0.294-0.86 0.533-0.957 1.692-1.008 2.295-0.096 0.146 0.22 0.301 0.278 0.532 0.284 0.665 0.015 1.329 0.044 2.018 0.069-0.039-0.126-0.066-0.246-0.116-0.354-0.017-0.037-0.097-0.056-0.148-0.061-0.395-0.037-0.79-0.082-1.186-0.097-0.337-0.013-0.542-0.171-0.638-0.493-0.043-0.143-0.121-0.216-0.283-0.165 0.117-0.191 0.317-0.072 0.52-0.146-0.094-0.052-0.155-0.11-0.224-0.12-0.493-0.073-0.989-0.133-1.482-0.207-0.102-0.015-0.2-0.071-0.287-0.124 0.405 0.053 0.809 0.105 1.213 0.159 0.181 0.024 0.363 0.045 0.541 0.078 0.076 0.014 0.175 0.035 0.216 0.089 0.097 0.13 0.216 0.132 0.354 0.136 0.525 0.024 1.050 0.060 1.575 0.082 0.094 0.004 0.191-0.037 0.285-0.057 0.083-0.018 0.166-0.054 0.25-0.053 0.853 0.016 1.706 0.036 2.558 0.060 0.054 0 0.107 0.042 0.161 0.062 0.078 0.031 0.162 0.052 0.245 0.059-0.096-0.221-0.225-0.391-0.468-0.43-0.726-0.115-1.451-0.23-2.176-0.354-0.1-0.018-0.188-0.054-0.267-0.105l0.003 0.002c-0.221-0.141-0.435-0.294-0.684-0.465l0.398 0.417c-0.334-0.022-0.629-0.049-0.925-0.060-0.858-0.033-1.715-0.066-2.573-0.085-0.242-0.005-0.486 0.053-0.729 0.066-0.22 0.012-0.39-0.091-0.523-0.269-0.249-0.337-0.502-0.669-0.754-1.004-0.196-0.261-0.453-0.397-0.777-0.388-0.767 0.021-1.532 0.061-2.284 0.242-0.247 0.060-0.406 0.2-0.496 0.441-0.194 0.521-0.425 1.031-0.58 1.564-0.1 0.345-0.123 0.723-0.125 1.085-0 0.039-0.001 0.085-0.001 0.131 0 0.495 0.030 0.983 0.088 1.463l-0.006-0.058c0.043 0.354 0.184 0.433 0.538 0.449l3.28 0.149c0.095 0.004 0.191 0 0.274 0zM10.044 17.006c-0.085-0.141-0.135-0.311-0.135-0.493 0-0.075 0.008-0.148 0.025-0.217l-0.001 0.006c0.026-0.109 0.044-0.236 0.050-0.367l0-0.005c0.011-0.284 0.007-0.57 0.018-0.855 0.015-0.369 0.073-0.73 0.252-1.059 0.006-0.011 0-0.030 0-0.052-0.293 0-0.584 0.012-0.873-0.005-0.168-0.009-0.333-0.062-0.498-0.104-0.137-0.036-0.176-0.141-0.133-0.268 0.104-0.304 0.203-0.611 0.333-0.903 0.057-0.108 0.153-0.189 0.269-0.224l0.003-0.001c0.525-0.113 1.128-0.178 1.746-0.178 0.174 0 0.347 0.005 0.519 0.015l-0.024-0.001c0.098 0.002 0.193 0.028 0.278 0.076s0.159 0.115 0.213 0.197c0.182 0.27 0.358 0.545 0.524 0.825 0.048 0.080 0.076 0.177 0.076 0.28 0 0.094-0.024 0.183-0.065 0.261l0.001-0.003c-0.085 0.165-0.104 0.329-0.117 0.501-0.028 0.357-0.051 0.716-0.079 1.108v-1.299c0-0.003 0-0.006 0-0.009 0-0.049-0.012-0.096-0.033-0.137l0.001 0.002c-0.028-0.049-0.076-0.085-0.125-0.136-0.575 0-1.165 0.004-1.755-0.004-0.116 0-0.19 0.037-0.216 0.143-0.072 0.29-0.165 0.578-0.197 0.873-0.040 0.385 0.005 0.781-0.050 1.163-0.044 0.294-0.070 0.573-0.009 0.867zM14.011 13.915l0.011-0.049c0.047-0.002 0.095-0.002 0.142 0 0.427 0.048 0.852 0.105 1.279 0.145 0.955 0.090 1.911 0.188 2.867 0.252 0.76 0.051 1.522 0.060 2.284 0.082 0.122 0.003 0.201 0.043 0.234 0.15-0.129-0.010-0.258-0.027-0.39-0.030-0.211-0.008-0.931-0.026-1.652-0.041l-0.408-0.007c-0.212-0.005-0.43-0.056-0.623 0.089-0.017 0.013-0.052 0.005-0.078 0.004-0.567-0.041-1.134-0.082-1.7-0.127-0.055-0.010-0.104-0.028-0.149-0.053l0.003 0.001c-0.101-0.043-0.197-0.111-0.303-0.132-0.433-0.078-0.87-0.138-1.303-0.21-0.072-0.011-0.142-0.049-0.213-0.075zM12.246 16.224l-2.080-0.096v-0.531c0.048 0.019 0.098 0.034 0.148 0.043 0.235 0.025 0.473 0.031 0.704 0.073 0.331 0.060 0.659 0.139 0.985 0.226 0.122 0.031 0.235 0.107 0.245 0.283zM9.906 16.119c-0.38-0.021-0.749-0.027-1.114-0.066-0.262-0.029-0.38-0.204-0.364-0.447h1.477v0.512zM10.116 16.985l2.091 0.059v0.264c-0.064 0-0.123 0.002-0.18 0-0.558-0.018-1.115-0.038-1.672-0.055-0.216-0.008-0.216-0.006-0.238-0.267v0zM8.342 16.861c0.133 0.029 0.274 0.076 0.417 0.085 0.32 0.024 0.642 0.032 0.963 0.023 0.21-0.009 0.291 0.112 0.357 0.225-0.418 0-0.845 0.005-1.272 0-0.286-0.005-0.373-0.078-0.464-0.334zM17.249 15.653c-0.506-0.043-1.003-0.075-1.496-0.132-0.286-0.033-0.443-0.267-0.44-0.624 0.021 0.045 0.033 0.066 0.043 0.089 0.114 0.248 0.29 0.389 0.571 0.403 0.384 0.020 0.768 0.061 1.152 0.092 0.095 0.007 0.19 0.009 0.171 0.171zM8.342 14.174c0.018-0.146 0.111-0.185 0.258-0.177 0.23 0.014 0.46 0.007 0.69 0.008h0.848c0.005 0.024 0.009 0.049 0.013 0.073-0.052 0.017-0.105 0.047-0.157 0.048-0.46 0.004-0.921 0-1.381 0.004-0.090 0.002-0.18 0.029-0.27 0.045v-0.001zM10.377 14.133l-0.018-0.056c0.040-0.018 0.081-0.053 0.121-0.053 0.552 0 1.104 0.003 1.656 0.009 0.12 0.002 0.185 0.092 0.267 0.174-0.225-0.027-0.428-0.066-0.63-0.071-0.465-0.008-0.931-0.003-1.397-0.003zM10.843 14.498c0.027 0.155-0.094 0.155-0.166 0.209s-0.113 0.139-0.214 0.072c-0.068-0.045-0.146-0.085-0.19-0.149-0.018-0.027 0.024-0.139 0.065-0.161 0.142-0.075 0.296-0.187 0.441 0.006 0.010 0.014 0.038 0.014 0.065 0.022zM12.63 15.059c-0.091-0.135-0.111-0.242 0.012-0.344 0.1-0.082 0.193-0.172 0.294-0.25 0.040-0.030 0.099-0.035 0.149-0.051 0.002 0.071 0.036 0.171 0.002 0.208-0.139 0.153-0.298 0.289-0.457 0.438v-0.001zM12.855 13.659h-0.032c-0.032-0.114-0.039-0.244-0.1-0.338-0.199-0.309-0.402-0.62-0.637-0.9-0.097-0.117-0.275-0.184-0.429-0.226-0.167-0.047-0.349-0.040-0.525-0.056 0.145-0.011 0.293-0.031 0.432-0.005 0.17 0.031 0.366 0.059 0.493 0.164 0.338 0.276 0.573 0.647 0.758 1.045 0.043 0.091 0.027 0.211 0.039 0.318h0.001zM8.363 14.569c0.038-0.072 0.056-0.136 0.097-0.175s0.11-0.054 0.161-0.087c0.080-0.052 0.148-0.059 0.207 0.031 0.020 0.021 0.043 0.040 0.069 0.056 0.029 0.024 0.084 0.054 0.081 0.073-0.007 0.048-0.033 0.088-0.069 0.115l-0.001 0c-0.133 0.069-0.27 0.246-0.416 0.014-0.012-0.018-0.059-0.013-0.127-0.026h0.001z"></path>
      <path fill="#e8e8e8" style="fill: var(--color1, #e8e8e8)"
        d="M19.209 16.92v-0.268h1.385v0.285h0.576l-0.014 0.142c0.478-0.151 0.704-0.467 0.614-0.937-0.020-0.107-0.068-0.164-0.215-0.129-0.206 0.048-0.427 0.030-0.641 0.047-0.050 0.003-0.117 0.012-0.145 0.045-0.101 0.126-0.231 0.114-0.366 0.111-0.37-0.009-0.741-0.008-1.11-0.019-0.067-0.002-0.134-0.044-0.2-0.066-0.030-0.014-0.064-0.026-0.1-0.033l-0.003-0c-1.047-0.076-2.093-0.153-3.141-0.222-0.434-0.029-0.87-0.035-1.303-0.057-0.122-0.006-0.139 0.033-0.097 0.143 0.070 0.177 0.17 0.292 0.364 0.348 0.727 0.208 1.449 0.43 2.171 0.657 0.29 0.091 0.576 0.079 0.857 0.009 0.276-0.069 0.547-0.075 0.828-0.059 0.171 0.011 0.343 0.003 0.538 0.003zM17.393 16.864v0.006c-0.212-0.030-0.424-0.076-0.637-0.084-0.256-0.009-0.361-0.173-0.442-0.38-0.050-0.128-0.021-0.177 0.111-0.174 0.235 0.006 0.472 0.033 0.707 0.027 0.008-0 0.018-0.001 0.027-0.001 0.194 0 0.368 0.085 0.487 0.219l0.001 0.001c0.060 0.062 0.097 0.148 0.142 0.223-0.095 0.056-0.188 0.117-0.285 0.166-0.030 0.015-0.075-0.002-0.113-0.005h0.002zM21.613 16.364c0.035 0.28-0.112 0.515-0.316 0.517-0.061-0.317-0.026-0.375 0.316-0.517zM5.677 17.021c0.057-0.379 0.091-0.744 0.173-1.098 0.053-0.233 0.145-0.456 0.271-0.658 0.282-0.448 0.848-0.54 1.245-0.193 0.186 0.162 0.314 0.395 0.463 0.599 0.040 0.055 0.062 0.125 0.114 0.233 0.060-0.665-0.042-1.302 0.202-1.886-0.375 0-0.744-0.002-1.113 0-0.424 0.004-0.847 0.011-1.271 0.018-0.294 0.005-0.379 0.091-0.397 0.416 0.205 0.011 0.211 0.143 0.194 0.315-0.026 0.271-0.008 0.549-0.048 0.818-0.018 0.128-0.123 0.243-0.193 0.373 0.185 0.050 0.151 0.246 0.161 0.421 0.008 0.125 0.014 0.252 0.011 0.378-0.004 0.145 0.067 0.219 0.189 0.264zM7.798 14.496c-0.213-0.197-0.465-0.226-0.737-0.214-0.455 0.021-0.912 0.022-1.368 0.030-0.055 0-0.11-0.007-0.165-0.011l-0.011-0.046c0.034-0.017 0.067-0.046 0.102-0.048 0.056-0.002 0.114 0.020 0.171 0.018 0.537-0.012 1.074-0.027 1.61-0.043 0.28-0.008 0.305 0.008 0.398 0.316v-0.002zM14.851 13.396l-1.013-0.98 0.338-0.042v-0.030h-1.519c0.030 0.059 0.062 0.115 0.097 0.17 0.146 0.203 0.315 0.39 0.438 0.606 0.177 0.308 0.432 0.399 0.758 0.364 0.289-0.031 0.579-0.057 0.9-0.088z"></path>
      <path fill="#e8e8e8" style="fill: var(--color1, #e8e8e8)"
        d="M14.961 16.559c0.186 0.104 0.367 0.217 0.559 0.31 0.543 0.264 1.087 0.532 1.698 0.57 0.503 0.033 1.008 0.030 1.512 0.041 0.177 0.003 0.355 0 0.561 0l-0.161-0.090 0.23-0.296c-0.691-0.076-1.345-0.101-1.95 0.292l-0.012-0.060 0.294-0.143c-0.005-0.014-0.009-0.030-0.011-0.030-0.561 0.042-1.073-0.176-1.6-0.311-0.348-0.088-0.689-0.205-1.033-0.308-0.021-0.004-0.045-0.007-0.069-0.007-0.002 0-0.003 0-0.005 0h0l-0.012 0.032zM13.18 18.015c0 0.296 0.086 0.559 0.278 0.783 0.393 0.455 1.017 0.427 1.37-0.062 0.296-0.404 0.307-0.998 0.028-1.417-0.376-0.566-1.102-0.566-1.479 0-0.125 0.187-0.199 0.417-0.199 0.664 0 0.011 0 0.023 0 0.034l-0-0.002zM14.825 17.61c0.165 0.382 0.107 0.741-0.147 1.055-0.304 0.378-0.812 0.358-1.109-0.026-0.275-0.355-0.278-0.91-0.002-1.265 0.175-0.226 0.402-0.346 0.689-0.288s0.483 0.242 0.575 0.531l-0.005-0.006zM18.468 15.835c-0.038-0.031-0.056-0.059-0.081-0.066-0.026-0.005-0.056-0.008-0.087-0.008-0.009 0-0.018 0-0.026 0.001l0.001-0c-0.463-0.015-0.463-0.015-0.583-0.479-0.007-0.018-0.012-0.040-0.015-0.062l-0-0.002c-0.009-0.188 0.419-0.467 0.589-0.398 0.107 0.047 0.22 0.075 0.335 0.082 0.639 0.020 1.277 0.030 1.916 0.037 0.075 0 0.148-0.049 0.223-0.053s0.15 0.020 0.267 0.038c-0.122-0.12-0.212-0.238-0.365-0.242-0.848-0.025-1.695-0.056-2.543-0.060-0.299 0-0.474 0.248-0.649 0.463-0.020 0.025-0.014 0.087 0 0.125 0.055 0.171 0.118 0.34 0.19 0.505 0.033 0.059 0.090 0.1 0.158 0.112l0.001 0c0.213 0.014 0.427 0.005 0.669 0.005zM18.481 14.783l0.003-0.036h0.599l-0.003 0.036h-0.599zM20.625 14.783l-0.008 0.072-0.538-0.031 0.005-0.041h0.54zM19.858 14.761v0.041h-0.547l0.002-0.041h0.546zM6.121 17.758c0.077 0.23 0.124 0.476 0.237 0.685 0.164 0.301 0.451 0.293 0.644 0.011 0.253-0.368 0.254-1.067 0-1.438-0.191-0.28-0.465-0.279-0.652 0.006-0.142 0.217-0.182 0.465-0.187 0.72l-0.043 0.015zM6.958 18.317c-0.173 0.254-0.4 0.253-0.551-0.013-0.092-0.152-0.146-0.336-0.146-0.532 0-0.081 0.009-0.16 0.027-0.235l-0.001 0.007c0.045-0.185 0.114-0.348 0.207-0.495l-0.004 0.007c0.070-0.115 0.216-0.154 0.326-0.060s0.181 0.225 0.282 0.355l-0.179 0.064c-0.026-0.286-0.026-0.286-0.109-0.327l-0.043 0.256-0.157-0.255c-0.157 0.151 0.055 0.274 0.002 0.407l-0.235-0.016c0.059 0.101 0.082 0.178 0.133 0.219 0.093 0.073 0.1 0.131 0.013 0.207-0.073 0.066-0.11 0.135-0.023 0.226l0.168-0.105c0.040 0.128-0.098 0.264 0.040 0.404l0.12-0.317 0.131 0.204zM6.976 17.865c-0.039 0.041-0.084 0.115-0.149 0.148-0.025 0.013-0.131-0.058-0.137-0.099-0.016-0.135-0.015-0.272 0.003-0.407 0.003-0.023 0.104-0.033 0.161-0.047 0.010-0.002 0.025 0.018 0.040 0.030-0.138 0.077-0.181 0.208-0.096 0.323 0.024 0.034 0.095 0.030 0.178 0.053v-0.001zM7.109 17.898l-0.081 0.296c-0.062-0.12-0.116-0.239 0.081-0.294v-0.002zM17.287 15.229c-0.171-0.015-0.342-0.026-0.512-0.047-0.224-0.027-0.445-0.072-0.669-0.092s-0.288-0.172-0.354-0.364l0.218-0.015c-0.055 0.139 0.034 0.206 0.125 0.239 0.035 0.013 0.076 0.021 0.118 0.021 0.048 0 0.093-0.010 0.135-0.027l-0.002 0.001c0.041-0.021 0.038-0.135 0.058-0.223h0.214c0 0.028-0.012 0.066 0.002 0.082 0.129 0.171 0.436 0.184 0.6 0.036 0.051-0.046 0.122-0.070 0.183-0.105l0.029 0.045-0.078 0.105 0.014 0.015 0.245-0.165c-0.694-0.082-1.378-0.15-2.067-0.091 0.020 0.287 0.143 0.448 0.386 0.505 0.444 0.102 0.895 0.133 1.35 0.141l0.005-0.059zM7.785 16.88c-0.074-0.581-0.233-1.124-0.651-1.553-0.040-0.040-0.055-0.104-0.064-0.169-0.26-0.15-0.603-0.052-0.846 0.25 0.077-0.025 0.155-0.047 0.234-0.063 0.319-0.045 0.564 0.095 0.764 0.332 0.258 0.305 0.392 0.675 0.515 1.049 0.018 0.051 0.033 0.103 0.048 0.155zM21.022 17.062c-0.154 0-0.293-0.010-0.43 0.005-0.073 0.015-0.135 0.051-0.183 0.101l-0 0c-0.105 0.102-0.198 0.217-0.29 0.319 0.253 0 0.535 0.049 0.791-0.015 0.2-0.050 0.361-0.242 0.541-0.372l-0.029-0.045-0.436 0.202 0.037-0.195zM14.761 15.635c-0.39-0.706-1.248-0.682-1.715-0.175 0.293-0.164 0.571-0.235 0.863-0.149 0.136 0.040 0.283 0.095 0.384 0.19 0.139 0.13 0.285 0.155 0.469 0.133zM12.188 12.020l0.136 0.125c0.129-0.023 0.226-0.057 0.325-0.055 1.151 0.036 2.303 0.053 3.446 0.226 0.002 0 0.004 0 0.006 0 0.018 0 0.034-0.010 0.042-0.024l0-0c-1.308-0.232-2.628-0.261-3.956-0.273z"></path>
      <path fill="#e8e8e8" style="fill: var(--color1, #e8e8e8)"
        d="M18.477 15.409c0.052 0.11 0.089 0.23 0.161 0.326 0.041 0.061 0.11 0.1 0.188 0.1 0.017 0 0.033-0.002 0.048-0.005l-0.002 0c0.031-0.007 0.058-0.019 0.082-0.036l-0.001 0c0.133-0.082 0.142-0.222 0.132-0.362s-0.045-0.258-0.183-0.318c-0.22-0.094-0.398 0.033-0.426 0.293zM19.015 15.384c-0.1 0.13-0.156 0.293-0.327 0.25-0.015-0.098 0-0.216-0.044-0.248-0.108-0.076 0.058-0.091 0.015-0.137l0.235-0.055-0.056 0.095 0.177 0.095zM20.89 15.415c0.061 0.15 0.091 0.275 0.159 0.373 0.089 0.129 0.245 0.105 0.309-0.038 0.074-0.168 0.076-0.349-0.027-0.498-0.043-0.063-0.188-0.12-0.24-0.092-0.086 0.047-0.135 0.165-0.201 0.256zM21.174 15.575c-0.033-0.026-0.062-0.056-0.087-0.088l-0.001-0.001c-0.021-0.033-0.048-0.090-0.035-0.117 0.017-0.033 0.072-0.047 0.115-0.073l-0.047-0.045c0.104 0.012 0.201 0.031 0.137 0.17-0.003 0.008-0.005 0.017-0.005 0.027s0.002 0.019 0.005 0.027l-0-0.001c0.037 0.098 0.032 0.104-0.082 0.136v-0.036zM5.21 15.762c0.193-0.088 0.245-0.463 0.121-0.592 0.136-0.184 0.128-0.532-0.044-0.573l-0.077 1.165zM14.426 16.27c-0.035-0.034-0.065-0.083-0.106-0.095-0.489-0.14-1.265 0.273-1.445 0.775 0.393-0.514 0.893-0.762 1.551-0.68zM6.116 16.77c0.059-0.099 0.112-0.205 0.178-0.3 0.205-0.291 0.46-0.306 0.67-0.020 0.123 0.168 0.203 0.37 0.298 0.559 0.032 0.063 0.050 0.131 0.087 0.191-0.075-0.379-0.179-0.745-0.508-0.986-0.153-0.113-0.319-0.095-0.457 0.032-0.15 0.14-0.233 0.319-0.269 0.523zM20.425 18.177c-0.052 0.068-0.093 0.105-0.116 0.152-0.244 0.517-0.767 0.625-1.189 0.246-0.028-0.022-0.059-0.043-0.092-0.061l-0.004-0.002c0.052 0.238 0.402 0.39 0.771 0.351 0.346-0.037 0.629-0.325 0.63-0.685z"></path>
      <path fill="#e8e8e8" style="fill: var(--color1, #e8e8e8)"
        d="M18.634 15.851c-0.177-0.175-0.294-0.37-0.197-0.628 0.072-0.197 0.232-0.239 0.457-0.203-0.161-0.104-0.285-0.071-0.4-0.004-0.149 0.086-0.186 0.235-0.172 0.395 0.017 0.206 0.101 0.373 0.312 0.44zM17.084 17.718c-0.359-0.046-0.478 0.248-0.669 0.444l0.035 0.048 0.634-0.491zM21.001 15.86c-0.143-0.204-0.214-0.418-0.096-0.657 0.069-0.141 0.194-0.168 0.38-0.12-0.213-0.109-0.363-0.069-0.451 0.086-0.12 0.216-0.041 0.562 0.168 0.691zM20.88 17.671h-0.4l0.178 0.074-0.316 0.285c0.214-0.096 0.398-0.154 0.538-0.36zM11.76 18.388c0.11 0.146 0.258 0.198 0.409 0.119 0.103-0.053 0.172-0.131 0.151-0.271-0.097 0.085-0.171 0.197-0.268 0.221-0.090 0.023-0.202-0.044-0.292-0.068zM21.6 15.87c-0.032-0.156 0.037-0.31-0.075-0.454-0.087 0.258-0.068 0.408 0.075 0.455zM16.454 15.091l0.472 0.036c-0.172-0.127-0.363-0.15-0.472-0.036zM18.043 13.501l0.318 0.27c-0.025-0.22-0.086-0.27-0.318-0.27zM5.223 16.2c-0.125-0.075-0.139-0.012-0.128 0.398 0.042-0.131 0.083-0.262 0.128-0.398zM10.574 12.465l-0.383 1.377 0.222 0.022 0.168-0.749 0.029 0.005-0.126 0.723c0.141 0.037 0.194-0.004 0.226-0.146 0.084-0.378 0.194-0.75 0.287-1.125 0.025-0.098 0.082-0.131 0.175-0.12 0.049 0.004 0.097 0.004 0.145 0 0.305-0.015 0.594 0.016 0.79 0.306-0.048-0.195-0.251-0.362-0.45-0.372-0.162-0.010-0.351-0.016-0.541-0.016-0.595 0-1.178 0.057-1.741 0.166l0.057-0.009c-0.135 0.026-0.225 0.098-0.271 0.226-0.097 0.272-0.191 0.545-0.279 0.82-0.017 0.052 0.003 0.116 0.007 0.191 0.132-0.361 0.247-0.69 0.376-1.019 0.030-0.062 0.085-0.108 0.151-0.126l0.002-0c0.377-0.056 0.76-0.101 1.159-0.153z"></path>
      <path fill="#e8e8e8" style="fill: var(--color1, #e8e8e8)"
        d="M11.081 13.697c0.094-0.017 0.17-0.044 0.245-0.042 0.418 0.014 0.837 0.035 1.24 0.053-0.030-0.092-0.070-0.171-0.079-0.253-0.018-0.165-0.107-0.253-0.258-0.257-0.278-0.008-0.556-0.002-0.834 0.002-0.15 0.002-0.209 0.116-0.249 0.239-0.030 0.090-0.048 0.184-0.066 0.258zM12.377 13.525c-0.184-0.049-0.357-0.113-0.535-0.137-0.191-0.026-0.392-0.123-0.588 0.011 0.060-0.060 0.129-0.119 0.203-0.123 0.235-0.011 0.47-0.002 0.706 0.002 0.177 0.004 0.217 0.050 0.216 0.248zM8.87 14.479h-0.402l0.002 0.020h0.4v-0.020zM17.052 16.322l-0.134 0.134c0.048 0.048 0.090 0.117 0.147 0.137 0.034 0.011 0.093-0.058 0.141-0.091l-0.155-0.179zM17.593 16.7l-0.241-0.17-0.141 0.198 0.375 0.019 0.007-0.047zM16.545 16.57c0.044-0.055 0.096-0.105 0.090-0.119-0.024-0.041-0.061-0.073-0.105-0.090l-0.001-0c-0.018-0.007-0.083 0.052-0.079 0.066 0.015 0.043 0.051 0.080 0.096 0.143zM14.829 17.616h-0.277c-0.085-0.105 0.115-0.376-0.205-0.401l-0.053 0.352c-0.089-0.103-0.157-0.191-0.237-0.265-0.028-0.027-0.109-0.043-0.126-0.025-0.032 0.035-0.062 0.108-0.047 0.146 0.037 0.099 0.101 0.186 0.175 0.316l-0.371-0.042c-0.080 0.113-0.072 0.197 0.067 0.252 0.072 0.029 0.14 0.072 0.246 0.128-0.095 0.073-0.161 0.131-0.233 0.177s-0.107 0.107-0.045 0.17c0.033 0.033 0.11 0.035 0.162 0.023 0.073-0.018 0.142-0.062 0.252-0.113-0.037 0.137-0.069 0.227-0.085 0.32-0.007 0.044 0.015 0.092 0.024 0.138 0.055-0.017 0.132-0.017 0.162-0.055 0.061-0.080 0.097-0.18 0.155-0.294l0.195 0.241c0.2-0.119 0.004-0.296 0.075-0.436h0.155c0.148-0.173-0.081-0.215-0.082-0.317l0.092-0.321 0.003 0.006zM14.643 18.12c-0.015 0.12-0.094 0.216-0.247 0.235-0.144 0.018-0.29-0.094-0.338-0.252-0.053-0.169-0.008-0.34 0.117-0.407 0.12-0.066 0.235-0.064 0.357 0.054-0.133-0.012-0.252-0.002-0.256 0.131-0.002 0.090 0.042 0.21 0.107 0.263 0.048 0.038 0.164-0.012 0.261-0.025h-0.001z"></path>
      <path fill="#e8e8e8" style="fill: var(--color1, #e8e8e8)"
        d="M13.778 17.298c-0.483 0.411-0.384 1.291 0.1 1.454-0.421-0.455-0.406-0.942-0.1-1.455zM6.506 18.314c-0.178-0.378-0.161-0.759-0.025-1.142-0.223 0.314-0.212 0.859 0.025 1.142zM3.096 7.428h-0.584l0.658-2.035h0.739l0.658 2.034h-0.584l-0.435-1.474h-0.016l-0.436 1.474zM2.987 6.625h1.098v0.413h-1.098v-0.413zM4.759 7.428v-2.035h0.864c0.152 0 0.279 0.021 0.383 0.063s0.182 0.101 0.234 0.177c0.053 0.076 0.080 0.166 0.080 0.269 0 0.002 0 0.005 0 0.007 0 0.145-0.072 0.274-0.182 0.352l-0.001 0.001c-0.058 0.041-0.125 0.069-0.202 0.085v0.020c0.086 0.003 0.167 0.027 0.236 0.068l-0.002-0.001c0.070 0.040 0.125 0.096 0.167 0.168 0.039 0.069 0.063 0.151 0.063 0.239 0 0.004-0 0.008-0 0.012v-0.001c0 0.112-0.029 0.21-0.085 0.297s-0.137 0.155-0.242 0.205c-0.104 0.050-0.229 0.074-0.373 0.074h-0.938zM5.3 6.987h0.253c0.091 0 0.159-0.018 0.205-0.052s0.068-0.087 0.068-0.155c0-0.002 0-0.005 0-0.007 0-0.042-0.012-0.082-0.033-0.115l0.001 0.001c-0.022-0.033-0.053-0.059-0.090-0.074l-0.001-0c-0.039-0.017-0.085-0.027-0.133-0.027-0.003 0-0.005 0-0.008 0h-0.261v0.429zM5.3 6.216h0.222c0.002 0 0.003 0 0.005 0 0.043 0 0.084-0.008 0.122-0.024l-0.002 0.001c0.035-0.014 0.064-0.036 0.085-0.064l0-0.001c0.020-0.028 0.032-0.063 0.032-0.101 0-0.002-0-0.004-0-0.005v0c0-0.003 0-0.006 0-0.009 0-0.055-0.026-0.103-0.066-0.134l-0-0c-0.044-0.032-0.098-0.051-0.157-0.051-0.004 0-0.007 0-0.011 0l0-0h-0.229v0.389zM6.534 5.838v-0.445h1.732v0.445h-0.599v1.59h-0.533v-1.59h-0.599zM10.306 6.41c0 0.226-0.043 0.418-0.13 0.574s-0.203 0.272-0.349 0.353c-0.146 0.080-0.31 0.119-0.49 0.119-0.182 0-0.346-0.040-0.492-0.12-0.148-0.084-0.267-0.204-0.346-0.349l-0.002-0.005c-0.085-0.155-0.129-0.346-0.129-0.572s0.043-0.417 0.129-0.572c0.086-0.155 0.203-0.273 0.348-0.353s0.31-0.12 0.492-0.12c0.18 0 0.344 0.040 0.49 0.12s0.264 0.197 0.35 0.353c0.086 0.155 0.129 0.346 0.129 0.572zM9.749 6.41c0-0.122-0.016-0.224-0.047-0.308-0.027-0.078-0.075-0.143-0.138-0.189l-0.001-0.001c-0.060-0.041-0.134-0.066-0.214-0.066-0.004 0-0.009 0-0.013 0l0.001-0c-0.004-0-0.008-0-0.012-0-0.080 0-0.154 0.025-0.215 0.067l0.001-0.001c-0.064 0.048-0.112 0.112-0.138 0.188l-0.001 0.003c-0.030 0.085-0.047 0.183-0.047 0.286 0 0.008 0 0.016 0 0.023l-0-0.001c0 0.122 0.015 0.225 0.047 0.309 0.027 0.078 0.076 0.143 0.138 0.19l0.001 0.001c0.062 0.043 0.137 0.064 0.226 0.064s0.165-0.021 0.226-0.065c0.064-0.047 0.112-0.112 0.138-0.187l0.001-0.003c0.031-0.085 0.047-0.188 0.047-0.309zM12.203 7.428h-0.541v-1.593h-0.191c-0.003-0-0.006-0-0.010-0-0.055 0-0.107 0.010-0.156 0.028l0.003-0.001c-0.044 0.016-0.080 0.044-0.105 0.081l-0 0.001c-0.023 0.037-0.036 0.082-0.036 0.131 0 0.004 0 0.008 0 0.012l-0-0.001c0 0.058 0.012 0.104 0.036 0.14 0.025 0.035 0.060 0.062 0.105 0.079s0.1 0.024 0.162 0.024h0.405v0.429h-0.514c-0.151 0-0.284-0.026-0.398-0.077-0.111-0.049-0.202-0.127-0.265-0.224l-0.001-0.002c-0.060-0.099-0.095-0.218-0.095-0.346 0-0.008 0-0.016 0-0.023l-0 0.001c0-0.144 0.031-0.269 0.092-0.372s0.148-0.183 0.259-0.237c0.111-0.055 0.241-0.082 0.388-0.082h0.86v2.034zM11.035 6.494h0.576l-0.486 0.934h-0.588l0.498-0.934zM12.458 7.428v-2.035h0.541v0.795h0.716v-0.795h0.541v2.034h-0.541v-0.795h-0.716v0.795h-0.541zM15.914 5.394v0.445h-0.86v1.59h-0.541v-2.034h1.401zM17.951 6.41c0 0.226-0.043 0.418-0.13 0.574s-0.203 0.272-0.349 0.353c-0.146 0.080-0.31 0.119-0.49 0.119-0.182 0-0.346-0.040-0.492-0.12-0.148-0.084-0.267-0.204-0.346-0.349l-0.002-0.005c-0.085-0.155-0.128-0.346-0.128-0.572s0.043-0.417 0.128-0.572c0.087-0.155 0.203-0.273 0.349-0.353s0.311-0.12 0.492-0.12c0.18 0 0.344 0.040 0.49 0.12 0.147 0.080 0.264 0.197 0.35 0.353s0.129 0.346 0.129 0.572zM17.395 6.41c0-0.122-0.016-0.224-0.047-0.308-0.027-0.078-0.075-0.143-0.138-0.189l-0.001-0.001c-0.060-0.041-0.134-0.066-0.214-0.066-0.004 0-0.009 0-0.013 0l0.001-0c-0.004-0-0.008-0-0.012-0-0.080 0-0.154 0.025-0.215 0.067l0.001-0.001c-0.064 0.048-0.112 0.112-0.138 0.188l-0.001 0.003c-0.030 0.085-0.047 0.183-0.047 0.286 0 0.008 0 0.016 0 0.023l-0-0.001c0 0.122 0.015 0.225 0.047 0.309 0.027 0.078 0.076 0.143 0.138 0.19l0.001 0.001c0.061 0.043 0.137 0.064 0.227 0.064s0.165-0.021 0.226-0.065c0.064-0.047 0.112-0.112 0.138-0.187l0.001-0.003c0.032-0.085 0.047-0.188 0.047-0.309zM18.136 7.428v-0.425l0.054-0.008c0.066-0.009 0.123-0.041 0.165-0.087l0-0c0.044-0.048 0.078-0.125 0.101-0.23s0.039-0.248 0.046-0.43l0.031-0.854h1.444v2.035h-0.521v-1.605h-0.424l-0.032 0.639c-0.012 0.237-0.043 0.426-0.093 0.567s-0.128 0.242-0.23 0.305c-0.104 0.062-0.239 0.093-0.408 0.093h-0.132zM20.233 5.394h0.541v1.065h0.015l0.709-1.065h0.459v2.034h-0.541v-1.069h-0.012l-0.72 1.069h-0.451v-2.034zM2.969 20.373l0.264 0.477h0.013l0.266-0.477h0.486l-0.479 0.819 0.498 0.819h-0.498l-0.272-0.486h-0.013l-0.272 0.486h-0.495l0.491-0.819-0.476-0.819h0.489zM4.185 20.373h0.542l0.373 0.927h0.019l0.373-0.927h0.542v1.637h-0.426v-0.947h-0.013l-0.357 0.934h-0.257l-0.357-0.94h-0.013v0.953h-0.425v-1.637zM6.239 22.011v-1.637h1.155v0.358h-0.72v0.282h0.66v0.358h-0.66v0.282h0.718v0.358h-1.153zM7.558 22.011v-0.342l0.044-0.006c0.053-0.008 0.099-0.033 0.132-0.070l0-0c0.035-0.039 0.063-0.101 0.082-0.185 0.019-0.085 0.032-0.2 0.037-0.346l0.025-0.688h1.162v1.637h-0.42v-1.292h-0.341l-0.025 0.515c-0.009 0.191-0.034 0.343-0.075 0.456s-0.102 0.195-0.186 0.245c-0.083 0.050-0.192 0.075-0.329 0.075h-0.106zM9.521 20.923h0.332c0.135 0 0.254 0.023 0.354 0.067 0.101 0.044 0.18 0.107 0.236 0.187s0.085 0.175 0.084 0.284c0 0.004 0 0.008 0 0.012 0 0.102-0.031 0.198-0.085 0.276l0.001-0.002c-0.059 0.085-0.139 0.151-0.232 0.192l-0.004 0.001c-0.099 0.044-0.215 0.070-0.336 0.070-0.006 0-0.012-0-0.018-0h-0.597v-1.638h0.435v1.289h0.163c0.003 0 0.006 0 0.010 0 0.045 0 0.087-0.010 0.125-0.027l-0.002 0.001c0.065-0.030 0.109-0.095 0.109-0.17 0-0.003-0-0.005-0-0.008v0c0-0.002 0-0.004 0-0.006 0-0.053-0.024-0.101-0.061-0.133l-0-0c-0.041-0.037-0.101-0.055-0.18-0.055h-0.332v-0.34zM10.774 22.011v-1.637h0.435v0.64h0.577v-0.64h0.435v1.637h-0.435v-0.639h-0.576v0.64h-0.435zM12.428 20.373h0.435v0.858h0.012l0.57-0.858h0.37v1.637h-0.435v-0.86h-0.009l-0.579 0.86h-0.364v-1.637zM15.689 21.675l-0.019 0.723h-0.404v-0.387h-0.113v-0.335h0.536zM14.023 22.011v-1.637h0.42v1.296h0.56v-1.295h0.427v1.637h-1.406zM16.112 20.923h0.332c0.135 0 0.253 0.023 0.354 0.067 0.102 0.044 0.18 0.107 0.236 0.187s0.084 0.175 0.084 0.284c0 0.004 0 0.008 0 0.012 0 0.102-0.031 0.198-0.085 0.277l0.001-0.002c-0.059 0.084-0.139 0.151-0.232 0.192l-0.004 0.001c-0.099 0.044-0.215 0.070-0.336 0.070-0.006 0-0.012-0-0.018-0h-0.598v-1.638h0.435v1.289h0.163c0.003 0 0.006 0 0.009 0 0.045 0 0.087-0.010 0.125-0.027l-0.002 0.001c0.065-0.030 0.109-0.095 0.109-0.17 0-0.003-0-0.005-0-0.008v0c0-0.002 0-0.004 0-0.006 0-0.053-0.024-0.101-0.061-0.134l-0-0c-0.041-0.037-0.101-0.055-0.18-0.055h-0.332v-0.34zM18.354 22.011l-0.491-0.662h-0.061v0.662h-0.436v-1.637h0.435v0.617h0.056l0.46-0.617h0.548l-0.611 0.787 0.645 0.851h-0.546zM19.017 20.373h0.436v0.858h0.012l0.57-0.858h0.37v1.637h-0.436v-0.86h-0.009l-0.58 0.86h-0.363v-1.637zM20.61 20.373h0.436v0.858h0.012l0.57-0.858h0.369v1.637h-0.435v-0.86h-0.010l-0.579 0.86h-0.363v-1.637zM21.462 19.931h0.273c0 0.003 0 0.006 0 0.009 0 0.097-0.045 0.184-0.116 0.24l-0.001 0c-0.078 0.061-0.181 0.093-0.313 0.093s-0.236-0.031-0.314-0.093c-0.070-0.056-0.115-0.142-0.115-0.238 0-0.004 0-0.008 0-0.013l-0 0.001h0.27c0 0 0 0.001 0 0.002 0 0.035 0.013 0.067 0.035 0.091l-0-0c0.025 0.027 0.067 0.041 0.125 0.041 0.055 0 0.096-0.014 0.12-0.041 0.022-0.025 0.036-0.058 0.037-0.094v-0z"></path>
      <path fill="#e8e8e8" style="fill: var(--color1, #e8e8e8)"
        d="M12.25 1.267l-11.044 1.99h-1.206v-1.033l12.25-2.207 12.25 2.207v1.034h-1.206l-11.044-1.99zM12.25 30.61s-0.222-0.117-0.603-0.332c-2.306-1.3-10.441-6.17-10.441-10.153v-16.869h-1.206v16.869c0 1.626 0.942 3.152 2.026 4.41 1.12 1.299 2.58 2.526 3.994 3.571 1.421 1.051 2.837 1.948 3.893 2.581 0.306 0.195 0.843 0.508 1.387 0.812l0.258 0.132c0.043 0.023 0.075 0.041 0.098 0.053l0.027 0.015 0.009 0.005h0.001s0.001 0 0.556-1.093zM12.25 30.61s0.222-0.117 0.603-0.332c2.306-1.3 10.441-6.17 10.441-10.153v-16.869h1.206v16.869c0 1.626-0.942 3.152-2.026 4.41-1.12 1.299-2.581 2.526-3.994 3.571-1.421 1.051-2.837 1.948-3.893 2.581-0.306 0.195-0.843 0.508-1.387 0.812l-0.258 0.132c0.043-0.020 0.002 0.003-0.039 0.025l-0.086 0.043-0.009 0.005h-0.001s-0.001 0-0.556-1.093zM11.695 31.704l0.555-1.093 0.555 1.093-0.555 0.294-0.555-0.294z"></path>
    </symbol>
    <symbol id="icon-up" viewBox="0 0 32 32">
      <path
        d="M16 32c8.822 0 16-7.178 16-16s-7.178-16-16-16-16 7.178-16 16 7.178 16 16 16zM16 1.599c7.941 0 14.401 6.46 14.401 14.401s-6.46 14.401-14.401 14.401-14.401-6.46-14.401-14.401 6.46-14.401 14.401-14.401z"></path>
      <path
        d="M12.072 14.108l3.132-3.132v11.967c0 0.444 0.359 0.803 0.803 0.803s0.803-0.359 0.803-0.803v-11.961l3.132 3.132c0.157 0.157 0.359 0.235 0.568 0.235s0.411-0.078 0.568-0.235c0.313-0.313 0.313-0.816 0-1.129l-4.496-4.496c-0.313-0.313-0.816-0.313-1.129 0l-4.496 4.496c-0.313 0.313-0.313 0.816 0 1.129 0.294 0.307 0.803 0.307 1.116-0.007z"></path>
    </symbol>
    <symbol id="icon-down" viewBox="0 0 32 32">
      <path fill="none" stroke="#fff" style="stroke: var(--color1, #fff)" stroke-linejoin="miter"
        stroke-linecap="butt" stroke-miterlimit="4" stroke-width="2.6667"
        d="M9.333 16l6.667 6.667 6.667-6.667M16 8v0zM16 1.333c-8.1 0-14.667 6.567-14.667 14.667s6.567 14.667 14.667 14.667 14.667-6.567 14.667-14.667-6.567-14.667-14.667-14.667z"></path>
    </symbol>
    <symbol id="icon-en" viewBox="0 0 34 32">
      <path fill="#fff" style="fill: var(--color1, #fff)" d="M0 0h33.882v32h-33.882v-32z"></path>
      <path fill="#d22f27" style="fill: var(--color2, #d22f27)"
        d="M0 0h33.882v4.211h-33.882v-4.211zM0 7.578h33.882v3.369h-33.882v-3.369zM0 14.317h33.882v3.368h-33.882v-3.369z"></path>
      <path fill="#1e50a0" style="fill: var(--color3, #1e50a0)"
        d="M0 0h17.487v17.685h-17.487v-17.685z"></path>
      <path fill="#d22f27" style="fill: var(--color2, #d22f27)"
        d="M0 21.052h33.882v3.369h-33.882v-3.369z"></path>
      <path fill="#fff" style="fill: var(--color1, #fff)"
        d="M2.351 5.052c0.021 0.002 0.045 0.003 0.069 0.003 0.467 0 0.845-0.378 0.845-0.845s-0.378-0.845-0.845-0.845c-0.024 0-0.048 0.001-0.072 0.003l0.003-0c-0.469 0-0.847 0.376-0.847 0.841 0 0.467 0.378 0.843 0.847 0.843zM6.722 5.052c0.021 0.002 0.045 0.003 0.069 0.003 0.467 0 0.845-0.378 0.845-0.845s-0.378-0.845-0.845-0.845c-0.024 0-0.048 0.001-0.072 0.003l0.003-0c-0.467 0-0.847 0.376-0.847 0.841 0 0.467 0.38 0.843 0.847 0.843zM11.093 5.052c0.021 0.002 0.045 0.003 0.069 0.003 0.467 0 0.845-0.378 0.845-0.845s-0.378-0.845-0.845-0.845c-0.024 0-0.048 0.001-0.072 0.003l0.003-0c-0.467 0-0.847 0.376-0.847 0.841 0 0.467 0.38 0.843 0.847 0.843zM15.465 5.052c0.021 0.002 0.045 0.003 0.069 0.003 0.467 0 0.845-0.378 0.845-0.845s-0.378-0.845-0.845-0.845c-0.024 0-0.048 0.001-0.072 0.003l0.003-0c-0.469 0-0.847 0.376-0.847 0.841 0 0.467 0.378 0.843 0.847 0.843zM13.28 8.42c0.021 0.002 0.045 0.003 0.069 0.003 0.467 0 0.845-0.378 0.845-0.845s-0.378-0.845-0.845-0.845c-0.024 0-0.048 0.001-0.072 0.003l0.003-0c-0.467 0-0.847 0.376-0.847 0.841 0 0.467 0.38 0.843 0.847 0.843zM8.909 8.42c0.021 0.002 0.045 0.003 0.069 0.003 0.467 0 0.845-0.378 0.845-0.845s-0.378-0.845-0.845-0.845c-0.024 0-0.048 0.001-0.072 0.003l0.003-0c-0.467 0-0.847 0.376-0.847 0.841 0 0.467 0.38 0.843 0.847 0.843zM4.535 8.42c0.021 0.002 0.045 0.003 0.069 0.003 0.467 0 0.845-0.378 0.845-0.845s-0.378-0.845-0.845-0.845c-0.024 0-0.048 0.001-0.072 0.003l0.003-0c-0.469 0-0.847 0.376-0.847 0.841 0 0.467 0.378 0.843 0.847 0.843zM2.351 11.791c0.467 0 0.847-0.376 0.847-0.841-0.001-0.466-0.379-0.843-0.845-0.843-0.001 0-0.001 0-0.002 0h0c-0.021-0.002-0.045-0.003-0.069-0.003-0.467 0-0.845 0.378-0.845 0.845s0.378 0.845 0.845 0.845c0.024 0 0.048-0.001 0.072-0.003l-0.003 0zM6.722 11.791c0.469 0 0.847-0.376 0.847-0.841-0.001-0.466-0.379-0.843-0.845-0.843-0.001 0-0.001 0-0.002 0h0c-0.021-0.002-0.045-0.003-0.069-0.003-0.467 0-0.845 0.378-0.845 0.845s0.378 0.845 0.845 0.845c0.024 0 0.048-0.001 0.072-0.003l-0.003 0zM11.093 11.791c0.469 0 0.847-0.376 0.847-0.841-0.001-0.466-0.379-0.843-0.845-0.843-0.001 0-0.001 0-0.002 0h0c-0.021-0.002-0.045-0.003-0.069-0.003-0.467 0-0.845 0.378-0.845 0.845s0.378 0.845 0.845 0.845c0.024 0 0.048-0.001 0.072-0.003l-0.003 0zM15.465 11.791c0.467 0 0.847-0.376 0.847-0.841-0.001-0.466-0.379-0.843-0.845-0.843-0.001 0-0.001 0-0.002 0h0c-0.021-0.002-0.045-0.003-0.069-0.003-0.467 0-0.845 0.378-0.845 0.845s0.378 0.845 0.845 0.845c0.024 0 0.048-0.001 0.072-0.003l-0.003 0zM13.28 15.159c0.469 0 0.847-0.376 0.847-0.841-0.001-0.466-0.379-0.843-0.845-0.843-0.001 0-0.001 0-0.002 0h0c-0.021-0.002-0.045-0.003-0.069-0.003-0.467 0-0.845 0.378-0.845 0.845s0.378 0.845 0.845 0.845c0.024 0 0.048-0.001 0.072-0.003l-0.003 0zM8.909 15.159c0.469 0 0.847-0.376 0.847-0.841-0.001-0.466-0.379-0.843-0.845-0.843-0.001 0-0.001 0-0.002 0h0c-0.021-0.002-0.045-0.003-0.069-0.003-0.467 0-0.845 0.378-0.845 0.845s0.378 0.845 0.845 0.845c0.024 0 0.048-0.001 0.072-0.003l-0.003 0zM4.535 15.159c0.469 0 0.847-0.376 0.847-0.841-0.001-0.466-0.379-0.843-0.845-0.843-0.001 0-0.001 0-0.002 0h0c-0.021-0.002-0.045-0.003-0.069-0.003-0.467 0-0.845 0.378-0.845 0.845s0.378 0.845 0.845 0.845c0.024 0 0.048-0.001 0.072-0.003l-0.003 0z"></path>
      <path fill="#d22f27" style="fill: var(--color2, #d22f27)"
        d="M0 27.791h33.882v4.209h-33.882v-4.209z"></path>
    </symbol>
    <symbol id="icon-facebook" viewBox="0 0 31 32">
      <path stroke-linejoin="round" stroke-linecap="round" stroke-miterlimit="4" stroke-width="2.56"
        d="M23.040 3.2h-3.84c-3.535 0-6.4 2.865-6.4 6.4v0 3.84h-3.84v5.12h3.84v10.24h5.12v-10.24h3.84l1.28-5.12h-5.12v-3.84c0-0.707 0.573-1.28 1.28-1.28v0h3.84v-5.12z"></path>
    </symbol>
    <symbol id="icon-insta" viewBox="0 0 32 32">
      <path fill="currentColor" stroke="white" style="stroke: var(--color4, white)"
        stroke-linejoin="round" stroke-linecap="round" stroke-miterlimit="4" stroke-width="2.6667"
        d="M22.667 2.667h-13.333c-3.682 0-6.667 2.985-6.667 6.667v0 13.333c0 3.682 2.985 6.667 6.667 6.667v0h13.333c3.682 0 6.667-2.985 6.667-6.667v0-13.333c0-3.682-2.985-6.667-6.667-6.667v0z"></path>
      <path fill="currentColor" stroke="white" style="stroke: var(--color4, white)"
        stroke-linejoin="round" stroke-linecap="round" stroke-miterlimit="4" stroke-width="2.6667"
        d="M21.333 15.16c0.037 0.235 0.058 0.506 0.058 0.782 0 2.946-2.388 5.334-5.334 5.334-2.67 0-4.881-1.962-5.272-4.522l-0.004-0.030c-0.037-0.235-0.058-0.506-0.058-0.782 0-2.946 2.388-5.334 5.334-5.334 2.67 0 4.881 1.962 5.272 4.522l0.004 0.030zM23.333 8.667h0.013"></path>
    </symbol>
    <symbol id="icon-ua" viewBox="0 0 34 32">
      <path fill="#61b2e4" style="fill: var(--color5, #61b2e4)" d="M0 0h33.882v32h-33.882v-32z"></path>
      <path fill="#fcea2b" style="fill: var(--color6, #fcea2b)" d="M0 16h33.882v16h-33.882v-16z"></path>
    </symbol>
    <symbol id="icon-left" viewBox="0 0 32 32">
      <path fill="#262626" stroke="white" style="stroke: var(--color1, white)"
        stroke-linejoin="miter" stroke-linecap="butt" stroke-miterlimit="4" stroke-width="2.6667"
        d="M16 9.333l-6.667 6.667 6.667 6.667M24 16v0zM30.667 16c0-8.1-6.567-14.667-14.667-14.667s-14.667 6.567-14.667 14.667 6.567 14.667 14.667 14.667 14.667-6.567 14.667-14.667z"></path>
    </symbol>
    <symbol id="icon-right" viewBox="0 0 32 32">
      <path fill="#262626" stroke="white" style="stroke: var(--color2, white)"
        stroke-linejoin="miter"
        stroke-linecap="butt" stroke-miterlimit="4" stroke-width="2.6667"
        d="M16 22.667l6.667-6.667-6.667-6.667M8 16v0zM1.333 16c0 8.1 6.567 14.667 14.667 14.667s14.667-6.567 14.667-14.667-6.567-14.667-14.667-14.667-14.667 6.567-14.667 14.667z"></path>
    </symbol>

  </defs>
</svg>