<svg aria-hidden="true" style="position: absolute; width: 0; height: 0; overflow: hidden;"
  version="1.1" xmlns="http://www.w3.org/2000/svg" xmlns:xlink="http://www.w3.org/1999/xlink">
  <defs>
    <symbol id="icon-up" viewBox="0 0 31 32">
      <path stroke-linejoin="miter" stroke-linecap="butt" stroke-miterlimit="4" stroke-width="2.56"
        d="M21.76 16l-6.4-6.4-6.4 6.4M15.36 23.68v0zM15.36 30.080c7.776 0 14.080-6.304 14.080-14.080s-6.304-14.080-14.080-14.080-14.080 6.304-14.080 14.080 6.304 14.080 14.080 14.080z"></path>
    </symbol>
    <symbol id="icon-down" viewBox="0 0 32 32">
      <path fill="none" stroke="#fff" style="stroke: var(--color1, #fff)" stroke-linejoin="miter"
        stroke-linecap="butt" stroke-miterlimit="4" stroke-width="2.6667"
        d="M9.333 16l6.667 6.667 6.667-6.667M16 8v0zM16 1.333c-8.1 0-14.667 6.567-14.667 14.667s6.567 14.667 14.667 14.667 14.667-6.567 14.667-14.667-6.567-14.667-14.667-14.667z"></path>
    </symbol>
    <symbol id="icon-en" viewBox="0 0 34 32">
      <path fill="#fff" style="fill: var(--color1, #fff)" d="M0 0h33.882v32h-33.882v-32z"></path>
      <path fill="#d22f27" style="fill: var(--color2, #d22f27)"
        d="M0 0h33.882v4.211h-33.882v-4.211zM0 7.578h33.882v3.369h-33.882v-3.369zM0 14.317h33.882v3.368h-33.882v-3.369z"></path>
      <path fill="#1e50a0" style="fill: var(--color3, #1e50a0)"
        d="M0 0h17.487v17.685h-17.487v-17.685z"></path>
      <path fill="#d22f27" style="fill: var(--color2, #d22f27)"
        d="M0 21.052h33.882v3.369h-33.882v-3.369z"></path>
      <path fill="#fff" style="fill: var(--color1, #fff)"
        d="M2.351 5.052c0.021 0.002 0.045 0.003 0.069 0.003 0.467 0 0.845-0.378 0.845-0.845s-0.378-0.845-0.845-0.845c-0.024 0-0.048 0.001-0.072 0.003l0.003-0c-0.469 0-0.847 0.376-0.847 0.841 0 0.467 0.378 0.843 0.847 0.843zM6.722 5.052c0.021 0.002 0.045 0.003 0.069 0.003 0.467 0 0.845-0.378 0.845-0.845s-0.378-0.845-0.845-0.845c-0.024 0-0.048 0.001-0.072 0.003l0.003-0c-0.467 0-0.847 0.376-0.847 0.841 0 0.467 0.38 0.843 0.847 0.843zM11.093 5.052c0.021 0.002 0.045 0.003 0.069 0.003 0.467 0 0.845-0.378 0.845-0.845s-0.378-0.845-0.845-0.845c-0.024 0-0.048 0.001-0.072 0.003l0.003-0c-0.467 0-0.847 0.376-0.847 0.841 0 0.467 0.38 0.843 0.847 0.843zM15.465 5.052c0.021 0.002 0.045 0.003 0.069 0.003 0.467 0 0.845-0.378 0.845-0.845s-0.378-0.845-0.845-0.845c-0.024 0-0.048 0.001-0.072 0.003l0.003-0c-0.469 0-0.847 0.376-0.847 0.841 0 0.467 0.378 0.843 0.847 0.843zM13.28 8.42c0.021 0.002 0.045 0.003 0.069 0.003 0.467 0 0.845-0.378 0.845-0.845s-0.378-0.845-0.845-0.845c-0.024 0-0.048 0.001-0.072 0.003l0.003-0c-0.467 0-0.847 0.376-0.847 0.841 0 0.467 0.38 0.843 0.847 0.843zM8.909 8.42c0.021 0.002 0.045 0.003 0.069 0.003 0.467 0 0.845-0.378 0.845-0.845s-0.378-0.845-0.845-0.845c-0.024 0-0.048 0.001-0.072 0.003l0.003-0c-0.467 0-0.847 0.376-0.847 0.841 0 0.467 0.38 0.843 0.847 0.843zM4.535 8.42c0.021 0.002 0.045 0.003 0.069 0.003 0.467 0 0.845-0.378 0.845-0.845s-0.378-0.845-0.845-0.845c-0.024 0-0.048 0.001-0.072 0.003l0.003-0c-0.469 0-0.847 0.376-0.847 0.841 0 0.467 0.378 0.843 0.847 0.843zM2.351 11.791c0.467 0 0.847-0.376 0.847-0.841-0.001-0.466-0.379-0.843-0.845-0.843-0.001 0-0.001 0-0.002 0h0c-0.021-0.002-0.045-0.003-0.069-0.003-0.467 0-0.845 0.378-0.845 0.845s0.378 0.845 0.845 0.845c0.024 0 0.048-0.001 0.072-0.003l-0.003 0zM6.722 11.791c0.469 0 0.847-0.376 0.847-0.841-0.001-0.466-0.379-0.843-0.845-0.843-0.001 0-0.001 0-0.002 0h0c-0.021-0.002-0.045-0.003-0.069-0.003-0.467 0-0.845 0.378-0.845 0.845s0.378 0.845 0.845 0.845c0.024 0 0.048-0.001 0.072-0.003l-0.003 0zM11.093 11.791c0.469 0 0.847-0.376 0.847-0.841-0.001-0.466-0.379-0.843-0.845-0.843-0.001 0-0.001 0-0.002 0h0c-0.021-0.002-0.045-0.003-0.069-0.003-0.467 0-0.845 0.378-0.845 0.845s0.378 0.845 0.845 0.845c0.024 0 0.048-0.001 0.072-0.003l-0.003 0zM15.465 11.791c0.467 0 0.847-0.376 0.847-0.841-0.001-0.466-0.379-0.843-0.845-0.843-0.001 0-0.001 0-0.002 0h0c-0.021-0.002-0.045-0.003-0.069-0.003-0.467 0-0.845 0.378-0.845 0.845s0.378 0.845 0.845 0.845c0.024 0 0.048-0.001 0.072-0.003l-0.003 0zM13.28 15.159c0.469 0 0.847-0.376 0.847-0.841-0.001-0.466-0.379-0.843-0.845-0.843-0.001 0-0.001 0-0.002 0h0c-0.021-0.002-0.045-0.003-0.069-0.003-0.467 0-0.845 0.378-0.845 0.845s0.378 0.845 0.845 0.845c0.024 0 0.048-0.001 0.072-0.003l-0.003 0zM8.909 15.159c0.469 0 0.847-0.376 0.847-0.841-0.001-0.466-0.379-0.843-0.845-0.843-0.001 0-0.001 0-0.002 0h0c-0.021-0.002-0.045-0.003-0.069-0.003-0.467 0-0.845 0.378-0.845 0.845s0.378 0.845 0.845 0.845c0.024 0 0.048-0.001 0.072-0.003l-0.003 0zM4.535 15.159c0.469 0 0.847-0.376 0.847-0.841-0.001-0.466-0.379-0.843-0.845-0.843-0.001 0-0.001 0-0.002 0h0c-0.021-0.002-0.045-0.003-0.069-0.003-0.467 0-0.845 0.378-0.845 0.845s0.378 0.845 0.845 0.845c0.024 0 0.048-0.001 0.072-0.003l-0.003 0z"></path>
      <path fill="#d22f27" style="fill: var(--color2, #d22f27)"
        d="M0 27.791h33.882v4.209h-33.882v-4.209z"></path>
    </symbol>
    <symbol id="icon-facebook" viewBox="0 0 31 32">
      <path stroke-linejoin="round" stroke-linecap="round" stroke-miterlimit="4" stroke-width="2.56"
        d="M23.040 3.2h-3.84c-3.535 0-6.4 2.865-6.4 6.4v0 3.84h-3.84v5.12h3.84v10.24h5.12v-10.24h3.84l1.28-5.12h-5.12v-3.84c0-0.707 0.573-1.28 1.28-1.28v0h3.84v-5.12z"></path>
    </symbol>
    <symbol id="icon-insta" viewBox="0 0 32 32">
      <path fill="currentColor" stroke="white" style="stroke: var(--color4, white)"
        stroke-linejoin="round" stroke-linecap="round" stroke-miterlimit="4" stroke-width="2.6667"
        d="M22.667 2.667h-13.333c-3.682 0-6.667 2.985-6.667 6.667v0 13.333c0 3.682 2.985 6.667 6.667 6.667v0h13.333c3.682 0 6.667-2.985 6.667-6.667v0-13.333c0-3.682-2.985-6.667-6.667-6.667v0z"></path>
      <path fill="currentColor" stroke="white" style="stroke: var(--color4, white)"
        stroke-linejoin="round" stroke-linecap="round" stroke-miterlimit="4" stroke-width="2.6667"
        d="M21.333 15.16c0.037 0.235 0.058 0.506 0.058 0.782 0 2.946-2.388 5.334-5.334 5.334-2.67 0-4.881-1.962-5.272-4.522l-0.004-0.030c-0.037-0.235-0.058-0.506-0.058-0.782 0-2.946 2.388-5.334 5.334-5.334 2.67 0 4.881 1.962 5.272 4.522l0.004 0.030zM23.333 8.667h0.013"></path>
    </symbol>
    <symbol id="icon-ua" viewBox="0 0 34 32">
      <path fill="#61b2e4" style="fill: var(--color5, #61b2e4)" d="M0 0h33.882v32h-33.882v-32z"></path>
      <path fill="#fcea2b" style="fill: var(--color6, #fcea2b)" d="M0 16h33.882v16h-33.882v-16z"></path>
    </symbol>
    <symbol id="icon-left" viewBox="0 0 32 32">
      <path fill="#262626" stroke="white" style="stroke: var(--color1, white)"
        stroke-linejoin="miter" stroke-linecap="butt" stroke-miterlimit="4" stroke-width="2.6667"
        d="M16 9.333l-6.667 6.667 6.667 6.667M24 16v0zM30.667 16c0-8.1-6.567-14.667-14.667-14.667s-14.667 6.567-14.667 14.667 6.567 14.667 14.667 14.667 14.667-6.567 14.667-14.667z"></path>
    </symbol>
    <symbol id="icon-right" viewBox="0 0 32 32">
      <path fill="#262626" stroke="white" style="stroke: var(--color2, white)" stroke-linejoin="miter"
        stroke-linecap="butt" stroke-miterlimit="4" stroke-width="2.6667"
        d="M16 22.667l6.667-6.667-6.667-6.667M8 16v0zM1.333 16c0 8.1 6.567 14.667 14.667 14.667s14.667-6.567 14.667-14.667-6.567-14.667-14.667-14.667-14.667 6.567-14.667 14.667z"></path>
    </symbol>
  </defs>
</svg>