<svg width="68" height="87" viewBox="0 0 68 87" fill="none" xmlns="http://www.w3.org/2000/svg">
<g clip-path="url(#clip0_514_6567)">
<path fill-rule="evenodd" clip-rule="evenodd" d="M34 3.44266L3.3474 8.85135H0V6.04229L34 0.0429688L68 6.04229V8.85135H64.6526L34 3.44266ZM34 83.2206C34 83.2206 33.3839 82.9011 32.3263 82.3171C25.9245 78.7811 3.3474 65.5432 3.3474 54.7124V8.85135C0 8.85135 0 8.85145 0 8.85173V54.7124C0 59.1327 2.61337 63.2828 5.62459 66.7035C8.73217 70.2332 12.7871 73.5693 16.7106 76.4108C20.6559 79.268 24.5843 81.7073 27.5163 83.4286C28.9855 84.2905 30.212 84.9768 31.075 85.4499C31.5068 85.6861 31.848 85.8693 32.0837 85.9951C32.1345 86.0219 32.1804 86.0463 32.2212 86.0678C32.2752 86.0965 32.3204 86.1199 32.3564 86.1391L32.3792 86.151C32.4001 86.162 32.4171 86.1706 32.43 86.1778L32.4504 86.1883L32.4565 86.1912L32.4585 86.1926C32.4592 86.1926 32.4598 86.1931 34 83.2206ZM34 83.2206C34 83.2206 34.6162 82.9011 35.6737 82.3171C42.0755 78.7811 64.6526 65.5432 64.6526 54.7124V8.85135C68 8.85135 68 8.85145 68 8.85173V54.7124C68 59.1327 65.3866 63.2828 62.3754 66.7035C59.2681 70.2332 55.2129 73.5693 51.2893 76.4108C47.3441 79.268 43.4157 81.7073 40.4837 83.4286C39.0145 84.2905 37.788 84.9768 36.925 85.4499C36.4932 85.6861 36.152 85.8693 35.9163 85.9946C35.8295 86.041 35.757 86.0793 35.6995 86.1099C35.6789 86.1204 35.6603 86.1305 35.6436 86.1391C35.624 86.1496 35.607 86.1582 35.5929 86.1658L35.5701 86.1778L35.5496 86.1883L35.5435 86.1912L35.5415 86.1926C35.5408 86.1926 35.5402 86.1931 34 83.2206ZM32.4598 86.1931L34 83.2206L35.5402 86.1931L34 86.9914L32.4598 86.1931Z" fill="#262626"/>
<path d="M35.8577 31.7227C35.6444 31.6257 35.4177 31.5516 35.212 31.4395C35.1606 31.4115 35.1103 31.3834 35.0611 31.3554C35.0602 31.3548 35.0592 31.3543 35.0582 31.3537C34.8337 31.2256 34.634 31.0971 34.4716 30.9674L34.4701 30.9662C34.4099 30.9181 34.3548 30.8698 34.3054 30.8212C34.1212 30.6399 34.0266 30.4653 34.0321 30.2917L34.4869 30.4569C34.5232 30.4701 34.5633 30.4514 34.5765 30.4152C34.5896 30.3788 34.5709 30.3388 34.5346 30.3256L33.9983 30.1307C33.7467 30.0317 33.5035 29.7882 33.3769 29.5558C33.3433 29.4941 33.3195 29.4359 33.3054 29.3836C33.3051 29.3824 33.3048 29.3813 33.3045 29.3801C33.2925 29.3348 33.288 29.294 33.291 29.2593C33.294 29.2231 33.305 29.196 33.3217 29.1761C33.3338 29.1615 33.3512 29.1481 33.3767 29.1377C33.5909 29.299 33.8472 29.3665 34.1206 29.3835C34.1591 29.3859 34.1923 29.3566 34.1947 29.3181C34.1971 29.2796 34.1678 29.2464 34.1292 29.244C33.8606 29.2273 33.6247 29.1596 33.4346 29.0057L33.4335 29.0048C33.2381 28.8529 33.0513 28.6428 32.9562 28.4452C32.9187 28.3673 32.8971 28.2948 32.8927 28.2307C32.8926 28.2299 32.8926 28.2291 32.8925 28.2283C32.8915 28.212 32.8916 28.1963 32.8928 28.1812C32.8974 28.1235 32.9186 28.0721 32.9629 28.0284C33.2463 28.223 33.5463 28.3015 33.8456 28.3437C33.8839 28.3491 33.9192 28.3225 33.9246 28.2842C33.93 28.246 33.9034 28.2107 33.8651 28.2053C33.5618 28.1625 33.2715 28.083 33.001 27.8841L33.0003 27.8835C32.7905 27.7335 32.6528 27.5813 32.5782 27.4256C32.5164 27.2967 32.4963 27.1622 32.5176 27.0188C32.9112 27.205 33.3258 27.3325 33.7586 27.4092C33.7966 27.416 33.8329 27.3906 33.8396 27.3526C33.8463 27.3146 33.821 27.2784 33.7829 27.2716C33.3327 27.1918 32.904 27.0558 32.4996 26.8548C32.4421 26.8227 32.3845 26.7907 32.3269 26.7588L32.3267 26.7587C31.8046 26.4689 31.2895 26.1831 30.8741 25.838C30.453 25.4882 30.1403 25.0821 30.0299 24.5566C30.862 25.0476 31.8055 25.4069 32.7388 25.7623C33.1171 25.9063 33.4937 26.0497 33.8605 26.2009C34.6697 26.5346 35.2909 27.08 35.3637 27.8888C35.5 29.4034 36.4938 31.2945 38.8647 31.787C38.2337 31.7416 35.8577 31.7227 35.8577 31.7227Z" fill="#262626"/>
<path d="M30.7847 25.9438C30.4356 25.6538 30.1504 25.3195 29.9895 24.9076C29.9753 24.9098 29.9603 24.9077 29.9466 24.9006C29.5316 24.6848 29.1319 24.4963 28.741 24.312C27.7348 23.8376 26.7861 23.3903 25.7821 22.5742C25.8047 23.0364 26.1096 23.4597 26.4556 23.9004C27.5301 24.9579 28.8604 25.6337 30.3755 26.1808C30.4118 26.194 30.4306 26.234 30.4175 26.2703C30.4044 26.3066 30.3643 26.3254 30.328 26.3123C28.8073 25.7631 27.4586 25.0807 26.3651 24.0074C26.1235 23.9178 25.9195 23.7833 25.7307 23.6368C25.7974 24.2504 26.2193 24.838 26.8099 25.4235C27.9884 26.4049 29.4522 26.9328 30.6496 27.3646L30.7061 27.385C30.7 27.3429 30.6963 27.3005 30.6949 27.2578C30.694 27.2324 30.7071 27.2085 30.729 27.1955C30.7508 27.1825 30.778 27.1824 30.8 27.1953C31.1361 27.3916 31.34 27.485 31.6207 27.6135C31.7167 27.6575 31.8218 27.7056 31.9443 27.7634C32.2725 27.9182 32.443 27.9915 32.6111 28.0637C32.6592 28.0844 32.7072 28.105 32.7586 28.1274C32.7709 28.0596 32.8003 27.997 32.849 27.9432C32.6641 27.7999 32.5306 27.6478 32.4521 27.484C32.3708 27.3145 32.3503 27.1364 32.3873 26.9503C32.3443 26.9264 32.3013 26.9025 32.2582 26.8786L32.2581 26.8785C31.738 26.5901 31.2109 26.2978 30.7847 25.9438Z" fill="#262626"/>
<path d="M30.5972 27.496C29.4049 27.0662 27.9219 26.5315 26.7247 25.5361C26.37 25.3632 26.1802 25.2264 26.0103 25.0957C26.1722 25.8723 26.6804 26.3517 27.2059 26.8475C27.2471 26.8864 27.2884 26.9253 27.3297 26.9645C28.522 27.806 29.7474 28.16 30.9913 28.5192L31.0363 28.5322C31.0161 28.4799 30.9964 28.4254 30.9775 28.3685C30.9677 28.3392 30.9783 28.307 31.0036 28.2893C31.0289 28.2715 31.0628 28.2725 31.0871 28.2916C31.158 28.3476 31.2393 28.3991 31.3228 28.4428C31.0339 28.1441 30.8282 27.8523 30.7409 27.5479C30.6935 27.5307 30.6456 27.5135 30.5972 27.496Z" fill="#262626"/>
<path d="M30.9477 28.6518C29.7085 28.294 28.4639 27.9347 27.253 27.0813C26.844 26.9407 26.5616 26.7576 26.3128 26.5664C26.4384 27.1576 26.9136 27.5739 27.4118 28.0103L27.4448 28.0393C28.6502 28.8965 29.9724 29.2558 31.0237 29.5415C31.2112 29.5925 31.3901 29.6411 31.5582 29.6898C31.7384 29.7369 31.8933 29.7724 32.022 29.7959C31.8684 29.6812 31.711 29.5561 31.5618 29.3959C31.3957 29.2176 31.2398 28.9966 31.1053 28.6974C31.0534 28.6823 31.0014 28.6673 30.9494 28.6523L30.9477 28.6518Z" fill="#262626"/>
<path d="M30.9916 29.6775C29.9432 29.3929 28.5979 29.0277 27.3727 28.1593C27.1224 28.1046 26.9506 28.0046 26.7988 27.9004C26.9647 28.5548 27.3932 29.0058 27.8736 29.4354C28.3627 29.8193 29.0683 30.082 29.8555 30.2753C30.6416 30.4683 31.501 30.5904 32.2929 30.6972C32.3148 30.6989 32.3365 30.7 32.3578 30.7003C31.9623 30.5018 31.6996 30.1532 31.4941 29.8165C31.3363 29.7711 31.1681 29.7254 30.9916 29.6775Z" fill="#262626"/>
<path d="M29.8222 30.4122C29.0371 30.2194 28.3145 29.9543 27.8024 29.5583C27.7141 29.55 27.6154 29.5207 27.5131 29.481C27.4507 29.4568 27.3855 29.428 27.3187 29.3965C27.5789 30.019 27.9955 30.4683 28.6095 30.7081C30.3756 31.3018 31.6985 31.4053 32.8305 31.4042C32.7815 31.3774 32.732 31.3472 32.6821 31.3114C32.5399 31.2097 32.3961 31.0653 32.2443 30.8329C31.4611 30.727 30.6065 30.6048 29.8222 30.4122Z" fill="#262626"/>
<path d="M32.9575 31.5428C31.7897 31.5515 30.4213 31.4625 28.5762 30.8438L28.477 30.8494C28.7599 31.3699 29.3246 31.7367 30.0839 32.0041C30.913 31.7861 32.0985 31.6897 33.1907 31.9397C33.0898 31.8593 33.0101 31.7726 32.9735 31.6897C32.9534 31.6443 32.9432 31.5928 32.9575 31.5428Z" fill="#262626"/>
<path d="M33.1592 31.406C33.7155 31.5645 34.2798 31.5773 34.8571 31.3983C34.6907 31.2986 34.538 31.1973 34.4058 31.0937C33.7089 31.1548 33.2455 31.0362 32.5911 30.7969C32.5486 30.8196 32.5011 30.8311 32.4556 30.8367C32.4432 30.8382 32.4308 30.8393 32.4183 30.8401C32.5403 31.0111 32.6542 31.1199 32.7635 31.1981C32.8783 31.2802 32.9893 31.3299 33.1084 31.3831L33.1086 31.3832C33.1252 31.3907 33.1421 31.3983 33.1592 31.406Z" fill="#262626"/>
<path d="M32.6071 30.6523C33.2226 30.8789 33.6505 30.9955 34.253 30.9629C34.2374 30.9485 34.2221 30.934 34.2073 30.9195C34.0839 30.7981 33.9882 30.6695 33.936 30.5339C33.3599 30.4113 32.7994 30.23 32.2613 29.9678C32.1224 29.9597 31.9301 29.9249 31.6914 29.8672C31.9135 30.2056 32.1918 30.5151 32.6049 30.6516C32.6057 30.6518 32.6064 30.6521 32.6071 30.6523Z" fill="#262626"/>
<path d="M32.3157 29.8391C32.8231 30.0871 33.3519 30.262 33.8969 30.3827C33.8907 30.3352 33.8902 30.2869 33.8958 30.2378C33.6276 30.1142 33.3846 29.8614 33.2541 29.6217C33.224 29.5663 33.1988 29.5099 33.1808 29.4542C32.6001 29.269 32.048 29.0405 31.5878 28.6965C31.4606 28.664 31.3168 28.603 31.184 28.5254C31.3234 28.8714 31.4887 29.1125 31.6641 29.3006C31.838 29.4873 32.022 29.6227 32.2078 29.7593C32.2437 29.7857 32.2797 29.8122 32.3157 29.8391Z" fill="#262626"/>
<path d="M31.6632 28.5781C32.0881 28.8977 32.5998 29.1172 33.1506 29.2973C33.1499 29.28 33.1502 29.2629 33.1516 29.2463C33.1566 29.1875 33.1757 29.1315 33.2143 29.0852C33.2279 29.069 33.2433 29.0547 33.2605 29.0422C33.085 28.8892 32.9221 28.6956 32.8302 28.5047C32.7947 28.4309 32.7686 28.3551 32.7576 28.2806C32.6861 28.2491 32.6223 28.2217 32.5578 28.194C32.3889 28.1215 32.215 28.0467 31.8846 27.8908C31.765 27.8344 31.6613 27.7869 31.5658 27.7432C31.317 27.6293 31.1236 27.5408 30.8474 27.3848C30.9106 27.7718 31.1975 28.1498 31.6632 28.5781Z" fill="#262626"/>
<path d="M25.6424 32.444C25.2728 32.3911 24.893 32.3796 24.5283 32.3004C24.4372 32.2806 24.3477 32.2603 24.26 32.2395C24.2583 32.239 24.2565 32.2386 24.2547 32.2382C23.8542 32.143 23.4914 32.0361 23.1848 31.9106L23.1821 31.9095C23.0684 31.8629 22.9625 31.8137 22.8654 31.7616C22.5025 31.567 22.2797 31.3426 22.2103 31.0746L22.9795 31.1234C23.0409 31.1273 23.0938 31.0807 23.0977 31.0193C23.1016 30.958 23.055 30.9051 22.9936 30.9012L22.0864 30.8437C21.6575 30.8051 21.1765 30.542 20.8789 30.2434C20.7999 30.1641 20.7373 30.0858 20.6923 30.0122C20.6913 30.0105 20.6904 30.009 20.6894 30.0074C20.6508 29.9434 20.6256 29.883 20.6146 29.8287C20.603 29.7719 20.6076 29.7256 20.6242 29.6876C20.6362 29.66 20.6569 29.6316 20.6911 29.6044C21.091 29.7549 21.5129 29.7432 21.9385 29.6466C21.9985 29.633 22.0361 29.5733 22.0224 29.5134C22.0088 29.4534 21.9491 29.4158 21.8891 29.4295C21.471 29.5244 21.0801 29.5266 20.7205 29.3766L20.7185 29.3758C20.3516 29.2312 19.9719 28.9936 19.738 28.7342C19.6457 28.6319 19.5803 28.5308 19.5448 28.4348C19.5444 28.4336 19.5439 28.4324 19.5434 28.4311C19.5346 28.4067 19.5277 28.3827 19.5227 28.3591C19.504 28.2689 19.5133 28.1807 19.5614 28.094C20.0819 28.2646 20.5758 28.25 21.0522 28.1803C21.1131 28.1714 21.1552 28.1149 21.1463 28.054C21.1374 27.9932 21.0808 27.9511 21.0199 27.96C20.5371 28.0306 20.0576 28.0391 19.5551 27.8564L19.5537 27.8559C19.1658 27.7206 18.887 27.5495 18.7032 27.345C18.5509 27.1756 18.4599 26.9791 18.4283 26.7503C19.1134 26.8584 19.8044 26.8675 20.5003 26.7908C20.5615 26.7841 20.6056 26.7291 20.5988 26.6679C20.5921 26.6069 20.5371 26.5628 20.4759 26.5695C19.7519 26.6493 19.0355 26.6336 18.3273 26.5076C18.2249 26.4843 18.1225 26.4612 18.0202 26.4382L18.0199 26.4382C17.0919 26.2293 16.1764 26.0233 15.3866 25.682C14.5862 25.336 13.9262 24.8554 13.522 24.1016C15.0138 24.479 16.6174 24.6053 18.2033 24.7302C18.8462 24.7808 19.4862 24.8311 20.1147 24.898C21.5012 25.0454 22.6953 25.6006 23.169 26.8044C24.0561 29.0587 26.226 31.8603 29.7641 31.6961C28.7793 31.9096 25.6424 32.444 25.6424 32.444Z" fill="#262626"/>
<path d="M15.2982 25.8855C14.6346 25.5986 14.0487 25.2154 13.6181 24.6579C13.5974 24.6676 13.5735 24.6711 13.5494 24.6663C12.8182 24.5224 12.1228 24.4135 11.4424 24.3069C9.69157 24.0327 8.04088 23.7741 6.14032 22.9766C6.382 23.6731 7.03785 24.1835 7.76424 24.702C9.88085 25.8372 12.2174 26.274 14.7788 26.4313C14.8403 26.435 14.887 26.4878 14.8832 26.5491C14.8794 26.6105 14.8266 26.6572 14.7652 26.6534C12.1943 26.4956 9.82652 26.0568 7.67391 24.9062C7.26433 24.8776 6.89215 24.7633 6.53794 24.6241C6.91496 25.532 7.82325 26.2413 8.98867 26.8717C11.23 27.8438 13.7045 27.9947 15.7286 28.1181L15.824 28.1239C15.7958 28.0623 15.771 27.9991 15.7497 27.9344C15.7371 27.8959 15.7464 27.8536 15.774 27.8239C15.8016 27.7943 15.8431 27.7819 15.8825 27.7917C16.4842 27.9413 16.8377 27.9926 17.3245 28.0633C17.4911 28.0875 17.6733 28.114 17.8864 28.1474C18.4575 28.237 18.7511 28.2726 19.0403 28.3076C19.1233 28.3176 19.2058 28.3276 19.2945 28.3389C19.2828 28.2296 19.2997 28.1207 19.3501 28.0166C19.0031 27.8805 18.7309 27.7079 18.5374 27.4926C18.3372 27.27 18.226 27.007 18.1992 26.7059C18.1229 26.6885 18.0463 26.6713 17.9696 26.6541L17.9695 26.6541C17.0452 26.4462 16.1084 26.2356 15.2982 25.8855Z" fill="#262626"/>
<path d="M15.7064 28.3401C13.6911 28.2174 11.1843 28.0648 8.90796 27.0796C8.28817 26.9743 7.93679 26.8503 7.61859 26.7266C8.21405 27.8412 9.20598 28.3463 10.2315 28.8687C10.3119 28.9096 10.3925 28.9507 10.4731 28.9921C12.6731 29.7441 14.7049 29.7359 16.7676 29.7276L16.8423 29.7273C16.7878 29.6563 16.7334 29.5818 16.6789 29.5035C16.6507 29.4631 16.6525 29.409 16.6832 29.3705C16.7139 29.332 16.7663 29.3183 16.812 29.3367C16.9454 29.3905 17.0928 29.4328 17.24 29.4622C16.6646 29.135 16.2193 28.7811 15.9494 28.3549C15.8693 28.35 15.7883 28.345 15.7064 28.3401Z" fill="#262626"/>
<path d="M16.7605 29.9504C14.7056 29.9589 12.642 29.9673 10.4084 29.2055C9.72016 29.174 9.20619 29.0207 8.74023 28.8398C9.19711 29.6872 10.1102 30.1107 11.0675 30.5546L11.131 30.5841C13.3579 31.3542 15.5402 31.3109 17.2755 31.2764C17.5849 31.2703 17.8802 31.2644 18.1589 31.2635C18.4554 31.2548 18.7082 31.2395 18.9155 31.2178C18.6293 31.1113 18.3326 30.9906 18.0327 30.8127C17.6988 30.6146 17.3616 30.3465 17.0218 29.9494C16.9356 29.9497 16.8494 29.9501 16.7633 29.9504H16.7605Z" fill="#262626"/>
<path d="M17.2873 31.4996C15.5572 31.5344 13.3369 31.5791 11.0746 30.8006C10.6674 30.8292 10.36 30.7534 10.0813 30.6621C10.6281 31.5881 11.4853 32.0855 12.4123 32.5269C13.3321 32.8945 14.5285 32.9799 15.8184 32.9226C17.1067 32.8654 18.4753 32.6667 19.7338 32.4751C19.768 32.4678 19.8017 32.4598 19.8343 32.4507C19.1407 32.3246 18.5829 31.9094 18.1177 31.4868C17.8563 31.4881 17.5787 31.4937 17.2873 31.4996Z" fill="#262626"/>
<path d="M15.8284 33.1457C14.5418 33.2028 13.3183 33.1214 12.358 32.7456C12.2194 32.7726 12.0552 32.7721 11.8811 32.7572C11.7749 32.7481 11.6623 32.7333 11.5461 32.7151C12.2228 33.5501 13.0611 34.0502 14.1071 34.1417C17.0731 34.2577 19.142 33.8228 20.8719 33.3138C20.7851 33.2948 20.6958 33.2707 20.6035 33.2386C20.3404 33.1467 20.056 32.9905 19.7198 32.7031C18.4749 32.8924 17.1137 33.0886 15.8284 33.1457Z" fill="#262626"/>
<path d="M21.1285 33.4688C19.347 34.0055 17.2154 34.4828 14.1173 34.3639L13.9682 34.417C14.634 35.086 15.6617 35.3936 16.9423 35.4621C18.7863 35.3835 20.294 34.687 21.6628 33.9711C21.4725 33.8933 21.3119 33.7966 21.2187 33.6862C21.1676 33.6257 21.129 33.5516 21.1285 33.4688Z" fill="#262626"/>
<path d="M21.9539 34.0703C20.5351 34.8196 18.9391 35.5981 16.9616 35.6847L16.624 35.7938C17.9018 36.2821 19.2289 36.3368 20.6469 35.6995C21.4078 35.3178 22.1091 34.8475 22.6934 34.1858C22.4352 34.1756 22.1791 34.1328 21.9539 34.0703Z" fill="#262626"/>
<path d="M23.4973 33.8544C23.7456 33.2642 23.8921 33.1599 24.4569 32.7029C24.1725 32.652 24.7474 32.5753 24.4811 32.5175C24.4051 32.501 24.3299 32.4841 24.2558 32.4668C23.3771 33.1006 22.4186 33.3784 21.4042 33.391C21.3627 33.424 21.3537 33.4486 21.3519 33.4604C21.3498 33.4738 21.3528 33.5005 21.389 33.5434C21.4645 33.6327 21.6366 33.7332 21.8789 33.8147C21.9091 33.8249 21.9399 33.8346 21.9715 33.844L21.9742 33.8448C22.4438 33.9828 23.0562 34.024 23.4973 33.8544Z" fill="#262626"/>
<path d="M21.3751 33.169C22.2966 33.1619 23.1649 32.9285 23.9672 32.3961C23.6682 32.3184 23.3894 32.2318 23.1407 32.1328C22.1029 32.5386 21.3412 32.5649 20.2336 32.4924C20.1788 32.5463 20.1113 32.5851 20.0442 32.6141C20.026 32.6219 20.0075 32.6292 19.9887 32.636C20.2519 32.8427 20.4748 32.958 20.6769 33.0285C20.8892 33.1026 21.0812 33.1288 21.2872 33.1568L21.2874 33.1569C21.3163 33.1608 21.3455 33.1648 21.3751 33.169Z" fill="#262626"/>
<path d="M20.194 32.2664C21.2365 32.3369 21.9428 32.3233 22.8494 32.0035C22.819 31.9884 22.7892 31.9731 22.7601 31.9575C22.5169 31.8272 22.313 31.6735 22.1724 31.4897C21.2368 31.5606 20.2987 31.5347 19.3585 31.375C19.1425 31.4248 18.833 31.4577 18.4423 31.4765C18.9334 31.8943 19.4976 32.2428 20.1903 32.2662C20.1915 32.2663 20.1928 32.2664 20.194 32.2664Z" fill="#262626"/>
<path d="M19.384 31.1535C20.2709 31.3051 21.1576 31.3354 22.0448 31.2756C22.0141 31.2058 21.9916 31.1322 21.9782 31.0547C21.5128 30.9859 21.028 30.7084 20.721 30.4004C20.6502 30.3293 20.5864 30.2543 20.5339 30.1773C19.5632 30.1544 18.6168 30.0525 17.7591 29.733C17.5501 29.7403 17.3028 29.7115 17.0651 29.6523C17.4332 30.1188 17.7941 30.4133 18.1464 30.6223C18.496 30.8297 18.8379 30.9541 19.1831 31.0798C19.2499 31.1041 19.3169 31.1285 19.384 31.1535Z" fill="#262626"/>
<path d="M17.8214 29.5171C18.6143 29.8154 19.4948 29.9216 20.4176 29.9501C20.4088 29.9239 20.4016 29.8977 20.3963 29.8716C20.3775 29.7796 20.3815 29.6853 20.4199 29.5973C20.4334 29.5665 20.4506 29.5376 20.4712 29.5107C20.1344 29.3556 19.7985 29.1325 19.5725 28.882C19.4852 28.7851 19.4113 28.681 19.3612 28.5719C19.2377 28.5558 19.1279 28.5425 19.0169 28.5291C18.7262 28.4939 18.4268 28.4577 17.8518 28.3674C17.6436 28.3348 17.4639 28.3086 17.2984 28.2846C16.8669 28.222 16.5316 28.1733 16.0394 28.0586C16.3095 28.6219 16.9176 29.0712 17.8214 29.5171Z" fill="#262626"/>
<path d="M18.8445 51.798C20.663 51.8071 21.0499 51.5417 21.7246 49.8323C22.0204 49.0809 22.2608 48.9197 23.065 48.9456C23.6602 48.9647 24.2553 48.9948 24.8523 49.0235C24.9405 49.0178 25.0286 49.0355 25.1079 49.0742C25.8112 49.5845 26.4858 49.3177 27.1793 49.0403C27.4349 48.9403 27.7097 48.8987 27.9835 48.9183C28.7547 48.9824 29.5196 49.102 30.29 49.178C30.5223 49.2014 30.6063 49.2971 30.6734 49.5157C31.0853 50.8625 31.7877 51.369 33.1942 51.369C33.224 51.3709 33.2539 51.3709 33.2836 51.369C34.1111 51.2753 34.7223 51.5077 35.3836 52.1314C37.8366 54.442 42.5004 53.7136 43.8105 50.4335C43.9168 50.1657 44.0785 50.1298 44.3189 50.1307C45.8828 50.1379 47.4466 50.1432 49.0097 50.1307C49.332 50.1307 49.508 50.2254 49.6778 50.5057C51.3696 53.3051 55.8107 53.6834 57.8464 51.2055C58.8296 50.0117 58.9419 48.6141 58.7698 47.1489C58.7669 47.1185 58.7602 47.0885 58.7511 47.0595C58.5723 46.5743 58.6918 46.2232 59.1136 45.8818C59.9313 45.2206 60.0805 44.2869 59.9911 43.2906C59.9906 43.2019 59.9591 43.1162 59.9017 43.0484C59.3766 42.6302 59.4919 42.0387 59.4713 41.4883C59.4603 41.1997 59.4541 40.9334 59.1772 40.7404C59.0663 40.6635 59.028 40.4893 58.9438 40.3687C58.4446 39.6538 57.976 38.9086 57.4246 38.2358C57.2104 37.9767 56.8154 37.789 56.473 37.7256C54.6463 37.3834 52.809 37.0867 50.9766 36.7847C50.7083 36.7418 50.5003 36.681 50.3769 36.4103C50.1526 35.9153 49.6993 35.7991 49.2106 35.7133C48.9251 35.6657 48.6535 35.5555 48.4153 35.3908C47.6226 34.8109 46.8586 34.1925 46.0794 33.5947C44.8801 32.6753 43.5424 32.1919 42.0187 32.0444C38.1011 31.6674 34.179 31.419 30.2471 31.6209C28.4992 31.7103 26.762 31.9953 25.0203 32.2142C24.2276 32.3143 23.6995 32.7932 23.4037 33.5241C23.0463 34.4177 22.6772 35.3112 22.3466 36.2235C22.2375 36.5246 22.0955 36.6212 21.7747 36.6265C19.4084 36.667 17.0417 36.7242 14.6748 36.7981C14.4961 36.8034 14.211 36.9553 14.1574 37.1046C13.8741 37.8954 13.5596 38.6924 13.4265 39.5171C13.2727 40.4669 13.2969 41.4454 13.2406 42.4113C13.2361 42.5007 13.2406 42.6079 13.1897 42.6669C12.548 43.4425 12.8822 44.3699 12.8018 45.2287C12.7902 45.3555 13.0261 45.561 13.1905 45.6396C13.6588 45.8621 14.1458 46.0507 14.6346 46.2285C14.8545 46.3081 14.9376 46.4242 14.9197 46.6547C14.9018 46.8852 14.9331 47.1015 14.9197 47.324C14.9009 47.693 15.0367 47.9287 15.3862 48.0985C15.5425 48.1736 15.6614 48.4104 15.7159 48.5983C15.8946 49.2234 15.984 49.8811 16.2181 50.4837C16.5612 51.3647 17.2208 51.8684 18.2234 51.8052C18.4271 51.788 18.6363 51.798 18.8445 51.798ZM33.2764 46.8594C33.0441 46.8594 32.7796 46.8692 32.5159 46.8594C29.4818 46.7265 26.448 46.5916 23.4145 46.4546C22.4315 46.4117 22.0392 46.1955 21.9185 45.2349C21.7522 43.8498 21.6764 42.4553 21.6916 41.0603C21.6969 40.0729 21.7612 39.0471 22.0392 38.1116C22.469 36.6632 23.1115 35.279 23.6477 33.8619C23.8961 33.2078 24.3384 32.8263 25.0239 32.6645C27.1096 32.1731 29.2319 32.0632 31.3605 32.006C32.2613 31.9819 32.969 32.3518 33.5177 33.0613C34.2148 33.9709 34.9189 34.8752 35.6097 35.7893C35.9779 36.2744 36.4515 36.555 37.06 36.5211C37.7356 36.4845 38.4103 36.329 39.0823 36.3424C41.4638 36.3915 43.8444 36.4836 46.2241 36.5729C47.0445 36.6042 47.863 36.6757 48.7898 36.7355L47.6825 35.6025C48.3742 36.0663 48.9676 36.4818 49.5807 36.8651C49.8045 37.0041 50.0527 37.0987 50.3123 37.1439C52.3232 37.4754 54.3335 37.7917 56.3496 38.1053C57.0263 38.2108 57.3801 38.6736 57.6508 39.2741C57.4174 39.2534 57.1879 39.1996 56.9698 39.1141C56.8197 39.0605 56.6743 38.9497 56.5232 38.9461C54.1566 38.8818 51.7905 38.8276 49.4243 38.7835C49.1943 38.7835 48.9629 38.8774 48.7324 38.9256C48.4689 38.981 48.2016 39.0918 47.94 39.0811C46.4833 39.0212 45.0276 38.9229 43.571 38.8577C43.193 38.8416 42.8561 38.8389 42.588 38.4869C42.4754 38.3385 42.201 38.2822 41.9892 38.2438C41.4924 38.1545 40.9884 38.0982 40.4871 38.033C39.3653 37.8882 38.2435 37.7446 37.1217 37.6023C37.363 37.7461 37.6311 37.8971 37.9161 37.9391C39.2842 38.1393 40.6586 38.3019 42.0268 38.5012C42.2171 38.5289 42.3842 38.6879 42.6469 38.8282C42.0849 39.031 41.5299 38.7058 41.2046 39.2276C41.6515 39.0918 41.8704 39.2875 41.9892 39.6744C42.2574 40.5465 42.8248 40.978 43.7586 41.0147C44.8578 41.0567 45.9543 41.1782 47.0498 41.2783C47.1955 41.2908 47.4126 41.3444 47.4609 41.4445C47.6021 41.7385 47.6763 42.07 47.7853 42.4077C45.8747 42.3416 44.032 42.263 42.1867 42.221C41.546 42.2067 41.1144 42.0494 40.7114 41.4499C39.0394 38.9721 35.8215 39.1088 34.3434 41.7108C33.9413 42.4184 33.6866 43.2441 33.5267 44.0483C33.3533 44.9588 33.356 45.9006 33.2764 46.8611V46.8594ZM52.4571 45.3582C51.921 45.3582 51.4418 45.3806 50.9684 45.3582C50.1947 45.3135 49.4377 45.3323 48.6716 45.5182C47.8927 45.7085 47.0945 45.7407 46.2938 45.4932C44.2921 44.8739 42.286 44.2708 40.269 43.706C39.7328 43.555 39.4514 43.2405 39.2583 42.7616C39.1386 42.4649 39.1842 42.355 39.5265 42.3711C40.731 42.4301 41.9392 42.448 43.1403 42.5257C46.0463 42.7133 48.949 42.9242 51.8541 43.1297C51.9526 43.1476 52.0487 43.1776 52.14 43.219C52.3251 43.2807 52.5073 43.3978 52.6938 43.3978C53.7205 43.4282 54.7491 43.4255 55.7753 43.4487C56.1507 43.4568 56.5108 43.4898 56.792 43.1485C56.867 43.0591 57.055 43.035 57.1941 43.0243C57.7885 42.9814 58.3997 43.0243 58.9716 42.8983C59.38 42.8045 59.5124 42.96 59.5684 43.2495C59.817 44.5272 59.1916 45.3832 57.8655 45.796L57.9038 45.4109H56.2999V44.6353H52.4571V45.3582ZM14.9134 45.6325C14.5765 45.5074 14.3773 45.3046 14.3889 44.9177C14.3996 44.5764 14.3799 44.2333 14.3594 43.8919C14.3308 43.4165 14.4264 42.8822 13.9125 42.7482C14.1092 42.3908 14.4005 42.0807 14.4487 41.7331C14.556 41.0013 14.5077 40.248 14.5801 39.5091C14.6266 39.0418 14.6105 38.6826 14.044 38.6531C14.094 37.7702 14.3299 37.5343 15.1467 37.521C16.3218 37.5031 17.4969 37.4825 18.672 37.4727C19.6961 37.4647 20.7211 37.4727 21.7603 37.4727C21.083 39.0596 21.3636 40.7895 21.1983 42.598C21.0544 42.3041 20.9945 42.1156 20.8828 41.9654C20.4682 41.4097 20.1134 40.7779 19.5969 40.3365C18.4951 39.3956 16.9268 39.6431 16.1431 40.861C15.794 41.4103 15.54 42.0144 15.3915 42.6481C15.1663 43.6131 15.0716 44.6058 14.9134 45.6325ZM40.3656 35.7794C39.4719 35.8643 38.6677 35.9349 37.8634 36.0189C36.96 36.1136 36.2549 35.867 35.7616 35.0298C35.4176 34.4445 34.9502 33.9325 34.5445 33.383C34.4469 33.2336 34.3574 33.0791 34.2764 32.9201H38.4925V33.0023L37.5542 33.1158L40.3656 35.7794ZM40.6694 44.3744L40.7042 44.2922C40.7732 44.2914 40.842 44.2973 40.9097 44.3101C41.8641 44.5898 42.8096 44.9061 43.7747 45.1473C45.2367 45.5128 46.6593 46.1052 48.214 45.9909C48.2212 45.9909 48.2322 46.0355 48.2456 46.073L47.4305 46.4617L47.4618 46.6262C49.1417 45.5539 50.956 45.6254 52.8717 45.8318L52.2328 46.636L52.6794 46.8799C52.1051 46.8799 51.6145 46.8888 51.1248 46.8799C49.7261 46.8513 48.3259 46.8567 46.931 46.7709C45.2331 46.6672 43.7238 45.9363 42.2198 45.2215C41.689 44.965 41.185 44.6568 40.6694 44.3744ZM35.7285 48.3319C35.7106 47.6578 35.9044 46.995 36.2826 46.4367C37.3281 44.9007 39.3414 44.9016 40.3852 46.4367C41.1582 47.576 41.126 49.1904 40.3065 50.2881C39.3209 51.6192 37.5918 51.6952 36.5006 50.4574C35.9663 49.8553 35.7268 49.1354 35.7285 48.3319ZM50.4018 42.4077C49.7299 42.4077 49.1365 42.4292 48.5468 42.3934C48.455 42.3785 48.368 42.3433 48.2915 42.2904C48.215 42.2376 48.1514 42.1684 48.105 42.0879C47.906 41.6408 47.7308 41.1835 47.5798 40.7181C47.5431 40.6144 47.5234 40.4455 47.5798 40.3776C48.0667 39.7968 48.5521 39.1177 49.3813 39.1213C51.7331 39.1338 54.0853 39.2169 56.4366 39.2857C56.8627 39.2982 57.1104 39.6163 57.45 39.9433C57.1262 39.8933 56.9134 39.8281 56.7087 39.8397C56.5046 39.8513 56.2961 39.9871 56.0904 39.9845C54.3187 39.9648 52.5465 39.9353 50.7752 39.8817C50.4548 39.8613 50.1397 39.7853 49.8451 39.6574C49.3722 39.468 48.1872 40.2293 48.2107 40.7377C48.2183 40.7968 48.2322 40.8549 48.2518 40.911C48.5832 42.1709 48.5832 42.17 49.87 42.2129C49.9743 42.2072 50.0785 42.2138 50.1813 42.2326C50.2492 42.2487 50.3018 42.3264 50.4018 42.4077ZM16.1412 47.6331L16.2655 47.5894C16.2798 46.896 16.3906 46.2241 16.7847 45.6343C17.3038 44.8578 18.0635 44.8551 18.5924 45.6165C19.2931 46.6253 19.2913 48.5251 18.5924 49.5238C18.0563 50.2895 17.2601 50.313 16.8052 49.4937C16.4871 48.9259 16.3549 48.2568 16.144 47.6331H16.1412ZM47.1213 40.76L47.1061 40.9191C45.8443 40.8967 44.5933 40.8146 43.3601 40.5393C42.6863 40.3874 42.3458 39.9478 42.2877 39.1677C44.2001 39.0105 46.099 39.1937 48.0237 39.4171L47.3429 39.8638L47.3063 39.8245L47.5198 39.5377L47.4386 39.4162C47.2679 39.51 47.0722 39.5752 46.931 39.7012C46.4752 40.1051 45.6254 40.0711 45.2661 39.6038C45.2304 39.5564 45.2617 39.4572 45.2617 39.3804H44.6692C44.6129 39.6208 44.6236 39.9299 44.5084 39.9871C44.2862 40.0767 44.039 40.0821 43.8131 40.0023C43.562 39.913 43.3136 39.7343 43.4664 39.3554L42.8623 39.3956C43.041 39.9165 43.2341 40.3312 43.8453 40.3847C44.4565 40.4383 45.0803 40.5635 45.7004 40.6358C46.1723 40.6894 46.6486 40.718 47.1213 40.76ZM20.7595 45.2465C20.7157 45.1062 20.6746 44.965 20.6281 44.8266C20.2832 43.8097 19.9132 42.8027 19.1983 41.9744C18.6434 41.331 17.9607 40.9513 17.0778 41.0746C16.8587 41.1192 16.6424 41.1765 16.4299 41.2461C17.1046 40.4276 18.0572 40.1596 18.7783 40.5671C18.8034 40.7457 18.848 40.9164 18.9571 41.0263C20.1134 42.1915 20.5548 43.6667 20.7595 45.2465ZM57.4873 45.7442C57.4552 45.9131 57.4275 46.0632 57.3873 46.2732L58.5943 45.7219L58.6765 45.8452C58.1806 46.1963 57.7268 46.7182 57.1774 46.854C56.4696 47.0327 55.6849 46.8969 54.9834 46.8969C55.2354 46.6199 55.4936 46.3071 55.7877 46.0293C55.925 45.8879 56.1024 45.7921 56.2961 45.7549C56.6734 45.7156 57.0602 45.7442 57.4853 45.7442H57.4873ZM40.1162 41.8627C39.606 41.9234 39.203 41.8528 38.816 41.5053C38.5354 41.2488 38.127 41.0987 37.7499 40.9888C36.9457 40.7538 36.1709 40.9432 35.3586 41.3936C36.6526 40.0086 39.0323 39.946 40.1144 41.8627H40.1162ZM32.9762 32.0391C36.6633 32.0712 40.3271 32.1508 43.9489 32.7798C43.9353 32.8024 43.9153 32.8206 43.8916 32.8321C43.8678 32.8437 43.8412 32.8482 43.8149 32.8451C40.6462 32.3759 37.4497 32.3286 34.2532 32.2321C33.9851 32.224 33.7063 32.3214 33.3515 32.3795L32.9762 32.0391ZM50.4285 41.2425C50.5055 40.5322 50.9995 40.19 51.6064 40.4455C51.9889 40.6064 52.0908 40.9387 52.1147 41.3095C52.1391 41.6804 52.1147 42.0682 51.7474 42.2925C51.6795 42.3399 51.603 42.3733 51.5222 42.3909C51.4409 42.4085 51.3572 42.4097 51.2759 42.3947C51.1946 42.3797 51.1167 42.3486 51.0473 42.3032C50.978 42.2579 50.9182 42.1993 50.8718 42.1307C50.67 41.8797 50.5696 41.5455 50.4262 41.247L50.4285 41.2425ZM57.1219 41.2613C57.3008 41.0156 57.4399 40.693 57.6795 40.5644C57.8244 40.4875 58.2256 40.6448 58.3451 40.8146C58.633 41.2211 58.6268 41.7152 58.4212 42.17C58.2423 42.5596 57.8115 42.6222 57.5633 42.2737C57.372 42.0146 57.2907 41.6732 57.119 41.2658L57.1219 41.2613ZM13.6185 42.2049C13.6927 41.1049 13.7615 40.0774 13.8322 39.0364C14.3075 39.149 14.3326 40.0935 13.9546 40.5947C14.2995 40.9495 14.1538 41.969 13.6159 42.2093L13.6185 42.2049ZM39.1868 43.5881C37.3612 43.3656 35.9698 44.0411 34.8841 45.4377C35.3818 44.0724 37.5381 42.9501 38.8937 43.3316C39.0064 43.3638 39.0903 43.5005 39.1868 43.5881ZM16.1314 44.9507C16.2297 44.395 16.4585 43.9062 16.8758 43.5274C17.2601 43.1771 17.7194 43.1279 18.1438 43.438C19.0572 44.0965 19.3458 45.0919 19.5531 46.1186C19.4503 45.956 19.3994 45.7684 19.3119 45.5995C19.0438 45.0866 18.8257 44.5379 18.4835 44.0804C17.899 43.3013 17.193 43.3433 16.6247 44.1341C16.438 44.3923 16.2923 44.6782 16.1296 44.9507H16.1314ZM55.8312 48.7753C55.8312 49.7582 55.0451 50.5382 54.0815 50.6382C53.0596 50.7434 52.0869 50.3326 51.9425 49.6845C52.0358 49.7362 52.1252 49.7936 52.2103 49.8572C53.381 50.8883 54.8299 50.5928 55.508 49.189C55.5706 49.0608 55.6849 48.9589 55.8298 48.7753H55.8312ZM50.8647 42.4506C50.2784 42.2719 50.0489 41.8171 49.9986 41.2551C49.9604 40.8208 50.0613 40.4169 50.4749 40.1828C50.7968 40.0041 51.1401 39.9148 51.5858 40.1935C50.9603 40.0935 50.5137 40.2096 50.3171 40.7431C50.0446 41.4463 50.3721 41.9744 50.8628 42.4506H50.8647ZM46.5592 47.5241L44.8024 48.8642L44.705 48.7332C45.2313 48.198 45.5601 47.3991 46.5592 47.5241ZM57.4284 42.4765C56.8465 42.1254 56.6241 41.1862 56.9608 40.6001C57.2013 40.1774 57.6178 40.0684 58.2122 40.3651C57.6972 40.2328 57.3505 40.307 57.1592 40.6904C56.8359 41.3435 57.0306 41.9207 57.4284 42.4765ZM57.0951 47.3964C56.7044 47.9541 56.1952 48.1114 55.5998 48.3692L56.4783 47.5983L55.9862 47.4008L57.0951 47.3964ZM31.7895 49.3459C32.0397 49.4114 32.3525 49.5955 32.6009 49.5319C32.869 49.4631 33.0754 49.1613 33.3444 48.9307C33.4033 49.3105 33.2103 49.5228 32.9244 49.6697C32.5052 49.8839 32.096 49.7429 31.7895 49.3459ZM59.0878 42.5051C58.6928 42.38 58.6412 41.969 58.8802 41.2694C59.1906 41.6572 58.996 42.0762 59.0878 42.5051ZM44.814 40.3901C45.1169 40.0801 45.6459 40.1426 46.124 40.4866L44.814 40.3901ZM49.222 36.0645C49.8681 36.0645 50.0364 36.1985 50.1043 36.799L49.222 36.0645ZM13.6516 43.3986C13.5301 43.7713 13.4148 44.1251 13.2995 44.4808C13.2674 43.3656 13.3049 43.1959 13.6516 43.3986Z" fill="#262626"/>
<path d="M27.0291 45.5887C26.8585 44.7916 26.9309 44.0321 27.047 43.2377C27.1989 42.1994 27.0756 41.1227 27.1873 40.0755C27.2767 39.2713 27.5322 38.4904 27.7333 37.704C27.8075 37.4145 28.0121 37.31 28.3347 37.3136C29.9718 37.3332 31.6098 37.3225 33.2032 37.3225C33.3372 37.4619 33.4712 37.5611 33.5499 37.6933C33.6121 37.8139 33.6429 37.9482 33.6392 38.0838C33.6464 39.2293 33.6392 40.374 33.6392 41.6124C33.7161 40.5473 33.7804 39.5733 33.8582 38.6012C33.8957 38.133 33.9476 37.6853 34.1835 37.2403C34.3048 37.0145 34.3655 36.7612 34.3597 36.505C34.3539 36.2488 34.2818 35.9985 34.1504 35.7785C33.6902 35.0145 33.2023 34.2666 32.6956 33.5339C32.5438 33.311 32.3411 33.1275 32.1043 32.9985C31.8675 32.8695 31.6033 32.7988 31.3337 32.7922C29.2506 32.6755 27.161 32.8256 25.1159 33.239C24.9549 33.2838 24.8048 33.361 24.6748 33.466C24.5447 33.5709 24.4376 33.7014 24.3599 33.8493C23.9971 34.6437 23.7245 35.4791 23.4359 36.3048C23.3152 36.6506 23.4225 36.9365 23.8031 37.033C24.2589 37.1492 24.7191 37.2903 25.1838 37.3172C25.9881 37.3636 26.7923 37.3296 27.6046 37.3296C27.6046 37.3895 27.6198 37.4378 27.6046 37.4691C27.1078 38.3626 26.9469 39.3455 26.904 40.348C26.8718 41.121 26.8826 41.8965 26.8513 42.6713C26.8375 43.0095 26.7939 43.3459 26.7208 43.6765C26.5713 44.3297 26.6819 45.0155 27.0291 45.5887ZM28.4992 33.2489C27.3938 33.3901 26.333 33.5169 25.2821 33.6733C25.1899 33.6956 25.1037 33.7379 25.0295 33.7972C24.9554 33.8565 24.8952 33.9313 24.8532 34.0164C24.4957 34.9019 24.1749 35.8035 23.8103 36.7864C23.7996 36.5817 23.7451 36.4075 23.7915 36.2664C24.0346 35.5185 24.2991 34.7777 24.5654 34.0378C24.6914 33.6894 24.9425 33.4928 25.317 33.4231C27.3523 33.0493 29.4251 32.9212 31.491 33.0415C32.0495 33.0728 32.6125 33.5223 32.7421 34.0512C32.1969 33.2623 31.3963 33.1792 30.5491 33.2194C30.4155 33.2296 30.2814 33.2296 30.1478 33.2194C29.8896 33.1908 29.7314 33.2783 29.6626 33.5446C29.3945 34.5632 29.0988 35.5739 28.8673 36.6005C28.7779 36.9883 28.6323 37.1 28.2418 37C28.3598 36.3325 28.475 35.6819 28.5903 35.0342L28.5108 35.0208C28.3562 35.6936 28.2016 36.3655 28.0434 37.0563L27.4286 36.9973L28.4992 33.2489ZM29.9057 36.5979C29.9575 36.3941 30.0067 36.1395 30.0844 35.8955C30.1952 35.5605 30.3579 35.2513 30.7752 35.245C31.5455 35.2334 32.3176 35.2191 33.0879 35.2405C33.5097 35.2522 33.7563 35.4916 33.8028 35.9393C33.8269 36.1627 33.9386 36.3762 34.0208 36.6273C32.9074 36.5791 31.7439 36.5219 30.5795 36.4844C30.3767 36.4781 30.1657 36.5523 29.9057 36.5979Z" fill="#262626"/>
<path d="M38.0359 37.1897C38.2334 37.2612 38.4255 37.3685 38.6293 37.3979C39.8329 37.5936 41.042 37.7553 42.2431 37.9679C42.5344 38.0188 42.8015 38.2046 43.0831 38.3252C43.2096 38.3926 43.3459 38.44 43.487 38.4655C45.0598 38.587 46.6325 38.6987 48.2064 38.8112C48.2795 38.8166 48.3752 38.8381 48.4244 38.8023C48.9605 38.4092 49.5664 38.5486 50.1536 38.5602C52.0597 38.5977 53.9648 38.6415 55.8681 38.6915C56.2334 38.7005 56.5983 38.7451 56.9512 38.7728C56.8618 38.4807 56.6408 38.3717 56.3013 38.3628C54.1882 38.3038 52.0731 38.2797 49.9647 38.1403C47.309 37.9617 44.6594 37.6999 42.0116 37.4551C40.8266 37.3461 39.6462 37.1916 38.463 37.062C38.3323 37.0548 38.2014 37.0548 38.0707 37.062C38.0564 37.1013 38.0457 37.1451 38.0359 37.1897Z" fill="#262626"/>
<path d="M33.138 43.4645C33.1103 42.9874 32.7948 42.7801 32.4588 42.6908C31.5571 42.4523 30.6456 42.2397 29.7279 42.0753C29.0863 41.96 28.4259 41.9457 27.7753 41.8761C27.6355 41.8499 27.4983 41.8116 27.3652 41.7617V43.2036L33.138 43.4645Z" fill="#262626"/>
<path d="M26.6449 43.1786V41.7832H22.5459C22.4985 42.4434 22.8274 42.9205 23.5548 42.9973C24.5681 43.1045 25.5904 43.1215 26.6449 43.1786Z" fill="#262626"/>
<path d="M27.2293 45.5312C27.2883 46.246 27.2892 46.2362 27.8888 46.2549C29.4348 46.3023 30.9807 46.3559 32.5276 46.4059C32.6876 46.4112 32.8484 46.4059 33.0289 46.4059V45.6912L27.2293 45.5312Z" fill="#262626"/>
<path d="M22.3063 45.1973C22.5583 45.8906 22.8005 46.0907 23.5941 46.1005C24.7799 46.1166 25.9658 46.1005 27.1248 46.1005C26.946 45.7932 26.7146 45.4644 26.1338 45.4876C25.2432 45.5116 24.352 45.4904 23.4636 45.4242C23.0668 45.4037 22.6754 45.275 22.3063 45.1973Z" fill="#262626"/>
<path d="M47.0195 41.9149C47.0713 41.4736 46.8068 41.4682 46.544 41.4459C45.4789 41.3619 44.4154 41.2485 43.3493 41.1957C42.571 41.1573 42.0795 40.7749 41.765 40.1004C41.7364 40.0397 41.7069 39.9789 41.6479 39.8574C41.6399 40.8285 42.0742 41.4655 42.8686 41.5549C44.2358 41.7085 45.6138 41.7961 47.0195 41.9149Z" fill="#262626"/>
<path d="M22.3055 37.8964C22.5557 37.8544 22.805 37.7793 23.0552 37.7767C24.3322 37.765 25.6101 37.7767 26.888 37.7659C27.0336 37.7659 27.1793 37.6766 27.324 37.6346C27.3124 37.5685 27.3008 37.5015 27.2883 37.4354C26.5046 37.4354 25.7209 37.4354 24.9363 37.4354C24.2974 37.4354 23.6575 37.4515 23.0204 37.4149C22.6102 37.3925 22.3573 37.5024 22.3055 37.8964Z" fill="#262626"/>
<path d="M27.9541 37.7853C29.2462 37.7853 30.5393 37.7665 31.8306 37.7942C32.3908 37.8067 32.9494 37.9139 33.5776 37.9863C33.3515 37.7665 33.1701 37.5191 32.8386 37.5146C31.3069 37.4967 29.775 37.4887 28.2427 37.4905C28.1301 37.4905 28.0175 37.5798 27.9049 37.6334L27.9541 37.7853Z" fill="#262626"/>
<path d="M29.2453 38.7763C29.172 38.7539 29.0934 38.7548 29.0666 38.7173C28.6672 38.1938 28.2382 38.4948 27.8441 38.7003C27.7315 38.7593 27.6144 39.0621 27.6654 39.1363C27.786 39.3096 28.0041 39.4186 28.1909 39.541C28.4706 39.7197 28.5948 39.4847 28.7851 39.3445C28.9754 39.2042 29.3195 39.1988 29.2453 38.7763Z" fill="#262626"/>
<path d="M34.2031 40.3006C34.65 39.8959 35.0878 39.5287 35.473 39.1115C35.5623 39.0105 35.473 38.7398 35.4658 38.5469C35.3264 38.5906 35.1638 38.6023 35.053 38.6845C34.7688 38.8953 34.5168 39.1428 34.2362 39.3652C33.8948 39.6413 33.952 39.9316 34.2031 40.3006Z" fill="#262626"/>
<path d="M34.8269 36.4925C34.7956 36.2021 34.8385 35.8769 34.7196 35.6286C34.2058 34.5476 33.5526 33.539 32.6143 32.7894C32.2622 32.508 31.7207 32.432 31.2471 32.3427C30.8592 32.2721 30.449 32.3284 30.0478 32.357C30.5348 32.4026 31.0397 32.3838 31.5035 32.5107C31.9307 32.6277 32.423 32.8091 32.6947 33.1262C33.3479 33.8883 33.9091 34.7343 34.4623 35.5741C34.6303 35.8296 34.6508 36.1825 34.7393 36.4916L34.8269 36.4925Z" fill="#262626"/>
<path d="M22.3627 38.9689C22.553 39.0047 22.6826 38.9904 22.7147 39.0404C23.1222 39.6711 23.5002 39.1914 23.8702 39.0029C23.9221 38.9664 23.9661 38.9198 23.9995 38.8659C24.033 38.812 24.0553 38.752 24.065 38.6893C24.074 38.6375 23.922 38.5562 23.8416 38.491C23.7714 38.4494 23.7074 38.3983 23.6513 38.3391C23.486 38.0961 23.3001 38.1149 23.0775 38.2551C22.9355 38.3445 22.7496 38.3811 22.6307 38.4919C22.5119 38.6026 22.4681 38.7742 22.3627 38.9689ZM23.7719 38.7232L23.7773 38.7795H22.662L22.6558 38.7232H23.7719Z" fill="#262626"/>
<path d="M47.4136 45.2052C47.5172 45.2124 47.6405 45.2588 47.7219 45.2186C47.9945 45.0846 48.2518 44.9202 48.5143 44.7674C48.3847 44.5638 48.2848 44.3306 48.1193 44.1617C47.9391 43.9643 47.7175 43.8086 47.4706 43.7056C47.2236 43.6027 46.9571 43.555 46.6897 43.5659C46.0373 43.5837 45.3824 43.5096 44.7282 43.4926C44.3601 43.4837 44.2814 43.6177 44.419 43.9643C44.6433 44.5254 44.9355 44.9693 45.6459 44.9953C46.2367 45.0158 46.8237 45.1418 47.4136 45.2222V45.2052ZM46.4699 43.7294L46.8988 44.2162C46.7666 44.3056 46.6021 44.4941 46.5074 44.4646C46.3484 44.4137 46.2331 44.2243 46.0999 44.0938L46.4699 43.7294ZM47.9759 44.7585L47.9558 44.8899L46.914 44.8389L47.3054 44.3029L47.9759 44.7585ZM45.0696 44.4012C44.9454 44.2278 44.848 44.1278 44.8015 44.0081C44.7899 43.9759 44.9704 43.816 45.0204 43.8294C45.1438 43.8759 45.2477 43.9629 45.3153 44.076C45.3359 44.1206 45.1875 44.2528 45.0669 44.4039L45.0696 44.4012Z" fill="#262626"/>
<path d="M59.1279 43.8457C58.1763 44.2343 58.0816 44.3916 58.2505 45.251C58.8162 45.2403 59.2226 44.6033 59.1279 43.8457Z" fill="#262626"/>
<path d="M20.7988 38.7742C20.5424 37.938 20.4735 37.8951 19.6925 37.9184C18.2031 37.963 16.7138 38.0026 15.2244 38.0372C15.0653 38.0372 14.9054 37.9809 14.7481 37.988C14.6516 37.9934 14.5596 38.072 14.4657 38.1176L14.4961 38.2418C14.6489 38.2534 14.8017 38.2766 14.9545 38.2739C16.2199 38.2516 17.4853 38.2471 18.7497 38.1908C19.5093 38.1578 20.2081 38.2382 20.7988 38.7742Z" fill="#262626"/>
<path d="M40.3039 47.2468C40.0474 46.4615 39.5184 45.9638 38.7106 45.8039C37.9027 45.644 37.2852 45.9719 36.7991 46.5856C36.0333 47.5514 36.0422 49.0586 36.8054 50.024C37.6311 51.0684 39.0394 51.1229 39.883 50.0967C40.5854 49.2436 40.7471 48.2695 40.2905 47.2307C40.2059 47.5213 40.1204 47.8116 40.034 48.1017C40.034 48.3795 40.673 48.4928 40.2628 48.9639H39.8312C39.6355 49.3407 40.1779 49.8261 39.6257 50.1484L39.0841 49.4928C38.9233 49.8017 38.8232 50.0723 38.6534 50.2885C38.5721 50.3923 38.3594 50.3932 38.2066 50.4396C38.1815 50.3148 38.1172 50.1833 38.1405 50.0652C38.1851 49.8117 38.2718 49.565 38.3755 49.1944C38.0681 49.3345 37.8804 49.4535 37.6758 49.5023C37.5373 49.5358 37.3183 49.5258 37.229 49.4402C37.0556 49.2685 37.153 49.1021 37.3531 48.9773C37.5533 48.852 37.7383 48.6932 38.0002 48.4948C37.7052 48.3422 37.5185 48.227 37.3165 48.1457C36.9323 47.9955 36.9099 47.7694 37.1306 47.462L38.1628 47.5764C37.9554 47.2191 37.7803 46.985 37.6758 46.7196C37.6347 46.6142 37.7169 46.4177 37.8062 46.3221C37.8518 46.2739 38.0743 46.3176 38.1548 46.39C38.3764 46.5928 38.564 46.8313 38.8125 47.1101C38.8723 46.7223 38.9161 46.4409 38.9608 46.155C39.8491 46.2247 39.2932 46.9591 39.5292 47.2468H40.3039ZM37.3871 46.3846C36.5364 47.7774 36.4935 49.1016 37.665 50.3368C36.3219 49.8949 36.0485 47.5023 37.3889 46.3846H37.3871Z" fill="#262626"/>
<path d="M50.4395 39.5455H52.0999L52.1085 39.4473H50.4467L50.4395 39.5455Z" fill="#262626"/>
<path d="M56.3888 39.5469H54.8878L54.8753 39.6594L56.3659 39.7434L56.3888 39.5469Z" fill="#262626"/>
<path d="M54.2585 39.4883H52.7397L52.7349 39.6008H54.2542L54.2585 39.4883Z" fill="#262626"/>
<path d="M18.4674 49.1567L18.1028 48.6015L17.7722 49.4613C17.3861 49.0778 17.7722 48.7134 17.6605 48.3648L17.194 48.6488C16.9527 48.4035 17.0554 48.2103 17.2574 48.0353C17.4987 47.8271 17.4763 47.6699 17.2199 47.4716C17.0787 47.3626 17.0144 47.1509 16.8508 46.8775L17.5032 46.9204C17.6497 46.563 17.0617 46.228 17.4978 45.817L17.9321 46.5085L18.0527 45.8126C18.2824 45.9233 18.2824 45.9233 18.3548 46.7006L18.8516 46.5273C18.5728 46.1699 18.3673 45.8126 18.0688 45.5624C17.7703 45.3123 17.3584 45.4141 17.1645 45.725C16.906 46.1343 16.7162 46.583 16.6024 47.0535C16.4412 47.7589 16.5611 48.4996 16.9366 49.1179C17.3575 49.8424 17.9857 49.8462 18.4674 49.1567ZM17.2163 49.1438C16.5604 48.3758 16.5282 46.8935 17.1484 46.0413C16.7614 47.083 16.7177 48.1147 17.2119 49.1438H17.2163Z" fill="#262626"/>
<path d="M18.5148 47.929C18.2824 47.8673 18.0849 47.875 18.017 47.7858C17.7838 47.475 17.9026 47.1185 18.2851 46.9094C18.244 46.8782 18.2029 46.8201 18.1743 46.8291C18.017 46.8621 17.7346 46.8951 17.7275 46.9559C17.6783 47.3227 17.6756 47.6944 17.7194 48.0619C17.7346 48.1743 18.0304 48.3675 18.1001 48.3297C18.2815 48.2408 18.4102 48.0457 18.5148 47.929Z" fill="#262626"/>
<path d="M18.8856 48.0176C18.3396 48.1687 18.4897 48.4896 18.6622 48.8219C18.7337 48.5599 18.8061 48.3021 18.8856 48.0176Z" fill="#262626"/>
<path d="M51.921 41.1815L51.4304 40.9233L51.5848 40.666L50.9326 40.8152C51.054 40.9412 50.594 40.9796 50.8924 41.1877C51.0158 41.2771 50.9727 41.5969 51.0129 41.8614C51.4892 41.9784 51.6441 41.5344 51.921 41.1815Z" fill="#262626"/>
<path d="M57.9152 41.7987C58.2352 41.7094 58.2433 41.6942 58.1424 41.4271C58.1247 41.3807 58.1247 41.3296 58.1424 41.2833C58.3212 40.9053 58.053 40.8544 57.7637 40.8223L57.8923 40.9438C57.7732 41.0125 57.624 41.0501 57.5738 41.1421C57.5365 41.2135 57.6097 41.3645 57.6685 41.4583C57.7388 41.5487 57.8191 41.6306 57.9081 41.7023L57.9152 41.7987Z" fill="#262626"/>
<path d="M33.5017 36.1317C33.5017 35.5956 33.3953 35.4688 32.9038 35.4599C32.2515 35.4492 31.5982 35.4268 30.9468 35.4554C30.7466 35.4643 30.5527 35.6251 30.3847 35.7886C30.9298 35.4259 31.4883 35.6895 32.0182 35.76C32.5115 35.8262 32.9914 35.9995 33.5017 36.1317Z" fill="#262626"/>
<path d="M39.7927 48.6186C39.5246 48.6525 39.202 48.7888 39.0707 48.6855C38.892 48.5425 38.766 48.2155 38.7722 47.9706C38.782 47.6134 39.1145 47.5821 39.4826 47.6134C39.1448 47.2944 38.8249 47.29 38.4943 47.4659C38.1485 47.65 38.0216 48.1136 38.169 48.5736C38.3067 49.0016 38.7052 49.3062 39.1064 49.257C39.5309 49.2072 39.7516 48.9452 39.7927 48.6186Z" fill="#262626"/>
<path d="M8.59392 20.1938H6.97388L8.79912 14.6641H10.8512L12.6764 20.1938H11.0564L9.84676 16.1869H9.80353L8.59392 20.1938ZM8.29151 18.0121H11.3372V19.1354H8.29151V18.0121Z" fill="#262626"/>
<path d="M13.209 20.1938V14.6641H15.6066C16.0279 14.6641 16.3816 14.7208 16.6678 14.8342C16.9558 14.9476 17.1727 15.1078 17.3185 15.3148C17.4661 15.5218 17.5399 15.7657 17.5399 16.0465C17.5399 16.2499 17.4949 16.4353 17.4049 16.6027C17.3167 16.7701 17.1925 16.9105 17.0323 17.0239C16.8721 17.1355 16.6849 17.2129 16.4707 17.2561V17.3101C16.7083 17.3191 16.9243 17.3794 17.1187 17.491C17.3131 17.6008 17.4679 17.7529 17.5831 17.9473C17.6983 18.14 17.7559 18.3668 17.7559 18.6278C17.7559 18.9302 17.6767 19.1993 17.5183 19.4351C17.3617 19.6709 17.1385 19.8563 16.8487 19.9913C16.5589 20.1263 16.2133 20.1938 15.8119 20.1938H13.209ZM14.7102 18.995H15.4122C15.6643 18.995 15.8532 18.9482 15.9792 18.8546C16.1052 18.7592 16.1683 18.6188 16.1683 18.4333C16.1683 18.3037 16.1386 18.1939 16.0792 18.1039C16.0197 18.0139 15.9352 17.9455 15.8254 17.8987C15.7173 17.8519 15.5868 17.8285 15.4339 17.8285H14.7102V18.995ZM14.7102 16.8997H15.3258C15.4572 16.8997 15.5733 16.879 15.6742 16.8376C15.775 16.7962 15.8532 16.7368 15.909 16.6594C15.9667 16.5802 15.9955 16.4839 15.9955 16.3705C15.9955 16.1995 15.9342 16.069 15.8119 15.979C15.6895 15.8872 15.5347 15.8413 15.3474 15.8413H14.7102V16.8997Z" fill="#262626"/>
<path d="M18.1366 15.8737V14.6641H22.9427V15.8737H21.2795V20.1938H19.7999V15.8737H18.1366Z" fill="#262626"/>
<path d="M28.6047 17.4289C28.6047 18.0446 28.4851 18.564 28.2456 18.9871C28.0062 19.4084 27.6831 19.7279 27.2763 19.9458C26.8695 20.1618 26.4159 20.2698 25.9154 20.2698C25.4115 20.2698 24.956 20.1609 24.5492 19.9431C24.1442 19.7234 23.822 19.403 23.5826 18.9817C23.345 18.5586 23.2262 18.041 23.2262 17.4289C23.2262 16.8132 23.345 16.2947 23.5826 15.8733C23.822 15.4503 24.1442 15.1307 24.5492 14.9147C24.956 14.6968 25.4115 14.5879 25.9154 14.5879C26.4159 14.5879 26.8695 14.6968 27.2763 14.9147C27.6831 15.1307 28.0062 15.4503 28.2456 15.8733C28.4851 16.2947 28.6047 16.8132 28.6047 17.4289ZM27.0603 17.4289C27.0603 17.0976 27.0162 16.8185 26.928 16.5917C26.8416 16.363 26.7129 16.1902 26.5419 16.0732C26.3727 15.9543 26.1639 15.8949 25.9154 15.8949C25.6671 15.8949 25.4574 15.9543 25.2864 16.0732C25.1171 16.1902 24.9885 16.363 24.9002 16.5917C24.8139 16.8185 24.7706 17.0976 24.7706 17.4289C24.7706 17.7601 24.8139 18.0401 24.9002 18.2687C24.9885 18.4956 25.1171 18.6684 25.2864 18.7872C25.4574 18.9043 25.6671 18.9628 25.9154 18.9628C26.1639 18.9628 26.3727 18.9043 26.5419 18.7872C26.7129 18.6684 26.8416 18.4956 26.928 18.2687C27.0162 18.0401 27.0603 17.7601 27.0603 17.4289Z" fill="#262626"/>
<path d="M33.8678 20.1938H32.3666V15.8629H31.8374C31.6628 15.8629 31.5125 15.8872 31.3865 15.9358C31.2605 15.9826 31.1633 16.0564 31.0949 16.1572C31.0283 16.2562 30.995 16.3849 30.995 16.5433C30.995 16.6999 31.0283 16.8268 31.0949 16.924C31.1633 17.0212 31.2605 17.0923 31.3865 17.1373C31.5125 17.1805 31.6628 17.2021 31.8374 17.2021H32.9606V18.3685H31.535C31.1156 18.3685 30.7475 18.2992 30.4307 18.1607C30.1139 18.022 29.8673 17.8168 29.6909 17.545C29.5163 17.2732 29.4289 16.9393 29.4289 16.5433C29.4289 16.1509 29.5144 15.8143 29.6854 15.5335C29.8565 15.2527 30.0958 15.0376 30.4037 14.8881C30.7133 14.7388 31.0724 14.6641 31.481 14.6641H33.8678V20.1938ZM30.6278 17.6557H32.2262L30.8762 20.1938H29.2454L30.6278 17.6557Z" fill="#262626"/>
<path d="M34.5786 20.1938V14.6641H36.0799V16.8241H38.0671V14.6641H39.5683V20.1938H38.0671V18.0337H36.0799V20.1938H34.5786Z" fill="#262626"/>
<path d="M44.1693 14.6641V15.8737H41.7824V20.1938H40.2812V14.6641H44.1693Z" fill="#262626"/>
<path d="M49.826 17.4289C49.826 18.0446 49.706 18.564 49.4669 18.9871C49.2273 19.4084 48.9041 19.7279 48.4976 19.9458C48.0906 20.1618 47.637 20.2698 47.1366 20.2698C46.6326 20.2698 46.1772 20.1609 45.7704 19.9431C45.3654 19.7234 45.0432 19.403 44.8038 18.9817C44.5662 18.5586 44.4474 18.041 44.4474 17.4289C44.4474 16.8132 44.5662 16.2947 44.8038 15.8733C45.0432 15.4503 45.3654 15.1307 45.7704 14.9147C46.1772 14.6968 46.6326 14.5879 47.1366 14.5879C47.637 14.5879 48.0906 14.6968 48.4976 14.9147C48.9041 15.1307 49.2273 15.4503 49.4669 15.8733C49.706 16.2947 49.826 16.8132 49.826 17.4289ZM48.2814 17.4289C48.2814 17.0976 48.2375 16.8185 48.149 16.5917C48.0629 16.363 47.9343 16.1902 47.763 16.0732C47.5938 15.9543 47.3851 15.8949 47.1366 15.8949C46.8882 15.8949 46.6785 15.9543 46.5075 16.0732C46.3383 16.1902 46.2096 16.363 46.1214 16.5917C46.035 16.8185 45.9918 17.0976 45.9918 17.4289C45.9918 17.7601 46.035 18.0401 46.1214 18.2687C46.2096 18.4956 46.3383 18.6684 46.5075 18.7872C46.6785 18.9043 46.8882 18.9628 47.1366 18.9628C47.3851 18.9628 47.5938 18.9043 47.763 18.7872C47.9343 18.6684 48.0629 18.4956 48.149 18.2687C48.2375 18.0401 48.2814 17.7601 48.2814 17.4289Z" fill="#262626"/>
<path d="M50.3367 20.1938V19.0382L50.4878 19.0165C50.6715 18.9878 50.8235 18.9086 50.9445 18.779C51.0669 18.6476 51.1602 18.4396 51.2252 18.1553C51.2917 17.8691 51.3343 17.4793 51.3519 16.9861L51.4385 14.6641H55.4453V20.1938H53.9983V15.8305H52.821L52.7344 17.5693C52.7019 18.2137 52.6158 18.7277 52.4752 19.1111C52.3351 19.4945 52.1214 19.7708 51.8354 19.94C51.549 20.1092 51.1721 20.1938 50.704 20.1938H50.3367Z" fill="#262626"/>
<path d="M56.1559 14.6641H57.6575V17.5585H57.7005L59.6664 14.6641H60.9408V20.1938H59.4393V17.2885H59.4072L57.4088 20.1938H56.1559V14.6641Z" fill="#262626"/>
<path d="M8.24123 55.3906L8.97159 56.6861H9.00635L9.74541 55.3906H11.093L9.76277 57.6166L11.1452 59.8422H9.76277L9.00635 58.5209H8.97159L8.21517 59.8422H6.8414L8.20647 57.6166L6.88487 55.3906H8.24123Z" fill="#262626"/>
<path d="M11.6142 55.3906H13.1183L14.153 57.9122H14.2051L15.2398 55.3906H16.744V59.8422H15.5615V57.2685H15.5267L14.5355 59.8073H13.8226L12.8314 57.2513H12.7966V59.8422H11.6142V55.3906Z" fill="#262626"/>
<path d="M17.3167 59.8422V55.3906H20.525V56.3642H18.5253V57.1294H20.3598V58.1035H18.5253V58.8686H20.5163V59.8422H17.3167Z" fill="#262626"/>
<path d="M20.9766 59.8422V58.9121L21.0983 58.8944C21.2461 58.8714 21.3685 58.8078 21.4657 58.7031C21.5642 58.5974 21.6395 58.4301 21.6917 58.201C21.7453 57.971 21.7794 57.6568 21.7939 57.2599L21.8634 55.3906H25.0891V59.8422H23.924V56.3298H22.9763L22.9068 57.7295C22.8807 58.2483 22.8111 58.662 22.6981 58.9704C22.5851 59.2793 22.4134 59.5017 22.183 59.638C21.9525 59.7743 21.649 59.8422 21.2722 59.8422H20.9766Z" fill="#262626"/>
<path d="M26.4264 56.886H27.3481C27.7233 56.886 28.0509 56.9462 28.3305 57.0667C28.6116 57.1867 28.8298 57.3565 28.9848 57.575C29.1413 57.7941 29.2188 58.0513 29.2174 58.3469C29.2188 58.6424 29.1413 58.9025 28.9848 59.1273C28.8298 59.3516 28.6116 59.5271 28.3305 59.6533C28.0509 59.7791 27.7233 59.8422 27.3481 59.8422H25.6874V55.3906H26.8959V58.8944H27.3481C27.4944 58.8944 27.6168 58.8705 27.7154 58.8227C27.8154 58.7748 27.8907 58.7089 27.9414 58.6252C27.9936 58.541 28.019 58.4454 28.0175 58.3382C28.019 58.1862 27.9624 58.0599 27.848 57.96C27.7335 57.8586 27.5669 57.8079 27.3481 57.8079H26.4264V56.886Z" fill="#262626"/>
<path d="M29.9053 59.8422V55.3906H31.1139V57.1294H32.7137V55.3906H33.9222V59.8422H32.7137V58.1035H31.1139V59.8422H29.9053Z" fill="#262626"/>
<path d="M34.496 55.3906H35.7046V57.7209H35.7394L37.3218 55.3906H38.3477V59.8422H37.1392V57.5033H37.1131L35.5046 59.8422H34.496V55.3906Z" fill="#262626"/>
<path d="M43.5449 58.9293L43.4927 60.8942H42.3711V59.8422H42.0581V58.9293H43.5449ZM38.9194 59.8422V55.3906H40.0845V58.9121H41.6408V55.3906H42.8233V59.8422H38.9194Z" fill="#262626"/>
<path d="M44.7176 56.886H45.6392C46.0145 56.886 46.342 56.9462 46.6217 57.0667C46.9028 57.1867 47.1209 57.3565 47.2759 57.575C47.4324 57.7941 47.51 58.0513 47.5085 58.3469C47.51 58.6424 47.4324 58.9025 47.2759 59.1273C47.1209 59.3516 46.9028 59.5271 46.6217 59.6533C46.342 59.7791 46.0145 59.8422 45.6392 59.8422H43.9785V55.3906H45.1871V58.8944H45.6392C45.7856 58.8944 45.908 58.8705 46.0065 58.8227C46.1065 58.7748 46.1819 58.7089 46.2326 58.6252C46.2848 58.541 46.3101 58.4454 46.3087 58.3382C46.3101 58.1862 46.2536 58.0599 46.1391 57.96C46.0247 57.8586 45.858 57.8079 45.6392 57.8079H44.7176V56.886Z" fill="#262626"/>
<path d="M50.9398 59.8422L49.5745 58.0427H49.4052V59.8422H48.1963V55.3906H49.4052V57.0686H49.5616L50.8398 55.3906H52.361L50.6657 57.5296L52.4566 59.8422H50.9398Z" fill="#262626"/>
<path d="M52.7813 55.3906H53.9897V57.7209H54.0246L55.607 55.3906H56.6327V59.8422H55.4243V57.5033H55.3985L53.7898 59.8422H52.7813V55.3906Z" fill="#262626"/>
<path d="M57.2047 55.3895H58.4131V57.7201H58.448L60.0303 55.3895H61.0561V59.8418H59.8477V57.5025H59.8218L58.2132 59.8418H57.2047V55.3895ZM59.5693 54.1895H60.3259C60.3244 54.4721 60.2164 54.6984 60.0021 54.8677C59.7874 55.036 59.4986 55.1197 59.1347 55.1197C58.7684 55.1197 58.4776 55.036 58.2629 54.8677C58.0487 54.6984 57.942 54.4721 57.9435 54.1895H58.6914C58.6899 54.2808 58.7225 54.365 58.7889 54.4415C58.8573 54.5171 58.9726 54.5549 59.1347 54.5549C59.2896 54.5549 59.4005 54.5176 59.4675 54.4439C59.534 54.3698 59.5679 54.2851 59.5693 54.1895Z" fill="#262626"/>
</g>
<defs>
<clipPath id="clip0_514_6567">
<rect width="68" height="87" fill="white"/>
</clipPath>
</defs>
</svg>
